<?xml version="1.0" encoding="utf-8" standalone="no"?>
<!DOCTYPE svg PUBLIC "-//W3C//DTD SVG 1.1//EN"
  "http://www.w3.org/Graphics/SVG/1.1/DTD/svg11.dtd">
<svg xmlns:xlink="http://www.w3.org/1999/xlink" width="460.8pt" height="345.6pt" viewBox="0 0 460.8 345.6" xmlns="http://www.w3.org/2000/svg" version="1.1">
 <metadata>
  <rdf:RDF xmlns:dc="http://purl.org/dc/elements/1.1/" xmlns:cc="http://creativecommons.org/ns#" xmlns:rdf="http://www.w3.org/1999/02/22-rdf-syntax-ns#">
   <cc:Work>
    <dc:type rdf:resource="http://purl.org/dc/dcmitype/StillImage"/>
    <dc:date>2023-06-16T15:31:10.118284</dc:date>
    <dc:format>image/svg+xml</dc:format>
    <dc:creator>
     <cc:Agent>
      <dc:title>Matplotlib v3.7.0, https://matplotlib.org/</dc:title>
     </cc:Agent>
    </dc:creator>
   </cc:Work>
  </rdf:RDF>
 </metadata>
 <defs>
  <style type="text/css">*{stroke-linejoin: round; stroke-linecap: butt}</style>
 </defs>
 <g id="figure_1">
  <g id="patch_1">
   <path d="M 0 345.6 
L 460.8 345.6 
L 460.8 0 
L 0 0 
z
" style="fill: #ffffff"/>
  </g>
  <g id="axes_1">
   <g id="patch_2">
    <path d="M 57.6 307.584 
L 414.72 307.584 
L 414.72 41.472 
L 57.6 41.472 
z
" style="fill: #ffffff"/>
   </g>
   <g id="matplotlib.axis_1">
    <g id="xtick_1">
     <g id="line2d_1">
      <defs>
       <path id="m559cac4e3f" d="M 0 0 
L 0 3.5 
" style="stroke: #000000; stroke-width: 0.8"/>
      </defs>
      <g>
       <use xlink:href="#m559cac4e3f" x="73.832727" y="307.584" style="stroke: #000000; stroke-width: 0.8"/>
      </g>
     </g>
     <g id="text_1">
      <!-- 0 -->
      <g transform="translate(70.651477 322.182437) scale(0.1 -0.1)">
       <defs>
        <path id="DejaVuSans-30" d="M 2034 4250 
Q 1547 4250 1301 3770 
Q 1056 3291 1056 2328 
Q 1056 1369 1301 889 
Q 1547 409 2034 409 
Q 2525 409 2770 889 
Q 3016 1369 3016 2328 
Q 3016 3291 2770 3770 
Q 2525 4250 2034 4250 
z
M 2034 4750 
Q 2819 4750 3233 4129 
Q 3647 3509 3647 2328 
Q 3647 1150 3233 529 
Q 2819 -91 2034 -91 
Q 1250 -91 836 529 
Q 422 1150 422 2328 
Q 422 3509 836 4129 
Q 1250 4750 2034 4750 
z
" transform="scale(0.015625)"/>
       </defs>
       <use xlink:href="#DejaVuSans-30"/>
      </g>
     </g>
    </g>
    <g id="xtick_2">
     <g id="line2d_2">
      <g>
       <use xlink:href="#m559cac4e3f" x="138.828632" y="307.584" style="stroke: #000000; stroke-width: 0.8"/>
      </g>
     </g>
     <g id="text_2">
      <!-- 200 -->
      <g transform="translate(129.284882 322.182437) scale(0.1 -0.1)">
       <defs>
        <path id="DejaVuSans-32" d="M 1228 531 
L 3431 531 
L 3431 0 
L 469 0 
L 469 531 
Q 828 903 1448 1529 
Q 2069 2156 2228 2338 
Q 2531 2678 2651 2914 
Q 2772 3150 2772 3378 
Q 2772 3750 2511 3984 
Q 2250 4219 1831 4219 
Q 1534 4219 1204 4116 
Q 875 4013 500 3803 
L 500 4441 
Q 881 4594 1212 4672 
Q 1544 4750 1819 4750 
Q 2544 4750 2975 4387 
Q 3406 4025 3406 3419 
Q 3406 3131 3298 2873 
Q 3191 2616 2906 2266 
Q 2828 2175 2409 1742 
Q 1991 1309 1228 531 
z
" transform="scale(0.015625)"/>
       </defs>
       <use xlink:href="#DejaVuSans-32"/>
       <use xlink:href="#DejaVuSans-30" x="63.623047"/>
       <use xlink:href="#DejaVuSans-30" x="127.246094"/>
      </g>
     </g>
    </g>
    <g id="xtick_3">
     <g id="line2d_3">
      <g>
       <use xlink:href="#m559cac4e3f" x="203.824537" y="307.584" style="stroke: #000000; stroke-width: 0.8"/>
      </g>
     </g>
     <g id="text_3">
      <!-- 400 -->
      <g transform="translate(194.280787 322.182437) scale(0.1 -0.1)">
       <defs>
        <path id="DejaVuSans-34" d="M 2419 4116 
L 825 1625 
L 2419 1625 
L 2419 4116 
z
M 2253 4666 
L 3047 4666 
L 3047 1625 
L 3713 1625 
L 3713 1100 
L 3047 1100 
L 3047 0 
L 2419 0 
L 2419 1100 
L 313 1100 
L 313 1709 
L 2253 4666 
z
" transform="scale(0.015625)"/>
       </defs>
       <use xlink:href="#DejaVuSans-34"/>
       <use xlink:href="#DejaVuSans-30" x="63.623047"/>
       <use xlink:href="#DejaVuSans-30" x="127.246094"/>
      </g>
     </g>
    </g>
    <g id="xtick_4">
     <g id="line2d_4">
      <g>
       <use xlink:href="#m559cac4e3f" x="268.820442" y="307.584" style="stroke: #000000; stroke-width: 0.8"/>
      </g>
     </g>
     <g id="text_4">
      <!-- 600 -->
      <g transform="translate(259.276692 322.182437) scale(0.1 -0.1)">
       <defs>
        <path id="DejaVuSans-36" d="M 2113 2584 
Q 1688 2584 1439 2293 
Q 1191 2003 1191 1497 
Q 1191 994 1439 701 
Q 1688 409 2113 409 
Q 2538 409 2786 701 
Q 3034 994 3034 1497 
Q 3034 2003 2786 2293 
Q 2538 2584 2113 2584 
z
M 3366 4563 
L 3366 3988 
Q 3128 4100 2886 4159 
Q 2644 4219 2406 4219 
Q 1781 4219 1451 3797 
Q 1122 3375 1075 2522 
Q 1259 2794 1537 2939 
Q 1816 3084 2150 3084 
Q 2853 3084 3261 2657 
Q 3669 2231 3669 1497 
Q 3669 778 3244 343 
Q 2819 -91 2113 -91 
Q 1303 -91 875 529 
Q 447 1150 447 2328 
Q 447 3434 972 4092 
Q 1497 4750 2381 4750 
Q 2619 4750 2861 4703 
Q 3103 4656 3366 4563 
z
" transform="scale(0.015625)"/>
       </defs>
       <use xlink:href="#DejaVuSans-36"/>
       <use xlink:href="#DejaVuSans-30" x="63.623047"/>
       <use xlink:href="#DejaVuSans-30" x="127.246094"/>
      </g>
     </g>
    </g>
    <g id="xtick_5">
     <g id="line2d_5">
      <g>
       <use xlink:href="#m559cac4e3f" x="333.816347" y="307.584" style="stroke: #000000; stroke-width: 0.8"/>
      </g>
     </g>
     <g id="text_5">
      <!-- 800 -->
      <g transform="translate(324.272597 322.182437) scale(0.1 -0.1)">
       <defs>
        <path id="DejaVuSans-38" d="M 2034 2216 
Q 1584 2216 1326 1975 
Q 1069 1734 1069 1313 
Q 1069 891 1326 650 
Q 1584 409 2034 409 
Q 2484 409 2743 651 
Q 3003 894 3003 1313 
Q 3003 1734 2745 1975 
Q 2488 2216 2034 2216 
z
M 1403 2484 
Q 997 2584 770 2862 
Q 544 3141 544 3541 
Q 544 4100 942 4425 
Q 1341 4750 2034 4750 
Q 2731 4750 3128 4425 
Q 3525 4100 3525 3541 
Q 3525 3141 3298 2862 
Q 3072 2584 2669 2484 
Q 3125 2378 3379 2068 
Q 3634 1759 3634 1313 
Q 3634 634 3220 271 
Q 2806 -91 2034 -91 
Q 1263 -91 848 271 
Q 434 634 434 1313 
Q 434 1759 690 2068 
Q 947 2378 1403 2484 
z
M 1172 3481 
Q 1172 3119 1398 2916 
Q 1625 2713 2034 2713 
Q 2441 2713 2670 2916 
Q 2900 3119 2900 3481 
Q 2900 3844 2670 4047 
Q 2441 4250 2034 4250 
Q 1625 4250 1398 4047 
Q 1172 3844 1172 3481 
z
" transform="scale(0.015625)"/>
       </defs>
       <use xlink:href="#DejaVuSans-38"/>
       <use xlink:href="#DejaVuSans-30" x="63.623047"/>
       <use xlink:href="#DejaVuSans-30" x="127.246094"/>
      </g>
     </g>
    </g>
    <g id="xtick_6">
     <g id="line2d_6">
      <g>
       <use xlink:href="#m559cac4e3f" x="398.812252" y="307.584" style="stroke: #000000; stroke-width: 0.8"/>
      </g>
     </g>
     <g id="text_6">
      <!-- 1000 -->
      <g transform="translate(386.087252 322.182437) scale(0.1 -0.1)">
       <defs>
        <path id="DejaVuSans-31" d="M 794 531 
L 1825 531 
L 1825 4091 
L 703 3866 
L 703 4441 
L 1819 4666 
L 2450 4666 
L 2450 531 
L 3481 531 
L 3481 0 
L 794 0 
L 794 531 
z
" transform="scale(0.015625)"/>
       </defs>
       <use xlink:href="#DejaVuSans-31"/>
       <use xlink:href="#DejaVuSans-30" x="63.623047"/>
       <use xlink:href="#DejaVuSans-30" x="127.246094"/>
       <use xlink:href="#DejaVuSans-30" x="190.869141"/>
      </g>
     </g>
    </g>
   </g>
   <g id="matplotlib.axis_2">
    <g id="ytick_1">
     <g id="line2d_7">
      <defs>
       <path id="mb006989388" d="M 0 0 
L -3.5 0 
" style="stroke: #000000; stroke-width: 0.8"/>
      </defs>
      <g>
       <use xlink:href="#mb006989388" x="57.6" y="84.513783" style="stroke: #000000; stroke-width: 0.8"/>
      </g>
     </g>
     <g id="text_7">
      <!-- $\mathdefault{10^{1}}$ -->
      <g transform="translate(33 88.313002) scale(0.1 -0.1)">
       <use xlink:href="#DejaVuSans-31" transform="translate(0 0.684375)"/>
       <use xlink:href="#DejaVuSans-30" transform="translate(63.623047 0.684375)"/>
       <use xlink:href="#DejaVuSans-31" transform="translate(128.203125 38.965625) scale(0.7)"/>
      </g>
     </g>
    </g>
    <g id="ytick_2">
     <g id="line2d_8">
      <defs>
       <path id="m977538c7f3" d="M 0 0 
L -2 0 
" style="stroke: #000000; stroke-width: 0.6"/>
      </defs>
      <g>
       <use xlink:href="#m977538c7f3" x="57.6" y="256.663432" style="stroke: #000000; stroke-width: 0.6"/>
      </g>
     </g>
    </g>
    <g id="ytick_3">
     <g id="line2d_9">
      <g>
       <use xlink:href="#m977538c7f3" x="57.6" y="213.293833" style="stroke: #000000; stroke-width: 0.6"/>
      </g>
     </g>
    </g>
    <g id="ytick_4">
     <g id="line2d_10">
      <g>
       <use xlink:href="#m977538c7f3" x="57.6" y="182.522613" style="stroke: #000000; stroke-width: 0.6"/>
      </g>
     </g>
    </g>
    <g id="ytick_5">
     <g id="line2d_11">
      <g>
       <use xlink:href="#m977538c7f3" x="57.6" y="158.654601" style="stroke: #000000; stroke-width: 0.6"/>
      </g>
     </g>
    </g>
    <g id="ytick_6">
     <g id="line2d_12">
      <g>
       <use xlink:href="#m977538c7f3" x="57.6" y="139.153015" style="stroke: #000000; stroke-width: 0.6"/>
      </g>
     </g>
    </g>
    <g id="ytick_7">
     <g id="line2d_13">
      <g>
       <use xlink:href="#m977538c7f3" x="57.6" y="122.664659" style="stroke: #000000; stroke-width: 0.6"/>
      </g>
     </g>
    </g>
    <g id="ytick_8">
     <g id="line2d_14">
      <g>
       <use xlink:href="#m977538c7f3" x="57.6" y="108.381795" style="stroke: #000000; stroke-width: 0.6"/>
      </g>
     </g>
    </g>
    <g id="ytick_9">
     <g id="line2d_15">
      <g>
       <use xlink:href="#m977538c7f3" x="57.6" y="95.783417" style="stroke: #000000; stroke-width: 0.6"/>
      </g>
     </g>
    </g>
   </g>
   <g id="line2d_16">
    <path d="M 73.832727 53.568 
L 74.482686 60.95287 
L 74.807666 66.956764 
L 75.132645 75.788007 
L 76.107584 114.959544 
L 76.757543 140.255332 
L 77.407502 155.289122 
L 78.382441 166.918728 
L 79.0324 172.984177 
L 79.357379 175.263096 
L 79.682359 176.658283 
L 80.332318 181.202956 
L 80.982277 186.297933 
L 81.307256 186.120689 
L 81.632236 186.622091 
L 82.607174 190.470409 
L 83.257133 191.377422 
L 83.907093 200.039477 
L 84.232072 201.927627 
L 84.557052 202.431389 
L 84.882031 203.281233 
L 85.207011 204.574929 
L 85.53199 206.984695 
L 85.85697 207.232566 
L 86.181949 209.315928 
L 86.506929 210.616617 
L 86.831908 210.060101 
L 87.481867 214.170532 
L 88.131826 212.663917 
L 88.456806 214.734133 
L 88.781785 210.549179 
L 89.431744 214.372775 
L 89.756724 213.614626 
L 90.081704 214.312469 
L 90.406683 215.43832 
L 91.056642 220.730995 
L 91.381622 221.455067 
L 91.706601 220.464344 
L 92.031581 223.126357 
L 92.35656 221.494295 
L 92.68154 224.595064 
L 93.006519 222.701571 
L 93.331499 224.955153 
L 93.656478 223.112891 
L 93.981458 224.145278 
L 94.306437 220.71504 
L 94.631417 221.804722 
L 94.956396 221.905625 
L 95.281376 218.495042 
L 95.606355 219.79518 
L 95.931335 222.864847 
L 96.256314 223.601828 
L 96.581294 221.22667 
L 96.906274 223.084056 
L 97.231253 220.769467 
L 97.556233 221.013205 
L 97.881212 225.39815 
L 98.206192 224.503052 
L 98.531171 224.663791 
L 98.856151 223.592093 
L 99.18113 223.233085 
L 99.50611 223.075244 
L 100.481048 223.106239 
L 100.806028 223.107627 
L 101.131007 223.475768 
L 101.455987 223.252033 
L 101.780966 223.426862 
L 102.105946 223.440974 
L 102.430925 223.202856 
L 103.405864 223.053283 
L 103.730844 222.910084 
L 104.055823 222.21688 
L 104.705782 221.76583 
L 105.355741 222.519202 
L 106.0057 223.356805 
L 106.655659 224.352188 
L 106.980639 224.398887 
L 107.630598 225.004697 
L 107.955577 224.933617 
L 109.580475 229.193708 
L 109.905455 231.344748 
L 110.230434 232.385198 
L 110.555414 230.680741 
L 111.205373 230.83584 
L 111.855332 232.815384 
L 112.180311 232.82524 
L 112.505291 228.966371 
L 112.83027 229.964449 
L 113.15525 230.495792 
L 113.480229 230.716221 
L 113.805209 231.454313 
L 114.130188 231.856352 
L 114.455168 232.790278 
L 114.780147 233.050344 
L 117.055004 238.849064 
L 117.704963 244.093619 
L 118.354922 250.136066 
L 119.004881 256.617079 
L 119.65484 260.971514 
L 120.304799 262.512348 
L 121.604717 267.760213 
L 121.929697 267.139208 
L 122.254676 264.358859 
L 122.579656 263.913666 
L 124.529533 268.12131 
L 125.179492 269.221049 
L 126.47941 271.119885 
L 126.80439 270.754984 
L 127.129369 270.672959 
L 127.454349 270.92787 
L 127.779328 272.288495 
L 128.104308 272.294995 
L 128.754267 265.486595 
L 129.079247 264.54863 
L 129.404226 264.72725 
L 129.729206 263.79675 
L 130.054185 265.033515 
L 130.704144 266.374198 
L 131.029124 268.531725 
L 132.329042 272.044928 
L 132.654021 271.922775 
L 132.979001 272.537439 
L 133.62896 272.94558 
L 133.953939 273.665851 
L 134.278919 273.826346 
L 134.603898 274.751444 
L 134.928878 274.27769 
L 135.253857 276.204244 
L 136.553776 278.790333 
L 136.878755 279.092169 
L 137.203735 278.727822 
L 137.528714 279.08499 
L 137.853694 279.085643 
L 138.178673 279.977139 
L 138.503653 279.955617 
L 138.828632 279.074597 
L 139.153612 280.351702 
L 139.803571 279.653409 
L 140.12855 280.626327 
L 140.45353 279.436524 
L 140.778509 281.181824 
L 141.103489 280.51313 
L 141.428468 280.83497 
L 141.753448 280.808057 
L 142.078428 281.000524 
L 142.403407 280.893296 
L 142.728387 281.129408 
L 144.028305 281.540265 
L 144.353284 281.718752 
L 144.678264 282.196336 
L 145.328223 281.983391 
L 145.978182 282.354535 
L 146.303161 281.868209 
L 146.628141 282.087271 
L 146.95312 282.587765 
L 147.2781 281.989717 
L 147.603079 282.212825 
L 147.928059 281.945955 
L 148.253038 282.921329 
L 148.578018 282.408277 
L 148.902998 282.496165 
L 149.552957 282.997153 
L 150.202916 283.335974 
L 150.852875 282.690909 
L 151.177854 282.556703 
L 151.502834 283.455534 
L 151.827813 283.109346 
L 152.152793 283.020121 
L 152.477772 283.06829 
L 153.127731 283.695916 
L 153.452711 283.804686 
L 153.77769 283.24831 
L 154.10267 283.191921 
L 154.427649 283.948004 
L 154.752629 283.642343 
L 155.077609 283.876395 
L 155.727568 283.810323 
L 156.052547 284.019282 
L 156.377527 284.021332 
L 156.702506 284.444951 
L 157.027486 284.058555 
L 157.352465 284.166821 
L 157.677445 284.092017 
L 158.002424 283.389901 
L 158.327404 283.616174 
L 158.977363 283.763995 
L 159.952301 284.139204 
L 160.277281 284.201595 
L 160.60226 284.059486 
L 160.92724 284.116061 
L 161.252219 284.395117 
L 161.577199 283.98581 
L 161.902179 284.009007 
L 162.227158 283.570898 
L 162.552138 284.650649 
L 162.877117 283.271609 
L 163.202097 284.571393 
L 163.527076 284.398769 
L 163.852056 283.864522 
L 164.177035 284.18802 
L 164.502015 283.830014 
L 164.826994 284.332464 
L 165.151974 284.454358 
L 165.801933 283.829019 
L 166.126912 284.21282 
L 166.451892 284.083481 
L 167.101851 284.353201 
L 167.42683 284.095955 
L 167.75181 284.30767 
L 168.726749 284.337146 
L 170.026667 284.64115 
L 170.351646 284.569572 
L 170.676626 284.722066 
L 171.326585 284.777169 
L 171.651564 285.092606 
L 171.976544 284.890896 
L 172.626503 285.06095 
L 173.276462 285.609778 
L 174.90136 285.944289 
L 176.201278 286.055464 
L 176.526257 285.874724 
L 176.851237 285.839838 
L 177.176216 285.989433 
L 178.151155 285.92568 
L 178.801114 285.632653 
L 179.451073 285.831882 
L 179.776052 285.927005 
L 180.750991 285.899827 
L 181.72593 286.10973 
L 182.375889 286.197697 
L 183.025848 286.229599 
L 186.600622 286.844089 
L 186.925602 286.61602 
L 187.575561 286.727371 
L 188.5505 286.84479 
L 191.475315 287.349475 
L 194.725111 287.805325 
L 195.37507 287.955398 
L 196.674988 288.156575 
L 196.999967 288.041785 
L 198.624865 288.222545 
L 199.274824 288.318018 
L 200.574742 288.479079 
L 200.899722 288.243904 
L 201.224701 288.359545 
L 201.549681 288.101808 
L 201.87466 288.417936 
L 202.19964 288.479363 
L 202.524619 288.422817 
L 202.849599 288.554044 
L 203.499558 288.302934 
L 203.824537 288.710515 
L 204.149517 288.641793 
L 204.799476 288.951901 
L 205.449435 288.674725 
L 206.099394 288.573288 
L 206.749353 288.944237 
L 207.074333 289.280769 
L 207.399312 288.416134 
L 207.724292 289.293682 
L 208.049271 288.619323 
L 208.374251 289.002654 
L 208.69923 288.628426 
L 209.02421 289.460041 
L 209.349189 289.042437 
L 209.674169 288.408079 
L 209.999148 289.592712 
L 210.324128 288.841717 
L 210.974087 289.360729 
L 211.299066 288.828307 
L 211.624046 289.234768 
L 213.248943 288.952703 
L 213.573923 289.446172 
L 213.898903 288.720047 
L 214.223882 289.839977 
L 214.548862 289.191388 
L 215.198821 289.622077 
L 215.5238 289.255406 
L 216.498739 289.5086 
L 216.823718 289.436099 
L 217.148698 289.548545 
L 217.473677 289.493668 
L 217.798657 288.95535 
L 218.448616 290.079311 
L 218.773595 289.517389 
L 219.098575 289.460162 
L 219.423554 289.183093 
L 219.748534 289.610998 
L 220.073514 289.468167 
L 220.398493 289.511867 
L 220.723473 290.092356 
L 221.048452 289.183214 
L 221.373432 289.888118 
L 221.698411 289.963233 
L 222.023391 289.653498 
L 222.34837 289.697101 
L 222.67335 289.315983 
L 222.998329 290.321033 
L 223.323309 289.302376 
L 223.648288 290.313086 
L 223.973268 289.774002 
L 224.298247 289.880429 
L 224.623227 289.173597 
L 224.948206 290.455966 
L 225.273186 290.417901 
L 225.598165 289.650036 
L 225.923145 289.673783 
L 226.248124 290.605176 
L 226.573104 289.190308 
L 226.898084 290.584303 
L 227.223063 290.322727 
L 227.548043 289.863775 
L 227.873022 290.166071 
L 228.198002 290.043043 
L 228.522981 290.264675 
L 228.847961 289.183396 
L 229.17294 290.717938 
L 229.49792 289.466443 
L 229.822899 290.818755 
L 230.147879 289.839343 
L 230.472858 289.9855 
L 230.797838 290.758198 
L 231.122817 289.578141 
L 231.447797 290.888917 
L 231.772776 290.356312 
L 232.097756 290.636791 
L 232.422735 290.014311 
L 232.747715 290.747667 
L 233.072695 289.963625 
L 233.397674 290.450475 
L 233.722654 290.394041 
L 234.047633 290.554401 
L 234.372613 290.494937 
L 234.697592 290.124604 
L 235.022572 290.159374 
L 235.347551 290.994333 
L 235.672531 290.222804 
L 235.99751 290.27144 
L 236.32249 291.039479 
L 236.647469 290.250676 
L 236.972449 290.61719 
L 237.297428 290.21435 
L 237.622408 290.908646 
L 237.947387 291.022134 
L 238.272367 290.11451 
L 238.597346 290.915952 
L 238.922326 290.593714 
L 239.572285 290.481179 
L 239.897265 290.760697 
L 240.222244 290.084234 
L 240.547224 291.206182 
L 240.872203 290.112436 
L 241.522162 291.261892 
L 241.847142 290.65226 
L 242.172121 290.690882 
L 242.497101 290.611016 
L 242.82208 290.14932 
L 243.14706 291.108545 
L 243.472039 290.801253 
L 243.797019 290.178786 
L 244.121998 291.318469 
L 244.446978 290.817966 
L 245.096937 290.725679 
L 245.421916 290.907531 
L 245.746896 291.220184 
L 246.071876 290.36199 
L 246.396855 290.838103 
L 246.721835 290.269834 
L 247.046814 291.42146 
L 247.371794 290.653355 
L 247.696773 290.884167 
L 248.021753 291.372025 
L 248.346732 290.908356 
L 248.996691 290.84042 
L 249.321671 291.077907 
L 249.64665 290.611551 
L 249.97163 291.088901 
L 250.296609 291.076201 
L 250.621589 290.743011 
L 251.271548 290.899338 
L 251.596527 291.46157 
L 251.921507 290.219166 
L 252.246486 291.686969 
L 252.571466 290.279882 
L 252.896446 291.468076 
L 253.221425 291.148133 
L 253.546405 291.095868 
L 253.871384 290.866013 
L 254.196364 291.383235 
L 254.521343 290.988471 
L 254.846323 290.823634 
L 255.171302 291.068048 
L 255.496282 290.49422 
L 255.821261 291.752852 
L 256.146241 290.950532 
L 256.47122 290.972171 
L 256.7962 291.434396 
L 257.121179 291.072999 
L 257.446159 291.281189 
L 257.771138 290.695282 
L 258.096118 291.400153 
L 258.421097 290.626088 
L 258.746077 291.269443 
L 259.071057 290.835348 
L 259.396036 290.981362 
L 259.721016 290.433278 
L 260.045995 291.810965 
L 260.370975 290.632 
L 260.695954 291.3373 
L 261.670893 290.94173 
L 262.320852 291.18851 
L 262.645831 290.944611 
L 262.970811 291.406488 
L 263.29579 291.146056 
L 263.62077 291.530485 
L 263.945749 291.006602 
L 264.595708 290.995466 
L 264.920688 291.47105 
L 265.245667 290.758908 
L 265.570647 291.91787 
L 265.895627 290.795454 
L 266.220606 291.426878 
L 266.545586 291.018503 
L 266.870565 291.732612 
L 267.195545 290.942749 
L 267.520524 291.423031 
L 267.845504 290.567154 
L 268.170483 292.005576 
L 268.495463 291.271699 
L 268.820442 291.284123 
L 269.145422 291.419175 
L 269.470401 291.227864 
L 269.795381 291.216406 
L 270.12036 291.520734 
L 270.44534 290.415733 
L 270.770319 291.635917 
L 271.420278 290.9564 
L 272.070238 291.677293 
L 272.395217 291.227423 
L 272.720197 291.026872 
L 273.045176 291.951862 
L 273.370156 291.029245 
L 274.020115 291.466751 
L 274.345094 291.137194 
L 274.670074 291.103688 
L 274.995053 292.047663 
L 275.320033 291.462417 
L 275.645012 291.127497 
L 275.969992 291.765598 
L 276.294971 291.300198 
L 276.619951 291.648127 
L 276.94493 291.186388 
L 277.26991 291.48431 
L 277.919869 291.786039 
L 278.244848 291.224746 
L 278.569828 291.653539 
L 278.894808 291.552692 
L 279.544767 291.811496 
L 279.869746 291.494261 
L 280.194726 291.857431 
L 280.519705 291.749055 
L 280.844685 291.769015 
L 281.169664 291.421001 
L 281.494644 291.910743 
L 281.819623 291.7824 
L 282.144603 291.926496 
L 282.469582 291.481158 
L 282.794562 292.064785 
L 283.119541 291.723666 
L 283.444521 291.737975 
L 283.7695 292.332912 
L 284.09448 291.671031 
L 284.419459 291.897395 
L 284.744439 291.801472 
L 285.069419 292.15596 
L 285.394398 291.814268 
L 286.044357 291.946728 
L 286.369337 292.09085 
L 286.694316 291.87019 
L 287.344275 291.891599 
L 287.669255 291.765704 
L 287.994234 292.488499 
L 288.319214 291.807493 
L 288.969173 292.195405 
L 289.294152 291.979984 
L 290.269091 292.2523 
L 290.59407 292.156182 
L 290.91905 292.284717 
L 291.244029 291.844143 
L 291.569009 292.203901 
L 292.218968 292.196516 
L 292.543948 292.328925 
L 293.518886 292.128885 
L 293.843866 292.381823 
L 294.168845 292.043598 
L 294.818804 292.293541 
L 295.143784 292.189566 
L 295.468763 292.322314 
L 295.793743 292.332458 
L 296.118722 292.116069 
L 296.443702 292.361125 
L 297.74362 292.399604 
L 298.0686 292.644874 
L 298.393579 292.426686 
L 300.343456 292.503721 
L 300.668436 292.251384 
L 301.318395 292.277219 
L 301.643374 293.138122 
L 301.968354 291.103759 
L 302.293333 293.078693 
L 302.618313 293.181384 
L 302.943292 292.902159 
L 303.268272 292.426009 
L 303.593251 292.473367 
L 303.918231 292.862346 
L 304.24321 292.521692 
L 304.56819 292.781245 
L 305.868108 292.766751 
L 306.193088 293.048023 
L 306.518067 292.68891 
L 306.843047 293.067304 
L 307.168026 292.852464 
L 307.493006 292.859654 
L 307.817985 293.016619 
L 308.142965 292.894331 
L 308.467944 292.898831 
L 308.792924 293.026551 
L 309.767862 293.029633 
L 310.092842 292.668394 
L 310.417821 292.988357 
L 310.742801 291.980418 
L 311.067781 293.418504 
L 311.39276 293.542922 
L 311.71774 292.115394 
L 312.042719 293.49525 
L 313.667617 292.54226 
L 313.992596 293.663088 
L 314.317576 292.978365 
L 314.642555 293.329273 
L 314.967535 293.47036 
L 315.292514 293.392482 
L 315.617494 292.040891 
L 315.942473 293.712882 
L 316.267453 293.787313 
L 316.592432 292.643482 
L 316.917412 293.812926 
L 317.242391 292.873105 
L 317.567371 293.205515 
L 317.892351 293.840567 
L 318.21733 292.297269 
L 318.54231 293.836903 
L 319.517248 293.164083 
L 319.842228 293.274863 
L 320.167207 292.28848 
L 320.492187 293.241032 
L 321.142146 292.733875 
L 321.467125 293.950985 
L 321.792105 293.844078 
L 322.117084 293.385265 
L 322.442064 293.764529 
L 322.767043 293.541626 
L 323.092023 293.798094 
L 323.417002 293.6885 
L 323.741982 293.708122 
L 324.066962 293.86019 
L 324.391941 293.404678 
L 324.716921 293.78799 
L 326.016839 293.724466 
L 326.341818 293.983316 
L 326.666798 293.878083 
L 327.966716 293.930975 
L 328.291695 293.827923 
L 328.941654 294.09494 
L 329.266634 293.865949 
L 329.591613 293.998382 
L 329.916593 294.003191 
L 330.241572 294.136518 
L 334.141327 294.261367 
L 334.466306 294.403218 
L 334.791286 293.928374 
L 335.116265 294.423715 
L 335.766224 294.19585 
L 336.416183 294.214379 
L 336.741163 294.346391 
L 337.066143 294.232322 
L 337.391122 294.241435 
L 337.716102 294.369917 
L 338.041081 294.256655 
L 338.366061 294.386071 
L 338.69104 294.27031 
L 339.01602 294.399108 
L 339.340999 294.264493 
L 339.990958 294.404924 
L 344.215692 294.507371 
L 344.865651 294.522829 
L 345.190631 294.653795 
L 346.165569 294.676497 
L 346.490549 294.558495 
L 348.115446 294.709375 
L 349.090385 294.737367 
L 349.415364 294.621098 
L 351.690221 294.666155 
L 352.015201 294.321412 
L 352.34018 294.776063 
L 352.66516 294.540143 
L 352.990139 294.673295 
L 355.589975 294.848988 
L 355.914955 294.863384 
L 356.239934 294.746196 
L 358.514791 294.782819 
L 358.839771 294.912765 
L 359.48973 294.808799 
L 362.089566 294.855448 
L 362.414545 294.736912 
L 362.739525 294.742446 
L 363.064505 294.995471 
L 363.389484 294.754242 
L 363.714464 294.758848 
L 364.039443 295.011338 
L 364.364423 294.769645 
L 364.689402 294.774962 
L 365.014382 294.903868 
L 365.339361 294.539134 
L 365.664341 295.035512 
L 365.98932 295.044036 
L 366.3143 294.801186 
L 366.964259 295.053347 
L 367.289238 294.652031 
L 367.614218 295.013345 
L 367.939197 295.035302 
L 368.264177 294.79309 
L 368.589156 294.799783 
L 368.914136 295.038113 
L 369.239115 295.089062 
L 369.564095 294.17488 
L 369.889075 294.990755 
L 370.539034 295.09171 
L 372.163931 295.141762 
L 372.488911 294.909018 
L 372.81389 295.158509 
L 373.463849 295.171896 
L 373.788829 294.819501 
L 374.113808 295.195759 
L 375.088747 295.20958 
L 375.413726 294.969564 
L 375.738706 295.235472 
L 376.388665 295.22183 
L 378.013563 295.254127 
L 378.338542 294.774206 
L 378.663522 295.292279 
L 379.63846 295.291885 
L 379.96344 295.047678 
L 380.288419 295.266492 
L 380.613399 294.534846 
L 380.938378 295.286488 
L 381.913317 295.291867 
L 382.238296 294.394463 
L 382.563276 295.299223 
L 383.213235 295.280258 
L 383.538215 294.561684 
L 383.863194 295.282591 
L 384.513153 295.290669 
L 384.838133 294.580949 
L 385.163112 295.30926 
L 385.813071 295.311273 
L 386.138051 294.837482 
L 386.46303 295.333025 
L 386.78801 295.333218 
L 387.112989 294.61018 
L 387.437969 295.349436 
L 387.762948 295.348045 
L 388.087928 295.054542 
L 388.412907 295.348246 
L 389.387846 295.057034 
L 389.712826 295.380389 
L 390.362785 295.359982 
L 390.687764 295.402338 
L 391.337723 295.182652 
L 391.987682 295.39514 
L 392.312662 294.932321 
L 392.637641 295.415792 
L 392.962621 294.677807 
L 393.2876 295.39253 
L 393.61258 295.436925 
L 394.262539 295.16062 
L 394.587518 295.444409 
L 394.912498 294.709694 
L 395.237477 295.444354 
L 395.562457 295.460443 
L 395.887437 295.14295 
L 396.212416 295.4526 
L 396.537396 295.148258 
L 396.862375 295.488 
L 397.187355 295.4835 
L 397.512334 295.15575 
L 397.837314 295.474583 
L 398.162293 295.04839 
L 398.487273 295.485663 
L 398.487273 295.485663 
" clip-path="url(#p023365fbbc)" style="fill: none; stroke: #1f77b4; stroke-width: 1.5; stroke-linecap: square"/>
   </g>
   <g id="patch_3">
    <path d="M 57.6 307.584 
L 57.6 41.472 
" style="fill: none; stroke: #000000; stroke-width: 0.8; stroke-linejoin: miter; stroke-linecap: square"/>
   </g>
   <g id="patch_4">
    <path d="M 414.72 307.584 
L 414.72 41.472 
" style="fill: none; stroke: #000000; stroke-width: 0.8; stroke-linejoin: miter; stroke-linecap: square"/>
   </g>
   <g id="patch_5">
    <path d="M 57.6 307.584 
L 414.72 307.584 
" style="fill: none; stroke: #000000; stroke-width: 0.8; stroke-linejoin: miter; stroke-linecap: square"/>
   </g>
   <g id="patch_6">
    <path d="M 57.6 41.472 
L 414.72 41.472 
" style="fill: none; stroke: #000000; stroke-width: 0.8; stroke-linejoin: miter; stroke-linecap: square"/>
   </g>
   <g id="legend_1">
    <g id="patch_7">
     <path d="M 356.404375 64.150125 
L 407.72 64.150125 
Q 409.72 64.150125 409.72 62.150125 
L 409.72 48.472 
Q 409.72 46.472 407.72 46.472 
L 356.404375 46.472 
Q 354.404375 46.472 354.404375 48.472 
L 354.404375 62.150125 
Q 354.404375 64.150125 356.404375 64.150125 
z
" style="fill: #ffffff; opacity: 0.8; stroke: #cccccc; stroke-linejoin: miter"/>
    </g>
    <g id="line2d_17">
     <path d="M 358.404375 54.570438 
L 368.404375 54.570438 
L 378.404375 54.570438 
" style="fill: none; stroke: #1f77b4; stroke-width: 1.5; stroke-linecap: square"/>
    </g>
    <g id="text_8">
     <!-- loss -->
     <g transform="translate(386.404375 58.070438) scale(0.1 -0.1)">
      <defs>
       <path id="DejaVuSans-6c" d="M 603 4863 
L 1178 4863 
L 1178 0 
L 603 0 
L 603 4863 
z
" transform="scale(0.015625)"/>
       <path id="DejaVuSans-6f" d="M 1959 3097 
Q 1497 3097 1228 2736 
Q 959 2375 959 1747 
Q 959 1119 1226 758 
Q 1494 397 1959 397 
Q 2419 397 2687 759 
Q 2956 1122 2956 1747 
Q 2956 2369 2687 2733 
Q 2419 3097 1959 3097 
z
M 1959 3584 
Q 2709 3584 3137 3096 
Q 3566 2609 3566 1747 
Q 3566 888 3137 398 
Q 2709 -91 1959 -91 
Q 1206 -91 779 398 
Q 353 888 353 1747 
Q 353 2609 779 3096 
Q 1206 3584 1959 3584 
z
" transform="scale(0.015625)"/>
       <path id="DejaVuSans-73" d="M 2834 3397 
L 2834 2853 
Q 2591 2978 2328 3040 
Q 2066 3103 1784 3103 
Q 1356 3103 1142 2972 
Q 928 2841 928 2578 
Q 928 2378 1081 2264 
Q 1234 2150 1697 2047 
L 1894 2003 
Q 2506 1872 2764 1633 
Q 3022 1394 3022 966 
Q 3022 478 2636 193 
Q 2250 -91 1575 -91 
Q 1294 -91 989 -36 
Q 684 19 347 128 
L 347 722 
Q 666 556 975 473 
Q 1284 391 1588 391 
Q 1994 391 2212 530 
Q 2431 669 2431 922 
Q 2431 1156 2273 1281 
Q 2116 1406 1581 1522 
L 1381 1569 
Q 847 1681 609 1914 
Q 372 2147 372 2553 
Q 372 3047 722 3315 
Q 1072 3584 1716 3584 
Q 2034 3584 2315 3537 
Q 2597 3491 2834 3397 
z
" transform="scale(0.015625)"/>
      </defs>
      <use xlink:href="#DejaVuSans-6c"/>
      <use xlink:href="#DejaVuSans-6f" x="27.783203"/>
      <use xlink:href="#DejaVuSans-73" x="88.964844"/>
      <use xlink:href="#DejaVuSans-73" x="141.064453"/>
     </g>
    </g>
   </g>
  </g>
 </g>
 <defs>
  <clipPath id="p023365fbbc">
   <rect x="57.6" y="41.472" width="357.12" height="266.112"/>
  </clipPath>
 </defs>
</svg>
