<?xml version="1.0" encoding="utf-8" standalone="no"?>
<!DOCTYPE svg PUBLIC "-//W3C//DTD SVG 1.1//EN"
  "http://www.w3.org/Graphics/SVG/1.1/DTD/svg11.dtd">
<svg xmlns:xlink="http://www.w3.org/1999/xlink" width="460.8pt" height="345.6pt" viewBox="0 0 460.8 345.6" xmlns="http://www.w3.org/2000/svg" version="1.1">
 <metadata>
  <rdf:RDF xmlns:dc="http://purl.org/dc/elements/1.1/" xmlns:cc="http://creativecommons.org/ns#" xmlns:rdf="http://www.w3.org/1999/02/22-rdf-syntax-ns#">
   <cc:Work>
    <dc:type rdf:resource="http://purl.org/dc/dcmitype/StillImage"/>
    <dc:date>2023-06-16T11:46:56.333657</dc:date>
    <dc:format>image/svg+xml</dc:format>
    <dc:creator>
     <cc:Agent>
      <dc:title>Matplotlib v3.7.0, https://matplotlib.org/</dc:title>
     </cc:Agent>
    </dc:creator>
   </cc:Work>
  </rdf:RDF>
 </metadata>
 <defs>
  <style type="text/css">*{stroke-linejoin: round; stroke-linecap: butt}</style>
 </defs>
 <g id="figure_1">
  <g id="patch_1">
   <path d="M 0 345.6 
L 460.8 345.6 
L 460.8 0 
L 0 0 
z
" style="fill: #ffffff"/>
  </g>
  <g id="axes_1">
   <g id="patch_2">
    <path d="M 57.6 307.584 
L 414.72 307.584 
L 414.72 41.472 
L 57.6 41.472 
z
" style="fill: #ffffff"/>
   </g>
   <g id="matplotlib.axis_1">
    <g id="xtick_1">
     <g id="line2d_1">
      <defs>
       <path id="m731bb9189f" d="M 0 0 
L 0 3.5 
" style="stroke: #000000; stroke-width: 0.8"/>
      </defs>
      <g>
       <use xlink:href="#m731bb9189f" x="73.832727" y="307.584" style="stroke: #000000; stroke-width: 0.8"/>
      </g>
     </g>
     <g id="text_1">
      <!-- 0.0 -->
      <g transform="translate(65.881165 322.182437) scale(0.1 -0.1)">
       <defs>
        <path id="DejaVuSans-30" d="M 2034 4250 
Q 1547 4250 1301 3770 
Q 1056 3291 1056 2328 
Q 1056 1369 1301 889 
Q 1547 409 2034 409 
Q 2525 409 2770 889 
Q 3016 1369 3016 2328 
Q 3016 3291 2770 3770 
Q 2525 4250 2034 4250 
z
M 2034 4750 
Q 2819 4750 3233 4129 
Q 3647 3509 3647 2328 
Q 3647 1150 3233 529 
Q 2819 -91 2034 -91 
Q 1250 -91 836 529 
Q 422 1150 422 2328 
Q 422 3509 836 4129 
Q 1250 4750 2034 4750 
z
" transform="scale(0.015625)"/>
        <path id="DejaVuSans-2e" d="M 684 794 
L 1344 794 
L 1344 0 
L 684 0 
L 684 794 
z
" transform="scale(0.015625)"/>
       </defs>
       <use xlink:href="#DejaVuSans-30"/>
       <use xlink:href="#DejaVuSans-2e" x="63.623047"/>
       <use xlink:href="#DejaVuSans-30" x="95.410156"/>
      </g>
     </g>
    </g>
    <g id="xtick_2">
     <g id="line2d_2">
      <g>
       <use xlink:href="#m731bb9189f" x="129.075704" y="307.584" style="stroke: #000000; stroke-width: 0.8"/>
      </g>
     </g>
     <g id="text_2">
      <!-- 0.5 -->
      <g transform="translate(121.124141 322.182437) scale(0.1 -0.1)">
       <defs>
        <path id="DejaVuSans-35" d="M 691 4666 
L 3169 4666 
L 3169 4134 
L 1269 4134 
L 1269 2991 
Q 1406 3038 1543 3061 
Q 1681 3084 1819 3084 
Q 2600 3084 3056 2656 
Q 3513 2228 3513 1497 
Q 3513 744 3044 326 
Q 2575 -91 1722 -91 
Q 1428 -91 1123 -41 
Q 819 9 494 109 
L 494 744 
Q 775 591 1075 516 
Q 1375 441 1709 441 
Q 2250 441 2565 725 
Q 2881 1009 2881 1497 
Q 2881 1984 2565 2268 
Q 2250 2553 1709 2553 
Q 1456 2553 1204 2497 
Q 953 2441 691 2322 
L 691 4666 
z
" transform="scale(0.015625)"/>
       </defs>
       <use xlink:href="#DejaVuSans-30"/>
       <use xlink:href="#DejaVuSans-2e" x="63.623047"/>
       <use xlink:href="#DejaVuSans-35" x="95.410156"/>
      </g>
     </g>
    </g>
    <g id="xtick_3">
     <g id="line2d_3">
      <g>
       <use xlink:href="#m731bb9189f" x="184.318681" y="307.584" style="stroke: #000000; stroke-width: 0.8"/>
      </g>
     </g>
     <g id="text_3">
      <!-- 1.0 -->
      <g transform="translate(176.367118 322.182437) scale(0.1 -0.1)">
       <defs>
        <path id="DejaVuSans-31" d="M 794 531 
L 1825 531 
L 1825 4091 
L 703 3866 
L 703 4441 
L 1819 4666 
L 2450 4666 
L 2450 531 
L 3481 531 
L 3481 0 
L 794 0 
L 794 531 
z
" transform="scale(0.015625)"/>
       </defs>
       <use xlink:href="#DejaVuSans-31"/>
       <use xlink:href="#DejaVuSans-2e" x="63.623047"/>
       <use xlink:href="#DejaVuSans-30" x="95.410156"/>
      </g>
     </g>
    </g>
    <g id="xtick_4">
     <g id="line2d_4">
      <g>
       <use xlink:href="#m731bb9189f" x="239.561657" y="307.584" style="stroke: #000000; stroke-width: 0.8"/>
      </g>
     </g>
     <g id="text_4">
      <!-- 1.5 -->
      <g transform="translate(231.610095 322.182437) scale(0.1 -0.1)">
       <use xlink:href="#DejaVuSans-31"/>
       <use xlink:href="#DejaVuSans-2e" x="63.623047"/>
       <use xlink:href="#DejaVuSans-35" x="95.410156"/>
      </g>
     </g>
    </g>
    <g id="xtick_5">
     <g id="line2d_5">
      <g>
       <use xlink:href="#m731bb9189f" x="294.804634" y="307.584" style="stroke: #000000; stroke-width: 0.8"/>
      </g>
     </g>
     <g id="text_5">
      <!-- 2.0 -->
      <g transform="translate(286.853072 322.182437) scale(0.1 -0.1)">
       <defs>
        <path id="DejaVuSans-32" d="M 1228 531 
L 3431 531 
L 3431 0 
L 469 0 
L 469 531 
Q 828 903 1448 1529 
Q 2069 2156 2228 2338 
Q 2531 2678 2651 2914 
Q 2772 3150 2772 3378 
Q 2772 3750 2511 3984 
Q 2250 4219 1831 4219 
Q 1534 4219 1204 4116 
Q 875 4013 500 3803 
L 500 4441 
Q 881 4594 1212 4672 
Q 1544 4750 1819 4750 
Q 2544 4750 2975 4387 
Q 3406 4025 3406 3419 
Q 3406 3131 3298 2873 
Q 3191 2616 2906 2266 
Q 2828 2175 2409 1742 
Q 1991 1309 1228 531 
z
" transform="scale(0.015625)"/>
       </defs>
       <use xlink:href="#DejaVuSans-32"/>
       <use xlink:href="#DejaVuSans-2e" x="63.623047"/>
       <use xlink:href="#DejaVuSans-30" x="95.410156"/>
      </g>
     </g>
    </g>
    <g id="xtick_6">
     <g id="line2d_6">
      <g>
       <use xlink:href="#m731bb9189f" x="350.047611" y="307.584" style="stroke: #000000; stroke-width: 0.8"/>
      </g>
     </g>
     <g id="text_6">
      <!-- 2.5 -->
      <g transform="translate(342.096048 322.182437) scale(0.1 -0.1)">
       <use xlink:href="#DejaVuSans-32"/>
       <use xlink:href="#DejaVuSans-2e" x="63.623047"/>
       <use xlink:href="#DejaVuSans-35" x="95.410156"/>
      </g>
     </g>
    </g>
    <g id="xtick_7">
     <g id="line2d_7">
      <g>
       <use xlink:href="#m731bb9189f" x="405.290588" y="307.584" style="stroke: #000000; stroke-width: 0.8"/>
      </g>
     </g>
     <g id="text_7">
      <!-- 3.0 -->
      <g transform="translate(397.339025 322.182437) scale(0.1 -0.1)">
       <defs>
        <path id="DejaVuSans-33" d="M 2597 2516 
Q 3050 2419 3304 2112 
Q 3559 1806 3559 1356 
Q 3559 666 3084 287 
Q 2609 -91 1734 -91 
Q 1441 -91 1130 -33 
Q 819 25 488 141 
L 488 750 
Q 750 597 1062 519 
Q 1375 441 1716 441 
Q 2309 441 2620 675 
Q 2931 909 2931 1356 
Q 2931 1769 2642 2001 
Q 2353 2234 1838 2234 
L 1294 2234 
L 1294 2753 
L 1863 2753 
Q 2328 2753 2575 2939 
Q 2822 3125 2822 3475 
Q 2822 3834 2567 4026 
Q 2313 4219 1838 4219 
Q 1578 4219 1281 4162 
Q 984 4106 628 3988 
L 628 4550 
Q 988 4650 1302 4700 
Q 1616 4750 1894 4750 
Q 2613 4750 3031 4423 
Q 3450 4097 3450 3541 
Q 3450 3153 3228 2886 
Q 3006 2619 2597 2516 
z
" transform="scale(0.015625)"/>
       </defs>
       <use xlink:href="#DejaVuSans-33"/>
       <use xlink:href="#DejaVuSans-2e" x="63.623047"/>
       <use xlink:href="#DejaVuSans-30" x="95.410156"/>
      </g>
     </g>
    </g>
    <g id="text_8">
     <!-- data -->
     <g transform="translate(224.8975 335.860562) scale(0.1 -0.1)">
      <defs>
       <path id="DejaVuSans-64" d="M 2906 2969 
L 2906 4863 
L 3481 4863 
L 3481 0 
L 2906 0 
L 2906 525 
Q 2725 213 2448 61 
Q 2172 -91 1784 -91 
Q 1150 -91 751 415 
Q 353 922 353 1747 
Q 353 2572 751 3078 
Q 1150 3584 1784 3584 
Q 2172 3584 2448 3432 
Q 2725 3281 2906 2969 
z
M 947 1747 
Q 947 1113 1208 752 
Q 1469 391 1925 391 
Q 2381 391 2643 752 
Q 2906 1113 2906 1747 
Q 2906 2381 2643 2742 
Q 2381 3103 1925 3103 
Q 1469 3103 1208 2742 
Q 947 2381 947 1747 
z
" transform="scale(0.015625)"/>
       <path id="DejaVuSans-61" d="M 2194 1759 
Q 1497 1759 1228 1600 
Q 959 1441 959 1056 
Q 959 750 1161 570 
Q 1363 391 1709 391 
Q 2188 391 2477 730 
Q 2766 1069 2766 1631 
L 2766 1759 
L 2194 1759 
z
M 3341 1997 
L 3341 0 
L 2766 0 
L 2766 531 
Q 2569 213 2275 61 
Q 1981 -91 1556 -91 
Q 1019 -91 701 211 
Q 384 513 384 1019 
Q 384 1609 779 1909 
Q 1175 2209 1959 2209 
L 2766 2209 
L 2766 2266 
Q 2766 2663 2505 2880 
Q 2244 3097 1772 3097 
Q 1472 3097 1187 3025 
Q 903 2953 641 2809 
L 641 3341 
Q 956 3463 1253 3523 
Q 1550 3584 1831 3584 
Q 2591 3584 2966 3190 
Q 3341 2797 3341 1997 
z
" transform="scale(0.015625)"/>
       <path id="DejaVuSans-74" d="M 1172 4494 
L 1172 3500 
L 2356 3500 
L 2356 3053 
L 1172 3053 
L 1172 1153 
Q 1172 725 1289 603 
Q 1406 481 1766 481 
L 2356 481 
L 2356 0 
L 1766 0 
Q 1100 0 847 248 
Q 594 497 594 1153 
L 594 3053 
L 172 3053 
L 172 3500 
L 594 3500 
L 594 4494 
L 1172 4494 
z
" transform="scale(0.015625)"/>
      </defs>
      <use xlink:href="#DejaVuSans-64"/>
      <use xlink:href="#DejaVuSans-61" x="63.476562"/>
      <use xlink:href="#DejaVuSans-74" x="124.755859"/>
      <use xlink:href="#DejaVuSans-61" x="163.964844"/>
     </g>
    </g>
   </g>
   <g id="matplotlib.axis_2">
    <g id="ytick_1">
     <g id="line2d_8">
      <defs>
       <path id="m5037a4fb89" d="M 0 0 
L -3.5 0 
" style="stroke: #000000; stroke-width: 0.8"/>
      </defs>
      <g>
       <use xlink:href="#m5037a4fb89" x="57.6" y="271.179473" style="stroke: #000000; stroke-width: 0.8"/>
      </g>
     </g>
     <g id="text_9">
      <!-- −8 -->
      <g transform="translate(35.857813 274.978692) scale(0.1 -0.1)">
       <defs>
        <path id="DejaVuSans-2212" d="M 678 2272 
L 4684 2272 
L 4684 1741 
L 678 1741 
L 678 2272 
z
" transform="scale(0.015625)"/>
        <path id="DejaVuSans-38" d="M 2034 2216 
Q 1584 2216 1326 1975 
Q 1069 1734 1069 1313 
Q 1069 891 1326 650 
Q 1584 409 2034 409 
Q 2484 409 2743 651 
Q 3003 894 3003 1313 
Q 3003 1734 2745 1975 
Q 2488 2216 2034 2216 
z
M 1403 2484 
Q 997 2584 770 2862 
Q 544 3141 544 3541 
Q 544 4100 942 4425 
Q 1341 4750 2034 4750 
Q 2731 4750 3128 4425 
Q 3525 4100 3525 3541 
Q 3525 3141 3298 2862 
Q 3072 2584 2669 2484 
Q 3125 2378 3379 2068 
Q 3634 1759 3634 1313 
Q 3634 634 3220 271 
Q 2806 -91 2034 -91 
Q 1263 -91 848 271 
Q 434 634 434 1313 
Q 434 1759 690 2068 
Q 947 2378 1403 2484 
z
M 1172 3481 
Q 1172 3119 1398 2916 
Q 1625 2713 2034 2713 
Q 2441 2713 2670 2916 
Q 2900 3119 2900 3481 
Q 2900 3844 2670 4047 
Q 2441 4250 2034 4250 
Q 1625 4250 1398 4047 
Q 1172 3844 1172 3481 
z
" transform="scale(0.015625)"/>
       </defs>
       <use xlink:href="#DejaVuSans-2212"/>
       <use xlink:href="#DejaVuSans-38" x="83.789062"/>
      </g>
     </g>
    </g>
    <g id="ytick_2">
     <g id="line2d_9">
      <g>
       <use xlink:href="#m5037a4fb89" x="57.6" y="231.391021" style="stroke: #000000; stroke-width: 0.8"/>
      </g>
     </g>
     <g id="text_10">
      <!-- −6 -->
      <g transform="translate(35.857813 235.19024) scale(0.1 -0.1)">
       <defs>
        <path id="DejaVuSans-36" d="M 2113 2584 
Q 1688 2584 1439 2293 
Q 1191 2003 1191 1497 
Q 1191 994 1439 701 
Q 1688 409 2113 409 
Q 2538 409 2786 701 
Q 3034 994 3034 1497 
Q 3034 2003 2786 2293 
Q 2538 2584 2113 2584 
z
M 3366 4563 
L 3366 3988 
Q 3128 4100 2886 4159 
Q 2644 4219 2406 4219 
Q 1781 4219 1451 3797 
Q 1122 3375 1075 2522 
Q 1259 2794 1537 2939 
Q 1816 3084 2150 3084 
Q 2853 3084 3261 2657 
Q 3669 2231 3669 1497 
Q 3669 778 3244 343 
Q 2819 -91 2113 -91 
Q 1303 -91 875 529 
Q 447 1150 447 2328 
Q 447 3434 972 4092 
Q 1497 4750 2381 4750 
Q 2619 4750 2861 4703 
Q 3103 4656 3366 4563 
z
" transform="scale(0.015625)"/>
       </defs>
       <use xlink:href="#DejaVuSans-2212"/>
       <use xlink:href="#DejaVuSans-36" x="83.789062"/>
      </g>
     </g>
    </g>
    <g id="ytick_3">
     <g id="line2d_10">
      <g>
       <use xlink:href="#m5037a4fb89" x="57.6" y="191.602569" style="stroke: #000000; stroke-width: 0.8"/>
      </g>
     </g>
     <g id="text_11">
      <!-- −4 -->
      <g transform="translate(35.857813 195.401788) scale(0.1 -0.1)">
       <defs>
        <path id="DejaVuSans-34" d="M 2419 4116 
L 825 1625 
L 2419 1625 
L 2419 4116 
z
M 2253 4666 
L 3047 4666 
L 3047 1625 
L 3713 1625 
L 3713 1100 
L 3047 1100 
L 3047 0 
L 2419 0 
L 2419 1100 
L 313 1100 
L 313 1709 
L 2253 4666 
z
" transform="scale(0.015625)"/>
       </defs>
       <use xlink:href="#DejaVuSans-2212"/>
       <use xlink:href="#DejaVuSans-34" x="83.789062"/>
      </g>
     </g>
    </g>
    <g id="ytick_4">
     <g id="line2d_11">
      <g>
       <use xlink:href="#m5037a4fb89" x="57.6" y="151.814117" style="stroke: #000000; stroke-width: 0.8"/>
      </g>
     </g>
     <g id="text_12">
      <!-- −2 -->
      <g transform="translate(35.857813 155.613336) scale(0.1 -0.1)">
       <use xlink:href="#DejaVuSans-2212"/>
       <use xlink:href="#DejaVuSans-32" x="83.789062"/>
      </g>
     </g>
    </g>
    <g id="ytick_5">
     <g id="line2d_12">
      <g>
       <use xlink:href="#m5037a4fb89" x="57.6" y="112.025665" style="stroke: #000000; stroke-width: 0.8"/>
      </g>
     </g>
     <g id="text_13">
      <!-- 0 -->
      <g transform="translate(44.2375 115.824884) scale(0.1 -0.1)">
       <use xlink:href="#DejaVuSans-30"/>
      </g>
     </g>
    </g>
    <g id="ytick_6">
     <g id="line2d_13">
      <g>
       <use xlink:href="#m5037a4fb89" x="57.6" y="72.237213" style="stroke: #000000; stroke-width: 0.8"/>
      </g>
     </g>
     <g id="text_14">
      <!-- 2 -->
      <g transform="translate(44.2375 76.036432) scale(0.1 -0.1)">
       <use xlink:href="#DejaVuSans-32"/>
      </g>
     </g>
    </g>
    <g id="text_15">
     <!-- model -->
     <g transform="translate(29.778125 190.097531) rotate(-90) scale(0.1 -0.1)">
      <defs>
       <path id="DejaVuSans-6d" d="M 3328 2828 
Q 3544 3216 3844 3400 
Q 4144 3584 4550 3584 
Q 5097 3584 5394 3201 
Q 5691 2819 5691 2113 
L 5691 0 
L 5113 0 
L 5113 2094 
Q 5113 2597 4934 2840 
Q 4756 3084 4391 3084 
Q 3944 3084 3684 2787 
Q 3425 2491 3425 1978 
L 3425 0 
L 2847 0 
L 2847 2094 
Q 2847 2600 2669 2842 
Q 2491 3084 2119 3084 
Q 1678 3084 1418 2786 
Q 1159 2488 1159 1978 
L 1159 0 
L 581 0 
L 581 3500 
L 1159 3500 
L 1159 2956 
Q 1356 3278 1631 3431 
Q 1906 3584 2284 3584 
Q 2666 3584 2933 3390 
Q 3200 3197 3328 2828 
z
" transform="scale(0.015625)"/>
       <path id="DejaVuSans-6f" d="M 1959 3097 
Q 1497 3097 1228 2736 
Q 959 2375 959 1747 
Q 959 1119 1226 758 
Q 1494 397 1959 397 
Q 2419 397 2687 759 
Q 2956 1122 2956 1747 
Q 2956 2369 2687 2733 
Q 2419 3097 1959 3097 
z
M 1959 3584 
Q 2709 3584 3137 3096 
Q 3566 2609 3566 1747 
Q 3566 888 3137 398 
Q 2709 -91 1959 -91 
Q 1206 -91 779 398 
Q 353 888 353 1747 
Q 353 2609 779 3096 
Q 1206 3584 1959 3584 
z
" transform="scale(0.015625)"/>
       <path id="DejaVuSans-65" d="M 3597 1894 
L 3597 1613 
L 953 1613 
Q 991 1019 1311 708 
Q 1631 397 2203 397 
Q 2534 397 2845 478 
Q 3156 559 3463 722 
L 3463 178 
Q 3153 47 2828 -22 
Q 2503 -91 2169 -91 
Q 1331 -91 842 396 
Q 353 884 353 1716 
Q 353 2575 817 3079 
Q 1281 3584 2069 3584 
Q 2775 3584 3186 3129 
Q 3597 2675 3597 1894 
z
M 3022 2063 
Q 3016 2534 2758 2815 
Q 2500 3097 2075 3097 
Q 1594 3097 1305 2825 
Q 1016 2553 972 2059 
L 3022 2063 
z
" transform="scale(0.015625)"/>
       <path id="DejaVuSans-6c" d="M 603 4863 
L 1178 4863 
L 1178 0 
L 603 0 
L 603 4863 
z
" transform="scale(0.015625)"/>
      </defs>
      <use xlink:href="#DejaVuSans-6d"/>
      <use xlink:href="#DejaVuSans-6f" x="97.412109"/>
      <use xlink:href="#DejaVuSans-64" x="158.59375"/>
      <use xlink:href="#DejaVuSans-65" x="222.070312"/>
      <use xlink:href="#DejaVuSans-6c" x="283.59375"/>
     </g>
    </g>
   </g>
   <g id="line2d_14">
    <defs>
     <path id="m812197c8b6" d="M 0 3 
C 0.795609 3 1.55874 2.683901 2.12132 2.12132 
C 2.683901 1.55874 3 0.795609 3 0 
C 3 -0.795609 2.683901 -1.55874 2.12132 -2.12132 
C 1.55874 -2.683901 0.795609 -3 0 -3 
C -0.795609 -3 -1.55874 -2.683901 -2.12132 -2.12132 
C -2.683901 -1.55874 -3 -0.795609 -3 0 
C -3 0.795609 -2.683901 1.55874 -2.12132 2.12132 
C -1.55874 2.683901 -0.795609 3 0 3 
z
" style="stroke: #ff0000"/>
    </defs>
    <g clip-path="url(#p8651bc17ce)">
     <use xlink:href="#m812197c8b6" x="73.832727" y="133.571393" style="fill: #ffffff; stroke: #ff0000"/>
     <use xlink:href="#m812197c8b6" x="73.835652" y="133.467191" style="fill: #ffffff; stroke: #ff0000"/>
     <use xlink:href="#m812197c8b6" x="73.841849" y="133.422221" style="fill: #ffffff; stroke: #ff0000"/>
     <use xlink:href="#m812197c8b6" x="73.844403" y="133.408091" style="fill: #ffffff; stroke: #ff0000"/>
     <use xlink:href="#m812197c8b6" x="73.848451" y="133.381214" style="fill: #ffffff; stroke: #ff0000"/>
     <use xlink:href="#m812197c8b6" x="73.848045" y="133.387043" style="fill: #ffffff; stroke: #ff0000"/>
     <use xlink:href="#m812197c8b6" x="73.86003" y="133.344547" style="fill: #ffffff; stroke: #ff0000"/>
     <use xlink:href="#m812197c8b6" x="73.866185" y="133.338051" style="fill: #ffffff; stroke: #ff0000"/>
     <use xlink:href="#m812197c8b6" x="73.903857" y="133.297365" style="fill: #ffffff; stroke: #ff0000"/>
     <use xlink:href="#m812197c8b6" x="73.979219" y="133.233365" style="fill: #ffffff; stroke: #ff0000"/>
     <use xlink:href="#m812197c8b6" x="74.063713" y="133.124624" style="fill: #ffffff; stroke: #ff0000"/>
     <use xlink:href="#m812197c8b6" x="74.157555" y="133.04971" style="fill: #ffffff; stroke: #ff0000"/>
     <use xlink:href="#m812197c8b6" x="74.195357" y="133.033532" style="fill: #ffffff; stroke: #ff0000"/>
     <use xlink:href="#m812197c8b6" x="74.235673" y="133.009325" style="fill: #ffffff; stroke: #ff0000"/>
     <use xlink:href="#m812197c8b6" x="74.266851" y="133.000159" style="fill: #ffffff; stroke: #ff0000"/>
     <use xlink:href="#m812197c8b6" x="74.349543" y="132.923329" style="fill: #ffffff; stroke: #ff0000"/>
     <use xlink:href="#m812197c8b6" x="74.390426" y="132.899338" style="fill: #ffffff; stroke: #ff0000"/>
     <use xlink:href="#m812197c8b6" x="74.437641" y="132.89326" style="fill: #ffffff; stroke: #ff0000"/>
     <use xlink:href="#m812197c8b6" x="74.535942" y="132.879021" style="fill: #ffffff; stroke: #ff0000"/>
     <use xlink:href="#m812197c8b6" x="74.596888" y="132.891144" style="fill: #ffffff; stroke: #ff0000"/>
     <use xlink:href="#m812197c8b6" x="74.700755" y="132.882763" style="fill: #ffffff; stroke: #ff0000"/>
     <use xlink:href="#m812197c8b6" x="74.893258" y="132.866259" style="fill: #ffffff; stroke: #ff0000"/>
     <use xlink:href="#m812197c8b6" x="75.033419" y="132.887471" style="fill: #ffffff; stroke: #ff0000"/>
     <use xlink:href="#m812197c8b6" x="75.16852" y="132.880399" style="fill: #ffffff; stroke: #ff0000"/>
     <use xlink:href="#m812197c8b6" x="75.226074" y="132.879614" style="fill: #ffffff; stroke: #ff0000"/>
     <use xlink:href="#m812197c8b6" x="75.442073" y="132.815211" style="fill: #ffffff; stroke: #ff0000"/>
     <use xlink:href="#m812197c8b6" x="75.615438" y="132.815211" style="fill: #ffffff; stroke: #ff0000"/>
     <use xlink:href="#m812197c8b6" x="75.745744" y="132.819319" style="fill: #ffffff; stroke: #ff0000"/>
     <use xlink:href="#m812197c8b6" x="76.09609" y="132.840594" style="fill: #ffffff; stroke: #ff0000"/>
     <use xlink:href="#m812197c8b6" x="76.270673" y="132.815211" style="fill: #ffffff; stroke: #ff0000"/>
     <use xlink:href="#m812197c8b6" x="76.275604" y="132.846682" style="fill: #ffffff; stroke: #ff0000"/>
     <use xlink:href="#m812197c8b6" x="76.565457" y="132.815211" style="fill: #ffffff; stroke: #ff0000"/>
     <use xlink:href="#m812197c8b6" x="76.686046" y="132.815211" style="fill: #ffffff; stroke: #ff0000"/>
     <use xlink:href="#m812197c8b6" x="76.881673" y="132.834924" style="fill: #ffffff; stroke: #ff0000"/>
     <use xlink:href="#m812197c8b6" x="77.205912" y="132.831838" style="fill: #ffffff; stroke: #ff0000"/>
     <use xlink:href="#m812197c8b6" x="77.398853" y="132.902732" style="fill: #ffffff; stroke: #ff0000"/>
     <use xlink:href="#m812197c8b6" x="77.725686" y="132.918349" style="fill: #ffffff; stroke: #ff0000"/>
     <use xlink:href="#m812197c8b6" x="77.946476" y="132.896039" style="fill: #ffffff; stroke: #ff0000"/>
     <use xlink:href="#m812197c8b6" x="77.999349" y="132.884945" style="fill: #ffffff; stroke: #ff0000"/>
     <use xlink:href="#m812197c8b6" x="78.250217" y="132.899848" style="fill: #ffffff; stroke: #ff0000"/>
     <use xlink:href="#m812197c8b6" x="78.479753" y="132.929203" style="fill: #ffffff; stroke: #ff0000"/>
     <use xlink:href="#m812197c8b6" x="78.909728" y="132.960129" style="fill: #ffffff; stroke: #ff0000"/>
     <use xlink:href="#m812197c8b6" x="79.262806" y="133.014395" style="fill: #ffffff; stroke: #ff0000"/>
     <use xlink:href="#m812197c8b6" x="79.795511" y="133.050797" style="fill: #ffffff; stroke: #ff0000"/>
     <use xlink:href="#m812197c8b6" x="80.177085" y="133.070552" style="fill: #ffffff; stroke: #ff0000"/>
     <use xlink:href="#m812197c8b6" x="80.518967" y="133.090321" style="fill: #ffffff; stroke: #ff0000"/>
     <use xlink:href="#m812197c8b6" x="80.820603" y="133.120376" style="fill: #ffffff; stroke: #ff0000"/>
     <use xlink:href="#m812197c8b6" x="81.177163" y="133.104439" style="fill: #ffffff; stroke: #ff0000"/>
     <use xlink:href="#m812197c8b6" x="81.705766" y="133.194194" style="fill: #ffffff; stroke: #ff0000"/>
     <use xlink:href="#m812197c8b6" x="82.239964" y="133.225157" style="fill: #ffffff; stroke: #ff0000"/>
     <use xlink:href="#m812197c8b6" x="82.710716" y="133.329262" style="fill: #ffffff; stroke: #ff0000"/>
     <use xlink:href="#m812197c8b6" x="83.350119" y="133.399359" style="fill: #ffffff; stroke: #ff0000"/>
     <use xlink:href="#m812197c8b6" x="83.926174" y="133.456846" style="fill: #ffffff; stroke: #ff0000"/>
     <use xlink:href="#m812197c8b6" x="84.360357" y="133.520319" style="fill: #ffffff; stroke: #ff0000"/>
     <use xlink:href="#m812197c8b6" x="84.853117" y="133.56305" style="fill: #ffffff; stroke: #ff0000"/>
     <use xlink:href="#m812197c8b6" x="85.142186" y="133.582412" style="fill: #ffffff; stroke: #ff0000"/>
     <use xlink:href="#m812197c8b6" x="85.300843" y="133.631738" style="fill: #ffffff; stroke: #ff0000"/>
     <use xlink:href="#m812197c8b6" x="85.731548" y="133.6328" style="fill: #ffffff; stroke: #ff0000"/>
     <use xlink:href="#m812197c8b6" x="86.875862" y="133.774258" style="fill: #ffffff; stroke: #ff0000"/>
     <use xlink:href="#m812197c8b6" x="87.455533" y="133.832364" style="fill: #ffffff; stroke: #ff0000"/>
     <use xlink:href="#m812197c8b6" x="87.817541" y="133.889585" style="fill: #ffffff; stroke: #ff0000"/>
     <use xlink:href="#m812197c8b6" x="88.440296" y="134.020783" style="fill: #ffffff; stroke: #ff0000"/>
     <use xlink:href="#m812197c8b6" x="88.942276" y="134.053547" style="fill: #ffffff; stroke: #ff0000"/>
     <use xlink:href="#m812197c8b6" x="89.864267" y="134.154882" style="fill: #ffffff; stroke: #ff0000"/>
     <use xlink:href="#m812197c8b6" x="90.410172" y="134.222815" style="fill: #ffffff; stroke: #ff0000"/>
     <use xlink:href="#m812197c8b6" x="90.821502" y="134.26123" style="fill: #ffffff; stroke: #ff0000"/>
     <use xlink:href="#m812197c8b6" x="91.586297" y="134.419253" style="fill: #ffffff; stroke: #ff0000"/>
     <use xlink:href="#m812197c8b6" x="92.108394" y="134.67641" style="fill: #ffffff; stroke: #ff0000"/>
     <use xlink:href="#m812197c8b6" x="92.938142" y="135.135623" style="fill: #ffffff; stroke: #ff0000"/>
     <use xlink:href="#m812197c8b6" x="93.615708" y="135.419954" style="fill: #ffffff; stroke: #ff0000"/>
     <use xlink:href="#m812197c8b6" x="94.196265" y="135.514772" style="fill: #ffffff; stroke: #ff0000"/>
     <use xlink:href="#m812197c8b6" x="94.853385" y="135.73373" style="fill: #ffffff; stroke: #ff0000"/>
     <use xlink:href="#m812197c8b6" x="95.398303" y="136.215841" style="fill: #ffffff; stroke: #ff0000"/>
     <use xlink:href="#m812197c8b6" x="96.09608" y="136.741095" style="fill: #ffffff; stroke: #ff0000"/>
     <use xlink:href="#m812197c8b6" x="96.399888" y="137.009427" style="fill: #ffffff; stroke: #ff0000"/>
     <use xlink:href="#m812197c8b6" x="97.179049" y="137.199547" style="fill: #ffffff; stroke: #ff0000"/>
     <use xlink:href="#m812197c8b6" x="97.756685" y="137.679604" style="fill: #ffffff; stroke: #ff0000"/>
     <use xlink:href="#m812197c8b6" x="98.451813" y="138.093717" style="fill: #ffffff; stroke: #ff0000"/>
     <use xlink:href="#m812197c8b6" x="99.120553" y="138.386137" style="fill: #ffffff; stroke: #ff0000"/>
     <use xlink:href="#m812197c8b6" x="99.887841" y="138.633293" style="fill: #ffffff; stroke: #ff0000"/>
     <use xlink:href="#m812197c8b6" x="100.83476" y="139.418278" style="fill: #ffffff; stroke: #ff0000"/>
     <use xlink:href="#m812197c8b6" x="101.603682" y="139.932208" style="fill: #ffffff; stroke: #ff0000"/>
     <use xlink:href="#m812197c8b6" x="102.238913" y="140.268775" style="fill: #ffffff; stroke: #ff0000"/>
     <use xlink:href="#m812197c8b6" x="103.050276" y="140.705786" style="fill: #ffffff; stroke: #ff0000"/>
     <use xlink:href="#m812197c8b6" x="103.714117" y="141.222611" style="fill: #ffffff; stroke: #ff0000"/>
     <use xlink:href="#m812197c8b6" x="104.745204" y="141.717175" style="fill: #ffffff; stroke: #ff0000"/>
     <use xlink:href="#m812197c8b6" x="105.589633" y="142.41979" style="fill: #ffffff; stroke: #ff0000"/>
     <use xlink:href="#m812197c8b6" x="106.773305" y="142.942263" style="fill: #ffffff; stroke: #ff0000"/>
     <use xlink:href="#m812197c8b6" x="107.890127" y="143.647463" style="fill: #ffffff; stroke: #ff0000"/>
     <use xlink:href="#m812197c8b6" x="108.637164" y="143.981355" style="fill: #ffffff; stroke: #ff0000"/>
     <use xlink:href="#m812197c8b6" x="109.641632" y="144.709868" style="fill: #ffffff; stroke: #ff0000"/>
     <use xlink:href="#m812197c8b6" x="110.730291" y="145.497677" style="fill: #ffffff; stroke: #ff0000"/>
     <use xlink:href="#m812197c8b6" x="111.126672" y="145.993574" style="fill: #ffffff; stroke: #ff0000"/>
     <use xlink:href="#m812197c8b6" x="111.722295" y="145.979332" style="fill: #ffffff; stroke: #ff0000"/>
     <use xlink:href="#m812197c8b6" x="112.968025" y="146.970191" style="fill: #ffffff; stroke: #ff0000"/>
     <use xlink:href="#m812197c8b6" x="113.883127" y="147.489687" style="fill: #ffffff; stroke: #ff0000"/>
     <use xlink:href="#m812197c8b6" x="115.309583" y="148.229477" style="fill: #ffffff; stroke: #ff0000"/>
     <use xlink:href="#m812197c8b6" x="116.17726" y="148.813316" style="fill: #ffffff; stroke: #ff0000"/>
     <use xlink:href="#m812197c8b6" x="117.093189" y="149.428537" style="fill: #ffffff; stroke: #ff0000"/>
     <use xlink:href="#m812197c8b6" x="118.622616" y="150.731938" style="fill: #ffffff; stroke: #ff0000"/>
     <use xlink:href="#m812197c8b6" x="119.848997" y="151.428361" style="fill: #ffffff; stroke: #ff0000"/>
     <use xlink:href="#m812197c8b6" x="120.757557" y="152.097981" style="fill: #ffffff; stroke: #ff0000"/>
     <use xlink:href="#m812197c8b6" x="121.496569" y="152.669991" style="fill: #ffffff; stroke: #ff0000"/>
     <use xlink:href="#m812197c8b6" x="122.874803" y="153.797509" style="fill: #ffffff; stroke: #ff0000"/>
     <use xlink:href="#m812197c8b6" x="124.102193" y="154.306839" style="fill: #ffffff; stroke: #ff0000"/>
     <use xlink:href="#m812197c8b6" x="125.686029" y="155.686926" style="fill: #ffffff; stroke: #ff0000"/>
     <use xlink:href="#m812197c8b6" x="126.96849" y="156.366501" style="fill: #ffffff; stroke: #ff0000"/>
     <use xlink:href="#m812197c8b6" x="128.11507" y="157.300494" style="fill: #ffffff; stroke: #ff0000"/>
     <use xlink:href="#m812197c8b6" x="129.019732" y="157.805052" style="fill: #ffffff; stroke: #ff0000"/>
     <use xlink:href="#m812197c8b6" x="130.442824" y="158.715486" style="fill: #ffffff; stroke: #ff0000"/>
     <use xlink:href="#m812197c8b6" x="131.831493" y="159.875082" style="fill: #ffffff; stroke: #ff0000"/>
     <use xlink:href="#m812197c8b6" x="133.008985" y="160.37613" style="fill: #ffffff; stroke: #ff0000"/>
     <use xlink:href="#m812197c8b6" x="134.260579" y="161.386294" style="fill: #ffffff; stroke: #ff0000"/>
     <use xlink:href="#m812197c8b6" x="135.878756" y="162.484722" style="fill: #ffffff; stroke: #ff0000"/>
     <use xlink:href="#m812197c8b6" x="137.084169" y="163.124469" style="fill: #ffffff; stroke: #ff0000"/>
     <use xlink:href="#m812197c8b6" x="138.189506" y="163.953952" style="fill: #ffffff; stroke: #ff0000"/>
     <use xlink:href="#m812197c8b6" x="140.007896" y="165.17852" style="fill: #ffffff; stroke: #ff0000"/>
     <use xlink:href="#m812197c8b6" x="141.887208" y="166.498763" style="fill: #ffffff; stroke: #ff0000"/>
     <use xlink:href="#m812197c8b6" x="143.594761" y="167.599283" style="fill: #ffffff; stroke: #ff0000"/>
     <use xlink:href="#m812197c8b6" x="145.476932" y="168.963058" style="fill: #ffffff; stroke: #ff0000"/>
     <use xlink:href="#m812197c8b6" x="146.660641" y="169.838156" style="fill: #ffffff; stroke: #ff0000"/>
     <use xlink:href="#m812197c8b6" x="148.196993" y="170.845142" style="fill: #ffffff; stroke: #ff0000"/>
     <use xlink:href="#m812197c8b6" x="149.956091" y="171.752649" style="fill: #ffffff; stroke: #ff0000"/>
     <use xlink:href="#m812197c8b6" x="152.470506" y="173.304381" style="fill: #ffffff; stroke: #ff0000"/>
     <use xlink:href="#m812197c8b6" x="154.12848" y="174.617409" style="fill: #ffffff; stroke: #ff0000"/>
     <use xlink:href="#m812197c8b6" x="155.568233" y="175.440991" style="fill: #ffffff; stroke: #ff0000"/>
     <use xlink:href="#m812197c8b6" x="157.719573" y="176.746231" style="fill: #ffffff; stroke: #ff0000"/>
     <use xlink:href="#m812197c8b6" x="159.444469" y="178.327646" style="fill: #ffffff; stroke: #ff0000"/>
     <use xlink:href="#m812197c8b6" x="162.184419" y="180.203843" style="fill: #ffffff; stroke: #ff0000"/>
     <use xlink:href="#m812197c8b6" x="162.815001" y="180.421525" style="fill: #ffffff; stroke: #ff0000"/>
     <use xlink:href="#m812197c8b6" x="165.376497" y="181.769899" style="fill: #ffffff; stroke: #ff0000"/>
     <use xlink:href="#m812197c8b6" x="167.283576" y="183.073664" style="fill: #ffffff; stroke: #ff0000"/>
     <use xlink:href="#m812197c8b6" x="168.907796" y="184.20178" style="fill: #ffffff; stroke: #ff0000"/>
     <use xlink:href="#m812197c8b6" x="170.625722" y="185.047522" style="fill: #ffffff; stroke: #ff0000"/>
     <use xlink:href="#m812197c8b6" x="173.945594" y="186.994914" style="fill: #ffffff; stroke: #ff0000"/>
     <use xlink:href="#m812197c8b6" x="175.975537" y="188.329969" style="fill: #ffffff; stroke: #ff0000"/>
     <use xlink:href="#m812197c8b6" x="178.770476" y="189.863468" style="fill: #ffffff; stroke: #ff0000"/>
     <use xlink:href="#m812197c8b6" x="181.850977" y="191.955109" style="fill: #ffffff; stroke: #ff0000"/>
     <use xlink:href="#m812197c8b6" x="185.607969" y="194.324608" style="fill: #ffffff; stroke: #ff0000"/>
     <use xlink:href="#m812197c8b6" x="187.552878" y="195.428994" style="fill: #ffffff; stroke: #ff0000"/>
     <use xlink:href="#m812197c8b6" x="191.268109" y="197.589956" style="fill: #ffffff; stroke: #ff0000"/>
     <use xlink:href="#m812197c8b6" x="192.892872" y="198.456672" style="fill: #ffffff; stroke: #ff0000"/>
     <use xlink:href="#m812197c8b6" x="197.15861" y="200.708769" style="fill: #ffffff; stroke: #ff0000"/>
     <use xlink:href="#m812197c8b6" x="200.348995" y="202.244412" style="fill: #ffffff; stroke: #ff0000"/>
     <use xlink:href="#m812197c8b6" x="204.865049" y="204.815239" style="fill: #ffffff; stroke: #ff0000"/>
     <use xlink:href="#m812197c8b6" x="207.62651" y="206.167901" style="fill: #ffffff; stroke: #ff0000"/>
     <use xlink:href="#m812197c8b6" x="210.724849" y="207.770546" style="fill: #ffffff; stroke: #ff0000"/>
     <use xlink:href="#m812197c8b6" x="211.973613" y="208.376417" style="fill: #ffffff; stroke: #ff0000"/>
     <use xlink:href="#m812197c8b6" x="215.796766" y="210.325758" style="fill: #ffffff; stroke: #ff0000"/>
     <use xlink:href="#m812197c8b6" x="218.813747" y="211.595652" style="fill: #ffffff; stroke: #ff0000"/>
     <use xlink:href="#m812197c8b6" x="222.396576" y="213.358796" style="fill: #ffffff; stroke: #ff0000"/>
     <use xlink:href="#m812197c8b6" x="226.157249" y="215.049407" style="fill: #ffffff; stroke: #ff0000"/>
     <use xlink:href="#m812197c8b6" x="230.74269" y="217.167425" style="fill: #ffffff; stroke: #ff0000"/>
     <use xlink:href="#m812197c8b6" x="235.112057" y="219.005861" style="fill: #ffffff; stroke: #ff0000"/>
     <use xlink:href="#m812197c8b6" x="239.1275" y="220.626008" style="fill: #ffffff; stroke: #ff0000"/>
     <use xlink:href="#m812197c8b6" x="243.247024" y="222.111962" style="fill: #ffffff; stroke: #ff0000"/>
     <use xlink:href="#m812197c8b6" x="246.678054" y="223.799652" style="fill: #ffffff; stroke: #ff0000"/>
     <use xlink:href="#m812197c8b6" x="250.576618" y="225.105423" style="fill: #ffffff; stroke: #ff0000"/>
     <use xlink:href="#m812197c8b6" x="256.54077" y="227.495413" style="fill: #ffffff; stroke: #ff0000"/>
     <use xlink:href="#m812197c8b6" x="260.234132" y="228.824406" style="fill: #ffffff; stroke: #ff0000"/>
     <use xlink:href="#m812197c8b6" x="264.231777" y="230.266828" style="fill: #ffffff; stroke: #ff0000"/>
     <use xlink:href="#m812197c8b6" x="267.608151" y="231.517929" style="fill: #ffffff; stroke: #ff0000"/>
     <use xlink:href="#m812197c8b6" x="275.255572" y="234.213055" style="fill: #ffffff; stroke: #ff0000"/>
     <use xlink:href="#m812197c8b6" x="280.135706" y="235.836836" style="fill: #ffffff; stroke: #ff0000"/>
     <use xlink:href="#m812197c8b6" x="287.408645" y="238.230914" style="fill: #ffffff; stroke: #ff0000"/>
     <use xlink:href="#m812197c8b6" x="290.823751" y="239.532568" style="fill: #ffffff; stroke: #ff0000"/>
     <use xlink:href="#m812197c8b6" x="295.134375" y="240.769032" style="fill: #ffffff; stroke: #ff0000"/>
     <use xlink:href="#m812197c8b6" x="297.75431" y="241.575956" style="fill: #ffffff; stroke: #ff0000"/>
     <use xlink:href="#m812197c8b6" x="304.583298" y="243.532108" style="fill: #ffffff; stroke: #ff0000"/>
     <use xlink:href="#m812197c8b6" x="314.111534" y="249.409406" style="fill: #ffffff; stroke: #ff0000"/>
     <use xlink:href="#m812197c8b6" x="321.093528" y="253.651692" style="fill: #ffffff; stroke: #ff0000"/>
     <use xlink:href="#m812197c8b6" x="326.472975" y="256.777913" style="fill: #ffffff; stroke: #ff0000"/>
     <use xlink:href="#m812197c8b6" x="332.433445" y="260.050177" style="fill: #ffffff; stroke: #ff0000"/>
     <use xlink:href="#m812197c8b6" x="341.372978" y="264.978398" style="fill: #ffffff; stroke: #ff0000"/>
     <use xlink:href="#m812197c8b6" x="349.629674" y="270.065952" style="fill: #ffffff; stroke: #ff0000"/>
     <use xlink:href="#m812197c8b6" x="353.431739" y="272.172708" style="fill: #ffffff; stroke: #ff0000"/>
     <use xlink:href="#m812197c8b6" x="361.048316" y="276.469834" style="fill: #ffffff; stroke: #ff0000"/>
     <use xlink:href="#m812197c8b6" x="371.586221" y="282.403804" style="fill: #ffffff; stroke: #ff0000"/>
     <use xlink:href="#m812197c8b6" x="375.667627" y="284.291123" style="fill: #ffffff; stroke: #ff0000"/>
     <use xlink:href="#m812197c8b6" x="382.770355" y="288.472877" style="fill: #ffffff; stroke: #ff0000"/>
     <use xlink:href="#m812197c8b6" x="387.991683" y="290.952882" style="fill: #ffffff; stroke: #ff0000"/>
     <use xlink:href="#m812197c8b6" x="398.487273" y="295.488" style="fill: #ffffff; stroke: #ff0000"/>
    </g>
   </g>
   <g id="line2d_15">
    <path d="M 73.832727 112.025665 
L 398.487273 53.568 
L 398.487273 53.568 
" clip-path="url(#p8651bc17ce)" style="fill: none; stroke: #0000ff; stroke-width: 1.5; stroke-linecap: square"/>
   </g>
   <g id="patch_3">
    <path d="M 57.6 307.584 
L 57.6 41.472 
" style="fill: none; stroke: #000000; stroke-width: 0.8; stroke-linejoin: miter; stroke-linecap: square"/>
   </g>
   <g id="patch_4">
    <path d="M 414.72 307.584 
L 414.72 41.472 
" style="fill: none; stroke: #000000; stroke-width: 0.8; stroke-linejoin: miter; stroke-linecap: square"/>
   </g>
   <g id="patch_5">
    <path d="M 57.6 307.584 
L 414.72 307.584 
" style="fill: none; stroke: #000000; stroke-width: 0.8; stroke-linejoin: miter; stroke-linecap: square"/>
   </g>
   <g id="patch_6">
    <path d="M 57.6 41.472 
L 414.72 41.472 
" style="fill: none; stroke: #000000; stroke-width: 0.8; stroke-linejoin: miter; stroke-linecap: square"/>
   </g>
   <g id="text_16">
    <!-- NN_offX -->
    <g transform="translate(212.176875 35.472) scale(0.12 -0.12)">
     <defs>
      <path id="DejaVuSans-4e" d="M 628 4666 
L 1478 4666 
L 3547 763 
L 3547 4666 
L 4159 4666 
L 4159 0 
L 3309 0 
L 1241 3903 
L 1241 0 
L 628 0 
L 628 4666 
z
" transform="scale(0.015625)"/>
      <path id="DejaVuSans-5f" d="M 3263 -1063 
L 3263 -1509 
L -63 -1509 
L -63 -1063 
L 3263 -1063 
z
" transform="scale(0.015625)"/>
      <path id="DejaVuSans-66" d="M 2375 4863 
L 2375 4384 
L 1825 4384 
Q 1516 4384 1395 4259 
Q 1275 4134 1275 3809 
L 1275 3500 
L 2222 3500 
L 2222 3053 
L 1275 3053 
L 1275 0 
L 697 0 
L 697 3053 
L 147 3053 
L 147 3500 
L 697 3500 
L 697 3744 
Q 697 4328 969 4595 
Q 1241 4863 1831 4863 
L 2375 4863 
z
" transform="scale(0.015625)"/>
      <path id="DejaVuSans-58" d="M 403 4666 
L 1081 4666 
L 2241 2931 
L 3406 4666 
L 4084 4666 
L 2584 2425 
L 4184 0 
L 3506 0 
L 2194 1984 
L 872 0 
L 191 0 
L 1856 2491 
L 403 4666 
z
" transform="scale(0.015625)"/>
     </defs>
     <use xlink:href="#DejaVuSans-4e"/>
     <use xlink:href="#DejaVuSans-4e" x="74.804688"/>
     <use xlink:href="#DejaVuSans-5f" x="149.609375"/>
     <use xlink:href="#DejaVuSans-6f" x="199.609375"/>
     <use xlink:href="#DejaVuSans-66" x="260.791016"/>
     <use xlink:href="#DejaVuSans-66" x="295.996094"/>
     <use xlink:href="#DejaVuSans-58" x="331.201172"/>
    </g>
   </g>
  </g>
 </g>
 <defs>
  <clipPath id="p8651bc17ce">
   <rect x="57.6" y="41.472" width="357.12" height="266.112"/>
  </clipPath>
 </defs>
</svg>
