<?xml version="1.0" encoding="utf-8" standalone="no"?>
<!DOCTYPE svg PUBLIC "-//W3C//DTD SVG 1.1//EN"
  "http://www.w3.org/Graphics/SVG/1.1/DTD/svg11.dtd">
<svg xmlns:xlink="http://www.w3.org/1999/xlink" width="460.8pt" height="345.6pt" viewBox="0 0 460.8 345.6" xmlns="http://www.w3.org/2000/svg" version="1.1">
 <metadata>
  <rdf:RDF xmlns:dc="http://purl.org/dc/elements/1.1/" xmlns:cc="http://creativecommons.org/ns#" xmlns:rdf="http://www.w3.org/1999/02/22-rdf-syntax-ns#">
   <cc:Work>
    <dc:type rdf:resource="http://purl.org/dc/dcmitype/StillImage"/>
    <dc:date>2023-06-23T15:38:09.483952</dc:date>
    <dc:format>image/svg+xml</dc:format>
    <dc:creator>
     <cc:Agent>
      <dc:title>Matplotlib v3.7.0, https://matplotlib.org/</dc:title>
     </cc:Agent>
    </dc:creator>
   </cc:Work>
  </rdf:RDF>
 </metadata>
 <defs>
  <style type="text/css">*{stroke-linejoin: round; stroke-linecap: butt}</style>
 </defs>
 <g id="figure_1">
  <g id="patch_1">
   <path d="M 0 345.6 
L 460.8 345.6 
L 460.8 0 
L 0 0 
z
" style="fill: #ffffff"/>
  </g>
  <g id="axes_1">
   <g id="patch_2">
    <path d="M 57.6 307.584 
L 414.72 307.584 
L 414.72 41.472 
L 57.6 41.472 
z
" style="fill: #ffffff"/>
   </g>
   <g id="matplotlib.axis_1">
    <g id="xtick_1">
     <g id="line2d_1">
      <defs>
       <path id="mc77f0c350d" d="M 0 0 
L 0 3.5 
" style="stroke: #000000; stroke-width: 0.8"/>
      </defs>
      <g>
       <use xlink:href="#mc77f0c350d" x="73.832727" y="307.584" style="stroke: #000000; stroke-width: 0.8"/>
      </g>
     </g>
     <g id="text_1">
      <!-- 0 -->
      <g transform="translate(70.651477 322.182437) scale(0.1 -0.1)">
       <defs>
        <path id="DejaVuSans-30" d="M 2034 4250 
Q 1547 4250 1301 3770 
Q 1056 3291 1056 2328 
Q 1056 1369 1301 889 
Q 1547 409 2034 409 
Q 2525 409 2770 889 
Q 3016 1369 3016 2328 
Q 3016 3291 2770 3770 
Q 2525 4250 2034 4250 
z
M 2034 4750 
Q 2819 4750 3233 4129 
Q 3647 3509 3647 2328 
Q 3647 1150 3233 529 
Q 2819 -91 2034 -91 
Q 1250 -91 836 529 
Q 422 1150 422 2328 
Q 422 3509 836 4129 
Q 1250 4750 2034 4750 
z
" transform="scale(0.015625)"/>
       </defs>
       <use xlink:href="#DejaVuSans-30"/>
      </g>
     </g>
    </g>
    <g id="xtick_2">
     <g id="line2d_2">
      <g>
       <use xlink:href="#mc77f0c350d" x="125.546565" y="307.584" style="stroke: #000000; stroke-width: 0.8"/>
      </g>
     </g>
     <g id="text_2">
      <!-- 1 -->
      <g transform="translate(122.365315 322.182437) scale(0.1 -0.1)">
       <defs>
        <path id="DejaVuSans-31" d="M 794 531 
L 1825 531 
L 1825 4091 
L 703 3866 
L 703 4441 
L 1819 4666 
L 2450 4666 
L 2450 531 
L 3481 531 
L 3481 0 
L 794 0 
L 794 531 
z
" transform="scale(0.015625)"/>
       </defs>
       <use xlink:href="#DejaVuSans-31"/>
      </g>
     </g>
    </g>
    <g id="xtick_3">
     <g id="line2d_3">
      <g>
       <use xlink:href="#mc77f0c350d" x="177.260403" y="307.584" style="stroke: #000000; stroke-width: 0.8"/>
      </g>
     </g>
     <g id="text_3">
      <!-- 2 -->
      <g transform="translate(174.079153 322.182437) scale(0.1 -0.1)">
       <defs>
        <path id="DejaVuSans-32" d="M 1228 531 
L 3431 531 
L 3431 0 
L 469 0 
L 469 531 
Q 828 903 1448 1529 
Q 2069 2156 2228 2338 
Q 2531 2678 2651 2914 
Q 2772 3150 2772 3378 
Q 2772 3750 2511 3984 
Q 2250 4219 1831 4219 
Q 1534 4219 1204 4116 
Q 875 4013 500 3803 
L 500 4441 
Q 881 4594 1212 4672 
Q 1544 4750 1819 4750 
Q 2544 4750 2975 4387 
Q 3406 4025 3406 3419 
Q 3406 3131 3298 2873 
Q 3191 2616 2906 2266 
Q 2828 2175 2409 1742 
Q 1991 1309 1228 531 
z
" transform="scale(0.015625)"/>
       </defs>
       <use xlink:href="#DejaVuSans-32"/>
      </g>
     </g>
    </g>
    <g id="xtick_4">
     <g id="line2d_4">
      <g>
       <use xlink:href="#mc77f0c350d" x="228.974241" y="307.584" style="stroke: #000000; stroke-width: 0.8"/>
      </g>
     </g>
     <g id="text_4">
      <!-- 3 -->
      <g transform="translate(225.792991 322.182437) scale(0.1 -0.1)">
       <defs>
        <path id="DejaVuSans-33" d="M 2597 2516 
Q 3050 2419 3304 2112 
Q 3559 1806 3559 1356 
Q 3559 666 3084 287 
Q 2609 -91 1734 -91 
Q 1441 -91 1130 -33 
Q 819 25 488 141 
L 488 750 
Q 750 597 1062 519 
Q 1375 441 1716 441 
Q 2309 441 2620 675 
Q 2931 909 2931 1356 
Q 2931 1769 2642 2001 
Q 2353 2234 1838 2234 
L 1294 2234 
L 1294 2753 
L 1863 2753 
Q 2328 2753 2575 2939 
Q 2822 3125 2822 3475 
Q 2822 3834 2567 4026 
Q 2313 4219 1838 4219 
Q 1578 4219 1281 4162 
Q 984 4106 628 3988 
L 628 4550 
Q 988 4650 1302 4700 
Q 1616 4750 1894 4750 
Q 2613 4750 3031 4423 
Q 3450 4097 3450 3541 
Q 3450 3153 3228 2886 
Q 3006 2619 2597 2516 
z
" transform="scale(0.015625)"/>
       </defs>
       <use xlink:href="#DejaVuSans-33"/>
      </g>
     </g>
    </g>
    <g id="xtick_5">
     <g id="line2d_5">
      <g>
       <use xlink:href="#mc77f0c350d" x="280.688079" y="307.584" style="stroke: #000000; stroke-width: 0.8"/>
      </g>
     </g>
     <g id="text_5">
      <!-- 4 -->
      <g transform="translate(277.506829 322.182437) scale(0.1 -0.1)">
       <defs>
        <path id="DejaVuSans-34" d="M 2419 4116 
L 825 1625 
L 2419 1625 
L 2419 4116 
z
M 2253 4666 
L 3047 4666 
L 3047 1625 
L 3713 1625 
L 3713 1100 
L 3047 1100 
L 3047 0 
L 2419 0 
L 2419 1100 
L 313 1100 
L 313 1709 
L 2253 4666 
z
" transform="scale(0.015625)"/>
       </defs>
       <use xlink:href="#DejaVuSans-34"/>
      </g>
     </g>
    </g>
    <g id="xtick_6">
     <g id="line2d_6">
      <g>
       <use xlink:href="#mc77f0c350d" x="332.401917" y="307.584" style="stroke: #000000; stroke-width: 0.8"/>
      </g>
     </g>
     <g id="text_6">
      <!-- 5 -->
      <g transform="translate(329.220667 322.182437) scale(0.1 -0.1)">
       <defs>
        <path id="DejaVuSans-35" d="M 691 4666 
L 3169 4666 
L 3169 4134 
L 1269 4134 
L 1269 2991 
Q 1406 3038 1543 3061 
Q 1681 3084 1819 3084 
Q 2600 3084 3056 2656 
Q 3513 2228 3513 1497 
Q 3513 744 3044 326 
Q 2575 -91 1722 -91 
Q 1428 -91 1123 -41 
Q 819 9 494 109 
L 494 744 
Q 775 591 1075 516 
Q 1375 441 1709 441 
Q 2250 441 2565 725 
Q 2881 1009 2881 1497 
Q 2881 1984 2565 2268 
Q 2250 2553 1709 2553 
Q 1456 2553 1204 2497 
Q 953 2441 691 2322 
L 691 4666 
z
" transform="scale(0.015625)"/>
       </defs>
       <use xlink:href="#DejaVuSans-35"/>
      </g>
     </g>
    </g>
    <g id="xtick_7">
     <g id="line2d_7">
      <g>
       <use xlink:href="#mc77f0c350d" x="384.115755" y="307.584" style="stroke: #000000; stroke-width: 0.8"/>
      </g>
     </g>
     <g id="text_7">
      <!-- 6 -->
      <g transform="translate(380.934505 322.182437) scale(0.1 -0.1)">
       <defs>
        <path id="DejaVuSans-36" d="M 2113 2584 
Q 1688 2584 1439 2293 
Q 1191 2003 1191 1497 
Q 1191 994 1439 701 
Q 1688 409 2113 409 
Q 2538 409 2786 701 
Q 3034 994 3034 1497 
Q 3034 2003 2786 2293 
Q 2538 2584 2113 2584 
z
M 3366 4563 
L 3366 3988 
Q 3128 4100 2886 4159 
Q 2644 4219 2406 4219 
Q 1781 4219 1451 3797 
Q 1122 3375 1075 2522 
Q 1259 2794 1537 2939 
Q 1816 3084 2150 3084 
Q 2853 3084 3261 2657 
Q 3669 2231 3669 1497 
Q 3669 778 3244 343 
Q 2819 -91 2113 -91 
Q 1303 -91 875 529 
Q 447 1150 447 2328 
Q 447 3434 972 4092 
Q 1497 4750 2381 4750 
Q 2619 4750 2861 4703 
Q 3103 4656 3366 4563 
z
" transform="scale(0.015625)"/>
       </defs>
       <use xlink:href="#DejaVuSans-36"/>
      </g>
     </g>
    </g>
    <g id="text_8">
     <!-- data -->
     <g transform="translate(224.8975 335.860562) scale(0.1 -0.1)">
      <defs>
       <path id="DejaVuSans-64" d="M 2906 2969 
L 2906 4863 
L 3481 4863 
L 3481 0 
L 2906 0 
L 2906 525 
Q 2725 213 2448 61 
Q 2172 -91 1784 -91 
Q 1150 -91 751 415 
Q 353 922 353 1747 
Q 353 2572 751 3078 
Q 1150 3584 1784 3584 
Q 2172 3584 2448 3432 
Q 2725 3281 2906 2969 
z
M 947 1747 
Q 947 1113 1208 752 
Q 1469 391 1925 391 
Q 2381 391 2643 752 
Q 2906 1113 2906 1747 
Q 2906 2381 2643 2742 
Q 2381 3103 1925 3103 
Q 1469 3103 1208 2742 
Q 947 2381 947 1747 
z
" transform="scale(0.015625)"/>
       <path id="DejaVuSans-61" d="M 2194 1759 
Q 1497 1759 1228 1600 
Q 959 1441 959 1056 
Q 959 750 1161 570 
Q 1363 391 1709 391 
Q 2188 391 2477 730 
Q 2766 1069 2766 1631 
L 2766 1759 
L 2194 1759 
z
M 3341 1997 
L 3341 0 
L 2766 0 
L 2766 531 
Q 2569 213 2275 61 
Q 1981 -91 1556 -91 
Q 1019 -91 701 211 
Q 384 513 384 1019 
Q 384 1609 779 1909 
Q 1175 2209 1959 2209 
L 2766 2209 
L 2766 2266 
Q 2766 2663 2505 2880 
Q 2244 3097 1772 3097 
Q 1472 3097 1187 3025 
Q 903 2953 641 2809 
L 641 3341 
Q 956 3463 1253 3523 
Q 1550 3584 1831 3584 
Q 2591 3584 2966 3190 
Q 3341 2797 3341 1997 
z
" transform="scale(0.015625)"/>
       <path id="DejaVuSans-74" d="M 1172 4494 
L 1172 3500 
L 2356 3500 
L 2356 3053 
L 1172 3053 
L 1172 1153 
Q 1172 725 1289 603 
Q 1406 481 1766 481 
L 2356 481 
L 2356 0 
L 1766 0 
Q 1100 0 847 248 
Q 594 497 594 1153 
L 594 3053 
L 172 3053 
L 172 3500 
L 594 3500 
L 594 4494 
L 1172 4494 
z
" transform="scale(0.015625)"/>
      </defs>
      <use xlink:href="#DejaVuSans-64"/>
      <use xlink:href="#DejaVuSans-61" x="63.476562"/>
      <use xlink:href="#DejaVuSans-74" x="124.755859"/>
      <use xlink:href="#DejaVuSans-61" x="163.964844"/>
     </g>
    </g>
   </g>
   <g id="matplotlib.axis_2">
    <g id="ytick_1">
     <g id="line2d_8">
      <defs>
       <path id="md25ba5bd84" d="M 0 0 
L -3.5 0 
" style="stroke: #000000; stroke-width: 0.8"/>
      </defs>
      <g>
       <use xlink:href="#md25ba5bd84" x="57.6" y="290.224011" style="stroke: #000000; stroke-width: 0.8"/>
      </g>
     </g>
     <g id="text_9">
      <!-- 0 -->
      <g transform="translate(44.2375 294.02323) scale(0.1 -0.1)">
       <use xlink:href="#DejaVuSans-30"/>
      </g>
     </g>
    </g>
    <g id="ytick_2">
     <g id="line2d_9">
      <g>
       <use xlink:href="#md25ba5bd84" x="57.6" y="234.797622" style="stroke: #000000; stroke-width: 0.8"/>
      </g>
     </g>
     <g id="text_10">
      <!-- 2 -->
      <g transform="translate(44.2375 238.596841) scale(0.1 -0.1)">
       <use xlink:href="#DejaVuSans-32"/>
      </g>
     </g>
    </g>
    <g id="ytick_3">
     <g id="line2d_10">
      <g>
       <use xlink:href="#md25ba5bd84" x="57.6" y="179.371233" style="stroke: #000000; stroke-width: 0.8"/>
      </g>
     </g>
     <g id="text_11">
      <!-- 4 -->
      <g transform="translate(44.2375 183.170452) scale(0.1 -0.1)">
       <use xlink:href="#DejaVuSans-34"/>
      </g>
     </g>
    </g>
    <g id="ytick_4">
     <g id="line2d_11">
      <g>
       <use xlink:href="#md25ba5bd84" x="57.6" y="123.944845" style="stroke: #000000; stroke-width: 0.8"/>
      </g>
     </g>
     <g id="text_12">
      <!-- 6 -->
      <g transform="translate(44.2375 127.744063) scale(0.1 -0.1)">
       <use xlink:href="#DejaVuSans-36"/>
      </g>
     </g>
    </g>
    <g id="ytick_5">
     <g id="line2d_12">
      <g>
       <use xlink:href="#md25ba5bd84" x="57.6" y="68.518456" style="stroke: #000000; stroke-width: 0.8"/>
      </g>
     </g>
     <g id="text_13">
      <!-- 8 -->
      <g transform="translate(44.2375 72.317674) scale(0.1 -0.1)">
       <defs>
        <path id="DejaVuSans-38" d="M 2034 2216 
Q 1584 2216 1326 1975 
Q 1069 1734 1069 1313 
Q 1069 891 1326 650 
Q 1584 409 2034 409 
Q 2484 409 2743 651 
Q 3003 894 3003 1313 
Q 3003 1734 2745 1975 
Q 2488 2216 2034 2216 
z
M 1403 2484 
Q 997 2584 770 2862 
Q 544 3141 544 3541 
Q 544 4100 942 4425 
Q 1341 4750 2034 4750 
Q 2731 4750 3128 4425 
Q 3525 4100 3525 3541 
Q 3525 3141 3298 2862 
Q 3072 2584 2669 2484 
Q 3125 2378 3379 2068 
Q 3634 1759 3634 1313 
Q 3634 634 3220 271 
Q 2806 -91 2034 -91 
Q 1263 -91 848 271 
Q 434 634 434 1313 
Q 434 1759 690 2068 
Q 947 2378 1403 2484 
z
M 1172 3481 
Q 1172 3119 1398 2916 
Q 1625 2713 2034 2713 
Q 2441 2713 2670 2916 
Q 2900 3119 2900 3481 
Q 2900 3844 2670 4047 
Q 2441 4250 2034 4250 
Q 1625 4250 1398 4047 
Q 1172 3844 1172 3481 
z
" transform="scale(0.015625)"/>
       </defs>
       <use xlink:href="#DejaVuSans-38"/>
      </g>
     </g>
    </g>
    <g id="text_14">
     <!-- model -->
     <g transform="translate(38.157812 190.097531) rotate(-90) scale(0.1 -0.1)">
      <defs>
       <path id="DejaVuSans-6d" d="M 3328 2828 
Q 3544 3216 3844 3400 
Q 4144 3584 4550 3584 
Q 5097 3584 5394 3201 
Q 5691 2819 5691 2113 
L 5691 0 
L 5113 0 
L 5113 2094 
Q 5113 2597 4934 2840 
Q 4756 3084 4391 3084 
Q 3944 3084 3684 2787 
Q 3425 2491 3425 1978 
L 3425 0 
L 2847 0 
L 2847 2094 
Q 2847 2600 2669 2842 
Q 2491 3084 2119 3084 
Q 1678 3084 1418 2786 
Q 1159 2488 1159 1978 
L 1159 0 
L 581 0 
L 581 3500 
L 1159 3500 
L 1159 2956 
Q 1356 3278 1631 3431 
Q 1906 3584 2284 3584 
Q 2666 3584 2933 3390 
Q 3200 3197 3328 2828 
z
" transform="scale(0.015625)"/>
       <path id="DejaVuSans-6f" d="M 1959 3097 
Q 1497 3097 1228 2736 
Q 959 2375 959 1747 
Q 959 1119 1226 758 
Q 1494 397 1959 397 
Q 2419 397 2687 759 
Q 2956 1122 2956 1747 
Q 2956 2369 2687 2733 
Q 2419 3097 1959 3097 
z
M 1959 3584 
Q 2709 3584 3137 3096 
Q 3566 2609 3566 1747 
Q 3566 888 3137 398 
Q 2709 -91 1959 -91 
Q 1206 -91 779 398 
Q 353 888 353 1747 
Q 353 2609 779 3096 
Q 1206 3584 1959 3584 
z
" transform="scale(0.015625)"/>
       <path id="DejaVuSans-65" d="M 3597 1894 
L 3597 1613 
L 953 1613 
Q 991 1019 1311 708 
Q 1631 397 2203 397 
Q 2534 397 2845 478 
Q 3156 559 3463 722 
L 3463 178 
Q 3153 47 2828 -22 
Q 2503 -91 2169 -91 
Q 1331 -91 842 396 
Q 353 884 353 1716 
Q 353 2575 817 3079 
Q 1281 3584 2069 3584 
Q 2775 3584 3186 3129 
Q 3597 2675 3597 1894 
z
M 3022 2063 
Q 3016 2534 2758 2815 
Q 2500 3097 2075 3097 
Q 1594 3097 1305 2825 
Q 1016 2553 972 2059 
L 3022 2063 
z
" transform="scale(0.015625)"/>
       <path id="DejaVuSans-6c" d="M 603 4863 
L 1178 4863 
L 1178 0 
L 603 0 
L 603 4863 
z
" transform="scale(0.015625)"/>
      </defs>
      <use xlink:href="#DejaVuSans-6d"/>
      <use xlink:href="#DejaVuSans-6f" x="97.412109"/>
      <use xlink:href="#DejaVuSans-64" x="158.59375"/>
      <use xlink:href="#DejaVuSans-65" x="222.070312"/>
      <use xlink:href="#DejaVuSans-6c" x="283.59375"/>
     </g>
    </g>
   </g>
   <g id="line2d_13">
    <defs>
     <path id="m4874156500" d="M 0 3 
C 0.795609 3 1.55874 2.683901 2.12132 2.12132 
C 2.683901 1.55874 3 0.795609 3 0 
C 3 -0.795609 2.683901 -1.55874 2.12132 -2.12132 
C 1.55874 -2.683901 0.795609 -3 0 -3 
C -0.795609 -3 -1.55874 -2.683901 -2.12132 -2.12132 
C -2.683901 -1.55874 -3 -0.795609 -3 0 
C -3 0.795609 -2.683901 1.55874 -2.12132 2.12132 
C -1.55874 2.683901 -0.795609 3 0 3 
z
" style="stroke: #ff0000"/>
    </defs>
    <g clip-path="url(#pd20442a450)">
     <use xlink:href="#m4874156500" x="73.832727" y="295.48393" style="fill: #ffffff; stroke: #ff0000"/>
     <use xlink:href="#m4874156500" x="73.83485" y="295.488" style="fill: #ffffff; stroke: #ff0000"/>
     <use xlink:href="#m4874156500" x="73.845995" y="295.476054" style="fill: #ffffff; stroke: #ff0000"/>
     <use xlink:href="#m4874156500" x="73.915345" y="295.421121" style="fill: #ffffff; stroke: #ff0000"/>
     <use xlink:href="#m4874156500" x="73.933506" y="295.379283" style="fill: #ffffff; stroke: #ff0000"/>
     <use xlink:href="#m4874156500" x="73.95151" y="295.324785" style="fill: #ffffff; stroke: #ff0000"/>
     <use xlink:href="#m4874156500" x="73.969509" y="295.291815" style="fill: #ffffff; stroke: #ff0000"/>
     <use xlink:href="#m4874156500" x="73.977408" y="295.269046" style="fill: #ffffff; stroke: #ff0000"/>
     <use xlink:href="#m4874156500" x="73.985863" y="295.240714" style="fill: #ffffff; stroke: #ff0000"/>
     <use xlink:href="#m4874156500" x="73.995" y="295.216993" style="fill: #ffffff; stroke: #ff0000"/>
     <use xlink:href="#m4874156500" x="74.028971" y="295.135274" style="fill: #ffffff; stroke: #ff0000"/>
     <use xlink:href="#m4874156500" x="74.049684" y="295.092115" style="fill: #ffffff; stroke: #ff0000"/>
     <use xlink:href="#m4874156500" x="74.062562" y="295.064377" style="fill: #ffffff; stroke: #ff0000"/>
     <use xlink:href="#m4874156500" x="74.082098" y="295.007038" style="fill: #ffffff; stroke: #ff0000"/>
     <use xlink:href="#m4874156500" x="74.108784" y="294.94185" style="fill: #ffffff; stroke: #ff0000"/>
     <use xlink:href="#m4874156500" x="74.146072" y="294.864214" style="fill: #ffffff; stroke: #ff0000"/>
     <use xlink:href="#m4874156500" x="74.17901" y="294.794784" style="fill: #ffffff; stroke: #ff0000"/>
     <use xlink:href="#m4874156500" x="74.194528" y="294.757717" style="fill: #ffffff; stroke: #ff0000"/>
     <use xlink:href="#m4874156500" x="74.235224" y="294.664355" style="fill: #ffffff; stroke: #ff0000"/>
     <use xlink:href="#m4874156500" x="74.241984" y="294.650559" style="fill: #ffffff; stroke: #ff0000"/>
     <use xlink:href="#m4874156500" x="74.269627" y="294.605484" style="fill: #ffffff; stroke: #ff0000"/>
     <use xlink:href="#m4874156500" x="74.302807" y="294.554555" style="fill: #ffffff; stroke: #ff0000"/>
     <use xlink:href="#m4874156500" x="74.337868" y="294.501564" style="fill: #ffffff; stroke: #ff0000"/>
     <use xlink:href="#m4874156500" x="74.379233" y="294.44552" style="fill: #ffffff; stroke: #ff0000"/>
     <use xlink:href="#m4874156500" x="74.445689" y="294.375615" style="fill: #ffffff; stroke: #ff0000"/>
     <use xlink:href="#m4874156500" x="74.508602" y="294.305405" style="fill: #ffffff; stroke: #ff0000"/>
     <use xlink:href="#m4874156500" x="74.592427" y="294.205436" style="fill: #ffffff; stroke: #ff0000"/>
     <use xlink:href="#m4874156500" x="74.672067" y="294.113858" style="fill: #ffffff; stroke: #ff0000"/>
     <use xlink:href="#m4874156500" x="74.733949" y="294.049582" style="fill: #ffffff; stroke: #ff0000"/>
     <use xlink:href="#m4874156500" x="74.814841" y="293.972197" style="fill: #ffffff; stroke: #ff0000"/>
     <use xlink:href="#m4874156500" x="74.91246" y="293.888403" style="fill: #ffffff; stroke: #ff0000"/>
     <use xlink:href="#m4874156500" x="74.99043" y="293.826201" style="fill: #ffffff; stroke: #ff0000"/>
     <use xlink:href="#m4874156500" x="75.099907" y="293.751829" style="fill: #ffffff; stroke: #ff0000"/>
     <use xlink:href="#m4874156500" x="75.192704" y="293.672977" style="fill: #ffffff; stroke: #ff0000"/>
     <use xlink:href="#m4874156500" x="75.254929" y="293.631879" style="fill: #ffffff; stroke: #ff0000"/>
     <use xlink:href="#m4874156500" x="75.281391" y="293.613854" style="fill: #ffffff; stroke: #ff0000"/>
     <use xlink:href="#m4874156500" x="75.37385" y="293.550662" style="fill: #ffffff; stroke: #ff0000"/>
     <use xlink:href="#m4874156500" x="75.421213" y="293.535544" style="fill: #ffffff; stroke: #ff0000"/>
     <use xlink:href="#m4874156500" x="75.501429" y="293.479976" style="fill: #ffffff; stroke: #ff0000"/>
     <use xlink:href="#m4874156500" x="75.634952" y="293.395878" style="fill: #ffffff; stroke: #ff0000"/>
     <use xlink:href="#m4874156500" x="75.729012" y="293.34224" style="fill: #ffffff; stroke: #ff0000"/>
     <use xlink:href="#m4874156500" x="75.914092" y="293.223664" style="fill: #ffffff; stroke: #ff0000"/>
     <use xlink:href="#m4874156500" x="76.062221" y="293.138483" style="fill: #ffffff; stroke: #ff0000"/>
     <use xlink:href="#m4874156500" x="76.198236" y="293.054887" style="fill: #ffffff; stroke: #ff0000"/>
     <use xlink:href="#m4874156500" x="76.363777" y="292.962952" style="fill: #ffffff; stroke: #ff0000"/>
     <use xlink:href="#m4874156500" x="76.69593" y="292.790606" style="fill: #ffffff; stroke: #ff0000"/>
     <use xlink:href="#m4874156500" x="76.996758" y="292.626453" style="fill: #ffffff; stroke: #ff0000"/>
     <use xlink:href="#m4874156500" x="77.243296" y="292.493342" style="fill: #ffffff; stroke: #ff0000"/>
     <use xlink:href="#m4874156500" x="77.451915" y="292.388708" style="fill: #ffffff; stroke: #ff0000"/>
     <use xlink:href="#m4874156500" x="77.802075" y="292.210072" style="fill: #ffffff; stroke: #ff0000"/>
     <use xlink:href="#m4874156500" x="78.002447" y="292.108491" style="fill: #ffffff; stroke: #ff0000"/>
     <use xlink:href="#m4874156500" x="78.376276" y="291.902751" style="fill: #ffffff; stroke: #ff0000"/>
     <use xlink:href="#m4874156500" x="78.706221" y="291.723706" style="fill: #ffffff; stroke: #ff0000"/>
     <use xlink:href="#m4874156500" x="79.068049" y="291.521402" style="fill: #ffffff; stroke: #ff0000"/>
     <use xlink:href="#m4874156500" x="79.426655" y="291.3175" style="fill: #ffffff; stroke: #ff0000"/>
     <use xlink:href="#m4874156500" x="79.628103" y="291.205902" style="fill: #ffffff; stroke: #ff0000"/>
     <use xlink:href="#m4874156500" x="79.866825" y="291.071297" style="fill: #ffffff; stroke: #ff0000"/>
     <use xlink:href="#m4874156500" x="80.299714" y="290.824314" style="fill: #ffffff; stroke: #ff0000"/>
     <use xlink:href="#m4874156500" x="80.627379" y="290.635622" style="fill: #ffffff; stroke: #ff0000"/>
     <use xlink:href="#m4874156500" x="80.993443" y="290.423394" style="fill: #ffffff; stroke: #ff0000"/>
     <use xlink:href="#m4874156500" x="81.512154" y="290.116193" style="fill: #ffffff; stroke: #ff0000"/>
     <use xlink:href="#m4874156500" x="81.975038" y="289.834284" style="fill: #ffffff; stroke: #ff0000"/>
     <use xlink:href="#m4874156500" x="82.270979" y="289.652172" style="fill: #ffffff; stroke: #ff0000"/>
     <use xlink:href="#m4874156500" x="82.777844" y="289.334055" style="fill: #ffffff; stroke: #ff0000"/>
     <use xlink:href="#m4874156500" x="83.23877" y="289.042645" style="fill: #ffffff; stroke: #ff0000"/>
     <use xlink:href="#m4874156500" x="83.553179" y="288.842496" style="fill: #ffffff; stroke: #ff0000"/>
     <use xlink:href="#m4874156500" x="84.143309" y="288.460063" style="fill: #ffffff; stroke: #ff0000"/>
     <use xlink:href="#m4874156500" x="84.670653" y="288.113838" style="fill: #ffffff; stroke: #ff0000"/>
     <use xlink:href="#m4874156500" x="85.150979" y="287.801179" style="fill: #ffffff; stroke: #ff0000"/>
     <use xlink:href="#m4874156500" x="85.605445" y="287.507654" style="fill: #ffffff; stroke: #ff0000"/>
     <use xlink:href="#m4874156500" x="86.062966" y="287.208157" style="fill: #ffffff; stroke: #ff0000"/>
     <use xlink:href="#m4874156500" x="86.45842" y="286.945436" style="fill: #ffffff; stroke: #ff0000"/>
     <use xlink:href="#m4874156500" x="87.123841" y="286.508479" style="fill: #ffffff; stroke: #ff0000"/>
     <use xlink:href="#m4874156500" x="87.636255" y="286.173751" style="fill: #ffffff; stroke: #ff0000"/>
     <use xlink:href="#m4874156500" x="87.771477" y="286.089481" style="fill: #ffffff; stroke: #ff0000"/>
     <use xlink:href="#m4874156500" x="88.153869" y="285.826985" style="fill: #ffffff; stroke: #ff0000"/>
     <use xlink:href="#m4874156500" x="88.864282" y="285.31481" style="fill: #ffffff; stroke: #ff0000"/>
     <use xlink:href="#m4874156500" x="89.276105" y="285.021893" style="fill: #ffffff; stroke: #ff0000"/>
     <use xlink:href="#m4874156500" x="90.131425" y="284.40938" style="fill: #ffffff; stroke: #ff0000"/>
     <use xlink:href="#m4874156500" x="90.739849" y="283.98318" style="fill: #ffffff; stroke: #ff0000"/>
     <use xlink:href="#m4874156500" x="91.259558" y="283.603112" style="fill: #ffffff; stroke: #ff0000"/>
     <use xlink:href="#m4874156500" x="92.05344" y="283.035568" style="fill: #ffffff; stroke: #ff0000"/>
     <use xlink:href="#m4874156500" x="92.670591" y="282.602246" style="fill: #ffffff; stroke: #ff0000"/>
     <use xlink:href="#m4874156500" x="93.302071" y="282.155841" style="fill: #ffffff; stroke: #ff0000"/>
     <use xlink:href="#m4874156500" x="94.208245" y="281.495675" style="fill: #ffffff; stroke: #ff0000"/>
     <use xlink:href="#m4874156500" x="94.776287" y="281.081659" style="fill: #ffffff; stroke: #ff0000"/>
     <use xlink:href="#m4874156500" x="95.280735" y="280.717674" style="fill: #ffffff; stroke: #ff0000"/>
     <use xlink:href="#m4874156500" x="96.039283" y="280.175105" style="fill: #ffffff; stroke: #ff0000"/>
     <use xlink:href="#m4874156500" x="96.867947" y="279.57726" style="fill: #ffffff; stroke: #ff0000"/>
     <use xlink:href="#m4874156500" x="97.769905" y="278.921732" style="fill: #ffffff; stroke: #ff0000"/>
     <use xlink:href="#m4874156500" x="98.207002" y="278.606946" style="fill: #ffffff; stroke: #ff0000"/>
     <use xlink:href="#m4874156500" x="98.744553" y="278.222795" style="fill: #ffffff; stroke: #ff0000"/>
     <use xlink:href="#m4874156500" x="99.08949" y="277.978587" style="fill: #ffffff; stroke: #ff0000"/>
     <use xlink:href="#m4874156500" x="99.922032" y="277.399203" style="fill: #ffffff; stroke: #ff0000"/>
     <use xlink:href="#m4874156500" x="100.68972" y="276.872387" style="fill: #ffffff; stroke: #ff0000"/>
     <use xlink:href="#m4874156500" x="101.788782" y="276.131783" style="fill: #ffffff; stroke: #ff0000"/>
     <use xlink:href="#m4874156500" x="102.500934" y="275.659094" style="fill: #ffffff; stroke: #ff0000"/>
     <use xlink:href="#m4874156500" x="103.03004" y="275.309248" style="fill: #ffffff; stroke: #ff0000"/>
     <use xlink:href="#m4874156500" x="103.888616" y="274.737634" style="fill: #ffffff; stroke: #ff0000"/>
     <use xlink:href="#m4874156500" x="104.938553" y="274.056576" style="fill: #ffffff; stroke: #ff0000"/>
     <use xlink:href="#m4874156500" x="105.925189" y="273.435539" style="fill: #ffffff; stroke: #ff0000"/>
     <use xlink:href="#m4874156500" x="107.038662" y="272.742508" style="fill: #ffffff; stroke: #ff0000"/>
     <use xlink:href="#m4874156500" x="107.776021" y="272.2875" style="fill: #ffffff; stroke: #ff0000"/>
     <use xlink:href="#m4874156500" x="108.909092" y="271.595024" style="fill: #ffffff; stroke: #ff0000"/>
     <use xlink:href="#m4874156500" x="109.724739" y="271.104839" style="fill: #ffffff; stroke: #ff0000"/>
     <use xlink:href="#m4874156500" x="110.741272" y="270.505633" style="fill: #ffffff; stroke: #ff0000"/>
     <use xlink:href="#m4874156500" x="112.153824" y="269.659338" style="fill: #ffffff; stroke: #ff0000"/>
     <use xlink:href="#m4874156500" x="113.270952" y="268.718294" style="fill: #ffffff; stroke: #ff0000"/>
     <use xlink:href="#m4874156500" x="114.62108" y="267.571048" style="fill: #ffffff; stroke: #ff0000"/>
     <use xlink:href="#m4874156500" x="115.676496" y="266.682599" style="fill: #ffffff; stroke: #ff0000"/>
     <use xlink:href="#m4874156500" x="116.049305" y="266.382335" style="fill: #ffffff; stroke: #ff0000"/>
     <use xlink:href="#m4874156500" x="116.749105" y="265.805065" style="fill: #ffffff; stroke: #ff0000"/>
     <use xlink:href="#m4874156500" x="118.007651" y="264.738085" style="fill: #ffffff; stroke: #ff0000"/>
     <use xlink:href="#m4874156500" x="119.382128" y="263.590628" style="fill: #ffffff; stroke: #ff0000"/>
     <use xlink:href="#m4874156500" x="120.611782" y="262.58396" style="fill: #ffffff; stroke: #ff0000"/>
     <use xlink:href="#m4874156500" x="121.623026" y="261.762985" style="fill: #ffffff; stroke: #ff0000"/>
     <use xlink:href="#m4874156500" x="123.225066" y="260.464484" style="fill: #ffffff; stroke: #ff0000"/>
     <use xlink:href="#m4874156500" x="124.360039" y="259.543764" style="fill: #ffffff; stroke: #ff0000"/>
     <use xlink:href="#m4874156500" x="126.1657" y="258.08259" style="fill: #ffffff; stroke: #ff0000"/>
     <use xlink:href="#m4874156500" x="127.089468" y="257.346057" style="fill: #ffffff; stroke: #ff0000"/>
     <use xlink:href="#m4874156500" x="128.928925" y="255.886918" style="fill: #ffffff; stroke: #ff0000"/>
     <use xlink:href="#m4874156500" x="130.15642" y="254.930123" style="fill: #ffffff; stroke: #ff0000"/>
     <use xlink:href="#m4874156500" x="131.742607" y="253.685247" style="fill: #ffffff; stroke: #ff0000"/>
     <use xlink:href="#m4874156500" x="132.825297" y="252.852986" style="fill: #ffffff; stroke: #ff0000"/>
     <use xlink:href="#m4874156500" x="134.042039" y="251.925025" style="fill: #ffffff; stroke: #ff0000"/>
     <use xlink:href="#m4874156500" x="135.286621" y="250.989769" style="fill: #ffffff; stroke: #ff0000"/>
     <use xlink:href="#m4874156500" x="137.356935" y="249.48948" style="fill: #ffffff; stroke: #ff0000"/>
     <use xlink:href="#m4874156500" x="138.60479" y="248.599868" style="fill: #ffffff; stroke: #ff0000"/>
     <use xlink:href="#m4874156500" x="139.958623" y="247.675501" style="fill: #ffffff; stroke: #ff0000"/>
     <use xlink:href="#m4874156500" x="141.72738" y="246.439531" style="fill: #ffffff; stroke: #ff0000"/>
     <use xlink:href="#m4874156500" x="143.445236" y="245.297915" style="fill: #ffffff; stroke: #ff0000"/>
     <use xlink:href="#m4874156500" x="145.385699" y="244.009933" style="fill: #ffffff; stroke: #ff0000"/>
     <use xlink:href="#m4874156500" x="147.047281" y="242.946759" style="fill: #ffffff; stroke: #ff0000"/>
     <use xlink:href="#m4874156500" x="148.896921" y="241.769622" style="fill: #ffffff; stroke: #ff0000"/>
     <use xlink:href="#m4874156500" x="151.79914" y="239.939389" style="fill: #ffffff; stroke: #ff0000"/>
     <use xlink:href="#m4874156500" x="153.104398" y="239.152454" style="fill: #ffffff; stroke: #ff0000"/>
     <use xlink:href="#m4874156500" x="154.915212" y="238.052385" style="fill: #ffffff; stroke: #ff0000"/>
     <use xlink:href="#m4874156500" x="157.273234" y="236.441066" style="fill: #ffffff; stroke: #ff0000"/>
     <use xlink:href="#m4874156500" x="160.313465" y="233.99413" style="fill: #ffffff; stroke: #ff0000"/>
     <use xlink:href="#m4874156500" x="162.279794" y="232.434613" style="fill: #ffffff; stroke: #ff0000"/>
     <use xlink:href="#m4874156500" x="164.955387" y="230.346984" style="fill: #ffffff; stroke: #ff0000"/>
     <use xlink:href="#m4874156500" x="167.577472" y="228.357329" style="fill: #ffffff; stroke: #ff0000"/>
     <use xlink:href="#m4874156500" x="170.092804" y="226.479892" style="fill: #ffffff; stroke: #ff0000"/>
     <use xlink:href="#m4874156500" x="172.745521" y="224.563129" style="fill: #ffffff; stroke: #ff0000"/>
     <use xlink:href="#m4874156500" x="175.589274" y="222.527884" style="fill: #ffffff; stroke: #ff0000"/>
     <use xlink:href="#m4874156500" x="177.384937" y="221.267679" style="fill: #ffffff; stroke: #ff0000"/>
     <use xlink:href="#m4874156500" x="179.558183" y="219.824979" style="fill: #ffffff; stroke: #ff0000"/>
     <use xlink:href="#m4874156500" x="183.919148" y="216.905328" style="fill: #ffffff; stroke: #ff0000"/>
     <use xlink:href="#m4874156500" x="187.026703" y="214.615593" style="fill: #ffffff; stroke: #ff0000"/>
     <use xlink:href="#m4874156500" x="189.809143" y="212.251143" style="fill: #ffffff; stroke: #ff0000"/>
     <use xlink:href="#m4874156500" x="192.858576" y="209.889521" style="fill: #ffffff; stroke: #ff0000"/>
     <use xlink:href="#m4874156500" x="195.503006" y="207.802712" style="fill: #ffffff; stroke: #ff0000"/>
     <use xlink:href="#m4874156500" x="199.890068" y="204.284224" style="fill: #ffffff; stroke: #ff0000"/>
     <use xlink:href="#m4874156500" x="202.082956" y="202.651471" style="fill: #ffffff; stroke: #ff0000"/>
     <use xlink:href="#m4874156500" x="206.07309" y="199.886034" style="fill: #ffffff; stroke: #ff0000"/>
     <use xlink:href="#m4874156500" x="209.775524" y="197.398133" style="fill: #ffffff; stroke: #ff0000"/>
     <use xlink:href="#m4874156500" x="212.923465" y="195.219455" style="fill: #ffffff; stroke: #ff0000"/>
     <use xlink:href="#m4874156500" x="217.873808" y="191.992588" style="fill: #ffffff; stroke: #ff0000"/>
     <use xlink:href="#m4874156500" x="222.904653" y="188.759352" style="fill: #ffffff; stroke: #ff0000"/>
     <use xlink:href="#m4874156500" x="227.596783" y="185.015765" style="fill: #ffffff; stroke: #ff0000"/>
     <use xlink:href="#m4874156500" x="231.955642" y="181.578363" style="fill: #ffffff; stroke: #ff0000"/>
     <use xlink:href="#m4874156500" x="238.098421" y="176.939164" style="fill: #ffffff; stroke: #ff0000"/>
     <use xlink:href="#m4874156500" x="242.58561" y="173.681164" style="fill: #ffffff; stroke: #ff0000"/>
     <use xlink:href="#m4874156500" x="250.21456" y="168.363417" style="fill: #ffffff; stroke: #ff0000"/>
     <use xlink:href="#m4874156500" x="254.093923" y="165.773895" style="fill: #ffffff; stroke: #ff0000"/>
     <use xlink:href="#m4874156500" x="255.138675" y="165.110307" style="fill: #ffffff; stroke: #ff0000"/>
     <use xlink:href="#m4874156500" x="261.808341" y="159.433148" style="fill: #ffffff; stroke: #ff0000"/>
     <use xlink:href="#m4874156500" x="268.572491" y="153.065706" style="fill: #ffffff; stroke: #ff0000"/>
     <use xlink:href="#m4874156500" x="275.720585" y="146.646807" style="fill: #ffffff; stroke: #ff0000"/>
     <use xlink:href="#m4874156500" x="281.885206" y="141.339924" style="fill: #ffffff; stroke: #ff0000"/>
     <use xlink:href="#m4874156500" x="290.583661" y="134.164193" style="fill: #ffffff; stroke: #ff0000"/>
     <use xlink:href="#m4874156500" x="294.644011" y="130.981358" style="fill: #ffffff; stroke: #ff0000"/>
     <use xlink:href="#m4874156500" x="302.770707" y="124.911036" style="fill: #ffffff; stroke: #ff0000"/>
     <use xlink:href="#m4874156500" x="313.874522" y="117.021105" style="fill: #ffffff; stroke: #ff0000"/>
     <use xlink:href="#m4874156500" x="325.447765" y="109.210119" style="fill: #ffffff; stroke: #ff0000"/>
     <use xlink:href="#m4874156500" x="337.738833" y="101.161162" style="fill: #ffffff; stroke: #ff0000"/>
     <use xlink:href="#m4874156500" x="349.845542" y="93.370103" style="fill: #ffffff; stroke: #ff0000"/>
     <use xlink:href="#m4874156500" x="359.382473" y="86.088867" style="fill: #ffffff; stroke: #ff0000"/>
     <use xlink:href="#m4874156500" x="369.186011" y="77.637286" style="fill: #ffffff; stroke: #ff0000"/>
     <use xlink:href="#m4874156500" x="376.40416" y="71.576214" style="fill: #ffffff; stroke: #ff0000"/>
     <use xlink:href="#m4874156500" x="391.083003" y="59.530675" style="fill: #ffffff; stroke: #ff0000"/>
     <use xlink:href="#m4874156500" x="398.487273" y="53.568" style="fill: #ffffff; stroke: #ff0000"/>
    </g>
   </g>
   <g id="line2d_14">
    <path d="M 73.832727 290.224011 
L 398.487273 116.243218 
L 398.487273 116.243218 
" clip-path="url(#pd20442a450)" style="fill: none; stroke: #0000ff; stroke-width: 1.5; stroke-linecap: square"/>
   </g>
   <g id="patch_3">
    <path d="M 57.6 307.584 
L 57.6 41.472 
" style="fill: none; stroke: #000000; stroke-width: 0.8; stroke-linejoin: miter; stroke-linecap: square"/>
   </g>
   <g id="patch_4">
    <path d="M 414.72 307.584 
L 414.72 41.472 
" style="fill: none; stroke: #000000; stroke-width: 0.8; stroke-linejoin: miter; stroke-linecap: square"/>
   </g>
   <g id="patch_5">
    <path d="M 57.6 307.584 
L 414.72 307.584 
" style="fill: none; stroke: #000000; stroke-width: 0.8; stroke-linejoin: miter; stroke-linecap: square"/>
   </g>
   <g id="patch_6">
    <path d="M 57.6 41.472 
L 414.72 41.472 
" style="fill: none; stroke: #000000; stroke-width: 0.8; stroke-linejoin: miter; stroke-linecap: square"/>
   </g>
   <g id="text_15">
    <!-- NN_equibiaxial -->
    <g transform="translate(191.4975 35.472) scale(0.12 -0.12)">
     <defs>
      <path id="DejaVuSans-4e" d="M 628 4666 
L 1478 4666 
L 3547 763 
L 3547 4666 
L 4159 4666 
L 4159 0 
L 3309 0 
L 1241 3903 
L 1241 0 
L 628 0 
L 628 4666 
z
" transform="scale(0.015625)"/>
      <path id="DejaVuSans-5f" d="M 3263 -1063 
L 3263 -1509 
L -63 -1509 
L -63 -1063 
L 3263 -1063 
z
" transform="scale(0.015625)"/>
      <path id="DejaVuSans-71" d="M 947 1747 
Q 947 1113 1208 752 
Q 1469 391 1925 391 
Q 2381 391 2643 752 
Q 2906 1113 2906 1747 
Q 2906 2381 2643 2742 
Q 2381 3103 1925 3103 
Q 1469 3103 1208 2742 
Q 947 2381 947 1747 
z
M 2906 525 
Q 2725 213 2448 61 
Q 2172 -91 1784 -91 
Q 1150 -91 751 415 
Q 353 922 353 1747 
Q 353 2572 751 3078 
Q 1150 3584 1784 3584 
Q 2172 3584 2448 3432 
Q 2725 3281 2906 2969 
L 2906 3500 
L 3481 3500 
L 3481 -1331 
L 2906 -1331 
L 2906 525 
z
" transform="scale(0.015625)"/>
      <path id="DejaVuSans-75" d="M 544 1381 
L 544 3500 
L 1119 3500 
L 1119 1403 
Q 1119 906 1312 657 
Q 1506 409 1894 409 
Q 2359 409 2629 706 
Q 2900 1003 2900 1516 
L 2900 3500 
L 3475 3500 
L 3475 0 
L 2900 0 
L 2900 538 
Q 2691 219 2414 64 
Q 2138 -91 1772 -91 
Q 1169 -91 856 284 
Q 544 659 544 1381 
z
M 1991 3584 
L 1991 3584 
z
" transform="scale(0.015625)"/>
      <path id="DejaVuSans-69" d="M 603 3500 
L 1178 3500 
L 1178 0 
L 603 0 
L 603 3500 
z
M 603 4863 
L 1178 4863 
L 1178 4134 
L 603 4134 
L 603 4863 
z
" transform="scale(0.015625)"/>
      <path id="DejaVuSans-62" d="M 3116 1747 
Q 3116 2381 2855 2742 
Q 2594 3103 2138 3103 
Q 1681 3103 1420 2742 
Q 1159 2381 1159 1747 
Q 1159 1113 1420 752 
Q 1681 391 2138 391 
Q 2594 391 2855 752 
Q 3116 1113 3116 1747 
z
M 1159 2969 
Q 1341 3281 1617 3432 
Q 1894 3584 2278 3584 
Q 2916 3584 3314 3078 
Q 3713 2572 3713 1747 
Q 3713 922 3314 415 
Q 2916 -91 2278 -91 
Q 1894 -91 1617 61 
Q 1341 213 1159 525 
L 1159 0 
L 581 0 
L 581 4863 
L 1159 4863 
L 1159 2969 
z
" transform="scale(0.015625)"/>
      <path id="DejaVuSans-78" d="M 3513 3500 
L 2247 1797 
L 3578 0 
L 2900 0 
L 1881 1375 
L 863 0 
L 184 0 
L 1544 1831 
L 300 3500 
L 978 3500 
L 1906 2253 
L 2834 3500 
L 3513 3500 
z
" transform="scale(0.015625)"/>
     </defs>
     <use xlink:href="#DejaVuSans-4e"/>
     <use xlink:href="#DejaVuSans-4e" x="74.804688"/>
     <use xlink:href="#DejaVuSans-5f" x="149.609375"/>
     <use xlink:href="#DejaVuSans-65" x="199.609375"/>
     <use xlink:href="#DejaVuSans-71" x="261.132812"/>
     <use xlink:href="#DejaVuSans-75" x="324.609375"/>
     <use xlink:href="#DejaVuSans-69" x="387.988281"/>
     <use xlink:href="#DejaVuSans-62" x="415.771484"/>
     <use xlink:href="#DejaVuSans-69" x="479.248047"/>
     <use xlink:href="#DejaVuSans-61" x="507.03125"/>
     <use xlink:href="#DejaVuSans-78" x="568.310547"/>
     <use xlink:href="#DejaVuSans-69" x="627.490234"/>
     <use xlink:href="#DejaVuSans-61" x="655.273438"/>
     <use xlink:href="#DejaVuSans-6c" x="716.552734"/>
    </g>
   </g>
  </g>
 </g>
 <defs>
  <clipPath id="pd20442a450">
   <rect x="57.6" y="41.472" width="357.12" height="266.112"/>
  </clipPath>
 </defs>
</svg>
