<?xml version="1.0" encoding="utf-8" standalone="no"?>
<!DOCTYPE svg PUBLIC "-//W3C//DTD SVG 1.1//EN"
  "http://www.w3.org/Graphics/SVG/1.1/DTD/svg11.dtd">
<svg xmlns:xlink="http://www.w3.org/1999/xlink" width="460.8pt" height="345.6pt" viewBox="0 0 460.8 345.6" xmlns="http://www.w3.org/2000/svg" version="1.1">
 <metadata>
  <rdf:RDF xmlns:dc="http://purl.org/dc/elements/1.1/" xmlns:cc="http://creativecommons.org/ns#" xmlns:rdf="http://www.w3.org/1999/02/22-rdf-syntax-ns#">
   <cc:Work>
    <dc:type rdf:resource="http://purl.org/dc/dcmitype/StillImage"/>
    <dc:date>2023-06-16T12:09:59.589962</dc:date>
    <dc:format>image/svg+xml</dc:format>
    <dc:creator>
     <cc:Agent>
      <dc:title>Matplotlib v3.7.0, https://matplotlib.org/</dc:title>
     </cc:Agent>
    </dc:creator>
   </cc:Work>
  </rdf:RDF>
 </metadata>
 <defs>
  <style type="text/css">*{stroke-linejoin: round; stroke-linecap: butt}</style>
 </defs>
 <g id="figure_1">
  <g id="patch_1">
   <path d="M 0 345.6 
L 460.8 345.6 
L 460.8 0 
L 0 0 
z
" style="fill: #ffffff"/>
  </g>
  <g id="axes_1">
   <g id="patch_2">
    <path d="M 57.6 307.584 
L 414.72 307.584 
L 414.72 41.472 
L 57.6 41.472 
z
" style="fill: #ffffff"/>
   </g>
   <g id="matplotlib.axis_1">
    <g id="xtick_1">
     <g id="line2d_1">
      <defs>
       <path id="m8b6998b7bc" d="M 0 0 
L 0 3.5 
" style="stroke: #000000; stroke-width: 0.8"/>
      </defs>
      <g>
       <use xlink:href="#m8b6998b7bc" x="73.832727" y="307.584" style="stroke: #000000; stroke-width: 0.8"/>
      </g>
     </g>
     <g id="text_1">
      <!-- 0 -->
      <g transform="translate(70.651477 322.182437) scale(0.1 -0.1)">
       <defs>
        <path id="DejaVuSans-30" d="M 2034 4250 
Q 1547 4250 1301 3770 
Q 1056 3291 1056 2328 
Q 1056 1369 1301 889 
Q 1547 409 2034 409 
Q 2525 409 2770 889 
Q 3016 1369 3016 2328 
Q 3016 3291 2770 3770 
Q 2525 4250 2034 4250 
z
M 2034 4750 
Q 2819 4750 3233 4129 
Q 3647 3509 3647 2328 
Q 3647 1150 3233 529 
Q 2819 -91 2034 -91 
Q 1250 -91 836 529 
Q 422 1150 422 2328 
Q 422 3509 836 4129 
Q 1250 4750 2034 4750 
z
" transform="scale(0.015625)"/>
       </defs>
       <use xlink:href="#DejaVuSans-30"/>
      </g>
     </g>
    </g>
    <g id="xtick_2">
     <g id="line2d_2">
      <g>
       <use xlink:href="#m8b6998b7bc" x="138.828632" y="307.584" style="stroke: #000000; stroke-width: 0.8"/>
      </g>
     </g>
     <g id="text_2">
      <!-- 200 -->
      <g transform="translate(129.284882 322.182437) scale(0.1 -0.1)">
       <defs>
        <path id="DejaVuSans-32" d="M 1228 531 
L 3431 531 
L 3431 0 
L 469 0 
L 469 531 
Q 828 903 1448 1529 
Q 2069 2156 2228 2338 
Q 2531 2678 2651 2914 
Q 2772 3150 2772 3378 
Q 2772 3750 2511 3984 
Q 2250 4219 1831 4219 
Q 1534 4219 1204 4116 
Q 875 4013 500 3803 
L 500 4441 
Q 881 4594 1212 4672 
Q 1544 4750 1819 4750 
Q 2544 4750 2975 4387 
Q 3406 4025 3406 3419 
Q 3406 3131 3298 2873 
Q 3191 2616 2906 2266 
Q 2828 2175 2409 1742 
Q 1991 1309 1228 531 
z
" transform="scale(0.015625)"/>
       </defs>
       <use xlink:href="#DejaVuSans-32"/>
       <use xlink:href="#DejaVuSans-30" x="63.623047"/>
       <use xlink:href="#DejaVuSans-30" x="127.246094"/>
      </g>
     </g>
    </g>
    <g id="xtick_3">
     <g id="line2d_3">
      <g>
       <use xlink:href="#m8b6998b7bc" x="203.824537" y="307.584" style="stroke: #000000; stroke-width: 0.8"/>
      </g>
     </g>
     <g id="text_3">
      <!-- 400 -->
      <g transform="translate(194.280787 322.182437) scale(0.1 -0.1)">
       <defs>
        <path id="DejaVuSans-34" d="M 2419 4116 
L 825 1625 
L 2419 1625 
L 2419 4116 
z
M 2253 4666 
L 3047 4666 
L 3047 1625 
L 3713 1625 
L 3713 1100 
L 3047 1100 
L 3047 0 
L 2419 0 
L 2419 1100 
L 313 1100 
L 313 1709 
L 2253 4666 
z
" transform="scale(0.015625)"/>
       </defs>
       <use xlink:href="#DejaVuSans-34"/>
       <use xlink:href="#DejaVuSans-30" x="63.623047"/>
       <use xlink:href="#DejaVuSans-30" x="127.246094"/>
      </g>
     </g>
    </g>
    <g id="xtick_4">
     <g id="line2d_4">
      <g>
       <use xlink:href="#m8b6998b7bc" x="268.820442" y="307.584" style="stroke: #000000; stroke-width: 0.8"/>
      </g>
     </g>
     <g id="text_4">
      <!-- 600 -->
      <g transform="translate(259.276692 322.182437) scale(0.1 -0.1)">
       <defs>
        <path id="DejaVuSans-36" d="M 2113 2584 
Q 1688 2584 1439 2293 
Q 1191 2003 1191 1497 
Q 1191 994 1439 701 
Q 1688 409 2113 409 
Q 2538 409 2786 701 
Q 3034 994 3034 1497 
Q 3034 2003 2786 2293 
Q 2538 2584 2113 2584 
z
M 3366 4563 
L 3366 3988 
Q 3128 4100 2886 4159 
Q 2644 4219 2406 4219 
Q 1781 4219 1451 3797 
Q 1122 3375 1075 2522 
Q 1259 2794 1537 2939 
Q 1816 3084 2150 3084 
Q 2853 3084 3261 2657 
Q 3669 2231 3669 1497 
Q 3669 778 3244 343 
Q 2819 -91 2113 -91 
Q 1303 -91 875 529 
Q 447 1150 447 2328 
Q 447 3434 972 4092 
Q 1497 4750 2381 4750 
Q 2619 4750 2861 4703 
Q 3103 4656 3366 4563 
z
" transform="scale(0.015625)"/>
       </defs>
       <use xlink:href="#DejaVuSans-36"/>
       <use xlink:href="#DejaVuSans-30" x="63.623047"/>
       <use xlink:href="#DejaVuSans-30" x="127.246094"/>
      </g>
     </g>
    </g>
    <g id="xtick_5">
     <g id="line2d_5">
      <g>
       <use xlink:href="#m8b6998b7bc" x="333.816347" y="307.584" style="stroke: #000000; stroke-width: 0.8"/>
      </g>
     </g>
     <g id="text_5">
      <!-- 800 -->
      <g transform="translate(324.272597 322.182437) scale(0.1 -0.1)">
       <defs>
        <path id="DejaVuSans-38" d="M 2034 2216 
Q 1584 2216 1326 1975 
Q 1069 1734 1069 1313 
Q 1069 891 1326 650 
Q 1584 409 2034 409 
Q 2484 409 2743 651 
Q 3003 894 3003 1313 
Q 3003 1734 2745 1975 
Q 2488 2216 2034 2216 
z
M 1403 2484 
Q 997 2584 770 2862 
Q 544 3141 544 3541 
Q 544 4100 942 4425 
Q 1341 4750 2034 4750 
Q 2731 4750 3128 4425 
Q 3525 4100 3525 3541 
Q 3525 3141 3298 2862 
Q 3072 2584 2669 2484 
Q 3125 2378 3379 2068 
Q 3634 1759 3634 1313 
Q 3634 634 3220 271 
Q 2806 -91 2034 -91 
Q 1263 -91 848 271 
Q 434 634 434 1313 
Q 434 1759 690 2068 
Q 947 2378 1403 2484 
z
M 1172 3481 
Q 1172 3119 1398 2916 
Q 1625 2713 2034 2713 
Q 2441 2713 2670 2916 
Q 2900 3119 2900 3481 
Q 2900 3844 2670 4047 
Q 2441 4250 2034 4250 
Q 1625 4250 1398 4047 
Q 1172 3844 1172 3481 
z
" transform="scale(0.015625)"/>
       </defs>
       <use xlink:href="#DejaVuSans-38"/>
       <use xlink:href="#DejaVuSans-30" x="63.623047"/>
       <use xlink:href="#DejaVuSans-30" x="127.246094"/>
      </g>
     </g>
    </g>
    <g id="xtick_6">
     <g id="line2d_6">
      <g>
       <use xlink:href="#m8b6998b7bc" x="398.812252" y="307.584" style="stroke: #000000; stroke-width: 0.8"/>
      </g>
     </g>
     <g id="text_6">
      <!-- 1000 -->
      <g transform="translate(386.087252 322.182437) scale(0.1 -0.1)">
       <defs>
        <path id="DejaVuSans-31" d="M 794 531 
L 1825 531 
L 1825 4091 
L 703 3866 
L 703 4441 
L 1819 4666 
L 2450 4666 
L 2450 531 
L 3481 531 
L 3481 0 
L 794 0 
L 794 531 
z
" transform="scale(0.015625)"/>
       </defs>
       <use xlink:href="#DejaVuSans-31"/>
       <use xlink:href="#DejaVuSans-30" x="63.623047"/>
       <use xlink:href="#DejaVuSans-30" x="127.246094"/>
       <use xlink:href="#DejaVuSans-30" x="190.869141"/>
      </g>
     </g>
    </g>
   </g>
   <g id="matplotlib.axis_2">
    <g id="ytick_1">
     <g id="line2d_7">
      <defs>
       <path id="mf9d2437306" d="M 0 0 
L -3.5 0 
" style="stroke: #000000; stroke-width: 0.8"/>
      </defs>
      <g>
       <use xlink:href="#mf9d2437306" x="57.6" y="74.247067" style="stroke: #000000; stroke-width: 0.8"/>
      </g>
     </g>
     <g id="text_7">
      <!-- $\mathdefault{10^{1}}$ -->
      <g transform="translate(33 78.046286) scale(0.1 -0.1)">
       <use xlink:href="#DejaVuSans-31" transform="translate(0 0.684375)"/>
       <use xlink:href="#DejaVuSans-30" transform="translate(63.623047 0.684375)"/>
       <use xlink:href="#DejaVuSans-31" transform="translate(128.203125 38.965625) scale(0.7)"/>
      </g>
     </g>
    </g>
    <g id="ytick_2">
     <g id="line2d_8">
      <defs>
       <path id="mbba9074f78" d="M 0 0 
L -2 0 
" style="stroke: #000000; stroke-width: 0.6"/>
      </defs>
      <g>
       <use xlink:href="#mbba9074f78" x="57.6" y="237.95673" style="stroke: #000000; stroke-width: 0.6"/>
      </g>
     </g>
    </g>
    <g id="ytick_3">
     <g id="line2d_9">
      <g>
       <use xlink:href="#mbba9074f78" x="57.6" y="196.713415" style="stroke: #000000; stroke-width: 0.6"/>
      </g>
     </g>
    </g>
    <g id="ytick_4">
     <g id="line2d_10">
      <g>
       <use xlink:href="#mbba9074f78" x="57.6" y="167.450816" style="stroke: #000000; stroke-width: 0.6"/>
      </g>
     </g>
    </g>
    <g id="ytick_5">
     <g id="line2d_11">
      <g>
       <use xlink:href="#mbba9074f78" x="57.6" y="144.752982" style="stroke: #000000; stroke-width: 0.6"/>
      </g>
     </g>
    </g>
    <g id="ytick_6">
     <g id="line2d_12">
      <g>
       <use xlink:href="#mbba9074f78" x="57.6" y="126.2075" style="stroke: #000000; stroke-width: 0.6"/>
      </g>
     </g>
    </g>
    <g id="ytick_7">
     <g id="line2d_13">
      <g>
       <use xlink:href="#mbba9074f78" x="57.6" y="110.527519" style="stroke: #000000; stroke-width: 0.6"/>
      </g>
     </g>
    </g>
    <g id="ytick_8">
     <g id="line2d_14">
      <g>
       <use xlink:href="#mbba9074f78" x="57.6" y="96.944902" style="stroke: #000000; stroke-width: 0.6"/>
      </g>
     </g>
    </g>
    <g id="ytick_9">
     <g id="line2d_15">
      <g>
       <use xlink:href="#mbba9074f78" x="57.6" y="84.964184" style="stroke: #000000; stroke-width: 0.6"/>
      </g>
     </g>
    </g>
   </g>
   <g id="line2d_16">
    <path d="M 73.832727 53.568 
L 74.482686 70.429024 
L 75.457625 98.963742 
L 76.107584 108.653875 
L 76.757543 113.807023 
L 78.382441 124.903097 
L 80.332318 140.129281 
L 82.282195 151.100187 
L 82.607174 151.755987 
L 82.932154 151.733616 
L 83.257133 152.101078 
L 84.232072 155.022678 
L 84.882031 156.495269 
L 85.53199 159.326493 
L 86.506929 165.311123 
L 87.156888 169.071232 
L 88.131826 173.925417 
L 88.781785 177.954477 
L 89.431744 182.485295 
L 90.081704 184.650849 
L 90.406683 184.444687 
L 90.731663 184.571241 
L 91.056642 186.5309 
L 91.381622 187.149898 
L 91.706601 189.437139 
L 92.031581 189.989956 
L 92.35656 191.711983 
L 92.68154 192.437085 
L 93.981458 197.045816 
L 95.281376 200.658036 
L 95.606355 201.24225 
L 95.931335 202.271499 
L 96.256314 202.722014 
L 97.231253 204.48299 
L 97.881212 205.244343 
L 98.206192 205.387915 
L 98.531171 205.909156 
L 98.856151 205.548776 
L 99.18113 207.065096 
L 99.50611 206.207938 
L 99.831089 206.771731 
L 100.156069 206.729823 
L 100.481048 205.014251 
L 100.806028 205.698845 
L 101.131007 205.067795 
L 101.780966 206.317227 
L 102.105946 205.972541 
L 102.430925 206.871007 
L 102.755905 206.872239 
L 103.405864 207.566304 
L 103.730844 207.664161 
L 104.380803 208.525596 
L 104.705782 208.605271 
L 105.030762 209.065756 
L 105.355741 209.27065 
L 105.680721 209.97611 
L 106.0057 209.907199 
L 106.980639 210.953722 
L 107.305618 210.696838 
L 107.955577 209.441376 
L 108.280557 208.351813 
L 108.605536 209.561167 
L 108.930516 212.193793 
L 109.255495 212.557849 
L 109.905455 214.470417 
L 110.230434 214.959277 
L 110.555414 215.075438 
L 110.880393 215.551344 
L 111.205373 216.717227 
L 111.530352 216.762189 
L 111.855332 217.216567 
L 112.180311 217.253856 
L 112.83027 217.963082 
L 113.15525 217.739602 
L 113.480229 218.672753 
L 113.805209 218.495707 
L 114.130188 218.801482 
L 114.455168 219.260209 
L 114.780147 219.162758 
L 115.105127 218.930896 
L 115.430106 219.868545 
L 115.755086 220.034659 
L 116.080066 220.061748 
L 116.405045 220.512947 
L 116.730025 220.400442 
L 117.055004 221.718202 
L 117.379984 222.039112 
L 117.704963 222.178727 
L 118.029943 223.79103 
L 118.354922 223.466542 
L 118.679902 223.890254 
L 119.004881 224.569436 
L 119.329861 224.94434 
L 119.97982 225.408334 
L 120.629779 226.280745 
L 121.604717 227.494467 
L 121.929697 228.068166 
L 122.904636 228.854696 
L 123.229615 229.529431 
L 123.879574 230.323325 
L 124.204554 230.882614 
L 124.529533 231.740017 
L 124.854513 231.886027 
L 125.179492 232.719759 
L 125.504472 233.226479 
L 126.47941 235.462251 
L 127.129369 237.089587 
L 127.779328 239.305798 
L 128.754267 241.687604 
L 129.729206 242.776236 
L 131.029124 244.083401 
L 131.354103 244.153775 
L 132.004062 244.712576 
L 132.329042 245.120672 
L 133.30398 245.760669 
L 133.62896 245.759314 
L 133.953939 246.217588 
L 134.278919 246.420669 
L 134.603898 247.155536 
L 134.928878 248.429358 
L 135.253857 248.435689 
L 135.578837 248.712788 
L 136.228796 249.712373 
L 136.878755 250.034478 
L 137.203735 250.243299 
L 137.528714 250.717417 
L 138.178673 250.981803 
L 138.503653 251.330555 
L 138.828632 251.482068 
L 139.153612 251.823703 
L 139.478591 252.337773 
L 139.803571 252.333841 
L 140.12855 252.892926 
L 140.45353 253.147027 
L 140.778509 253.208823 
L 141.753448 253.830699 
L 142.078428 254.105204 
L 142.403407 254.677668 
L 142.728387 254.590294 
L 143.053366 253.980711 
L 143.703325 252.168087 
L 144.353284 248.877417 
L 144.678264 248.264929 
L 145.003243 248.005514 
L 145.328223 245.65587 
L 145.653202 245.13991 
L 146.303161 241.055 
L 146.95312 243.497647 
L 147.2781 242.912191 
L 147.603079 242.070531 
L 147.928059 243.919319 
L 148.253038 243.598802 
L 148.578018 244.433063 
L 149.227977 247.708256 
L 149.552957 246.949607 
L 150.202916 241.532198 
L 150.527895 244.063126 
L 150.852875 247.995429 
L 152.152793 254.953045 
L 152.477772 255.656308 
L 152.802752 253.520596 
L 153.127731 255.708732 
L 153.452711 254.160717 
L 153.77769 257.169046 
L 154.10267 257.187635 
L 154.427649 255.74066 
L 154.752629 257.586541 
L 155.077609 256.618463 
L 155.402588 259.200005 
L 155.727568 257.891275 
L 156.052547 260.070274 
L 156.377527 261.135737 
L 156.702506 260.011418 
L 157.352465 263.722729 
L 157.677445 262.645484 
L 158.002424 264.489593 
L 158.327404 265.087943 
L 158.652383 266.714662 
L 158.977363 266.366213 
L 159.302342 267.10738 
L 159.627322 265.978848 
L 159.952301 266.727614 
L 160.277281 264.587595 
L 160.60226 267.742217 
L 160.92724 268.462882 
L 161.252219 268.51657 
L 161.577199 270.085766 
L 161.902179 273.971941 
L 162.227158 273.658381 
L 162.552138 275.851836 
L 163.202097 277.61422 
L 163.527076 277.308037 
L 163.852056 278.698003 
L 164.177035 278.692474 
L 164.502015 278.923261 
L 164.826994 279.710514 
L 165.151974 278.606246 
L 165.476953 279.350575 
L 165.801933 279.520861 
L 166.126912 278.261872 
L 166.451892 279.370551 
L 166.776871 278.282401 
L 167.101851 278.832732 
L 167.42683 280.080199 
L 167.75181 278.413404 
L 168.07679 281.074474 
L 168.401769 279.553572 
L 168.726749 282.172011 
L 169.051728 280.80991 
L 169.376708 283.437574 
L 169.701687 282.867486 
L 170.026667 286.085854 
L 170.351646 284.701983 
L 170.676626 287.40027 
L 171.001605 285.861105 
L 171.326585 287.779657 
L 171.651564 286.11842 
L 171.976544 288.093407 
L 172.301523 285.958376 
L 172.626503 288.696434 
L 172.951482 288.663072 
L 173.276462 288.165619 
L 173.601441 289.786507 
L 173.926421 288.186538 
L 174.2514 290.249342 
L 174.57638 284.465403 
L 174.90136 290.27472 
L 175.551319 291.341119 
L 175.876298 291.618306 
L 176.201278 292.080879 
L 176.526257 291.805889 
L 176.851237 286.798986 
L 177.176216 291.91619 
L 177.826175 290.759011 
L 178.151155 290.997127 
L 178.476134 290.973814 
L 178.801114 291.229076 
L 179.126093 287.736733 
L 179.451073 291.113086 
L 179.776052 290.871027 
L 181.075971 291.272168 
L 181.40095 288.182098 
L 181.72593 290.992633 
L 182.050909 291.256932 
L 182.375889 291.222095 
L 182.700868 291.697703 
L 183.025848 290.899091 
L 183.350827 289.780119 
L 183.675807 291.559683 
L 184.325766 292.08954 
L 184.650745 291.492564 
L 185.625684 292.64789 
L 186.600622 293.281134 
L 186.925602 293.339808 
L 187.250581 293.853644 
L 187.575561 293.462374 
L 187.900541 293.298421 
L 188.22552 294.324778 
L 188.5505 292.988418 
L 188.875479 293.733103 
L 189.200459 293.873697 
L 189.525438 291.527678 
L 189.850418 294.031919 
L 190.500377 294.222292 
L 190.825356 292.891452 
L 191.150336 294.391025 
L 191.475315 294.34142 
L 191.800295 293.528324 
L 192.125274 294.778164 
L 192.450254 294.660568 
L 192.775233 291.659334 
L 193.100213 294.842979 
L 193.425192 294.746731 
L 193.750172 292.20081 
L 194.075152 295.310619 
L 194.400131 292.443272 
L 194.725111 295.01043 
L 195.05009 294.645577 
L 195.37507 293.429242 
L 195.700049 295.351191 
L 196.025029 293.39564 
L 196.350008 295.207903 
L 196.674988 292.49224 
L 196.999967 295.488 
L 197.324947 293.273928 
L 197.649926 294.846904 
L 197.974906 291.527206 
L 198.299885 293.59065 
L 198.624865 289.278703 
L 198.949844 292.905739 
L 199.274824 293.0993 
L 199.599803 292.827629 
L 199.924783 292.259122 
L 200.249762 289.551225 
L 200.574742 292.386666 
L 200.899722 291.15927 
L 201.224701 292.520682 
L 201.87466 291.297291 
L 202.19964 290.942973 
L 202.524619 291.358869 
L 202.849599 289.481655 
L 203.174578 291.021793 
L 203.499558 289.046365 
L 203.824537 291.600676 
L 204.149517 289.866153 
L 204.474496 291.895262 
L 204.799476 289.398128 
L 205.124455 291.380548 
L 205.449435 289.383149 
L 205.774414 291.764834 
L 206.099394 290.075909 
L 206.424373 292.161878 
L 207.074333 290.305754 
L 207.399312 291.515226 
L 207.724292 289.447059 
L 208.049271 289.460236 
L 208.374251 290.265888 
L 208.69923 289.746672 
L 209.349189 288.180498 
L 209.674169 290.315422 
L 209.999148 288.745059 
L 210.324128 290.043214 
L 210.649107 288.464783 
L 210.974087 290.551229 
L 211.299066 288.27537 
L 211.624046 289.083301 
L 211.949025 287.80892 
L 212.274005 287.410464 
L 212.598984 289.692283 
L 212.923964 287.691919 
L 213.248943 289.863123 
L 213.573923 288.151506 
L 213.898903 288.087908 
L 214.223882 290.02719 
L 214.548862 287.755566 
L 214.873841 289.353711 
L 215.198821 289.060091 
L 215.5238 288.430859 
L 215.84878 288.488783 
L 216.173759 289.963935 
L 216.498739 288.551874 
L 216.823718 288.578089 
L 217.148698 290.171958 
L 217.473677 288.520433 
L 217.798657 289.901205 
L 218.123636 289.214086 
L 218.448616 289.071264 
L 218.773595 289.933763 
L 219.098575 289.946185 
L 219.748534 288.243906 
L 220.073514 287.758208 
L 220.398493 288.201143 
L 220.723473 287.457995 
L 221.048452 286.095479 
L 221.373432 288.148437 
L 221.698411 286.795223 
L 222.023391 286.408628 
L 222.34837 288.299664 
L 222.67335 286.946609 
L 222.998329 286.877925 
L 223.323309 288.468877 
L 223.648288 287.184582 
L 223.973268 287.065811 
L 224.298247 287.515771 
L 224.948206 285.487537 
L 225.273186 286.760784 
L 225.598165 286.715605 
L 225.923145 285.961885 
L 226.248124 286.378437 
L 226.573104 287.658568 
L 226.898084 285.940271 
L 227.223063 285.212725 
L 227.548043 286.583316 
L 227.873022 285.764694 
L 228.198002 285.461526 
L 228.522981 285.973248 
L 228.847961 285.980344 
L 229.49792 285.430281 
L 229.822899 285.863348 
L 230.147879 285.736023 
L 230.472858 285.240708 
L 230.797838 284.98356 
L 231.122817 285.222065 
L 231.447797 284.832759 
L 232.097756 284.793136 
L 232.422735 284.822369 
L 232.747715 285.679122 
L 233.397674 285.014408 
L 233.722654 285.435358 
L 234.047633 285.01202 
L 234.372613 285.668402 
L 235.022572 285.457087 
L 235.347551 285.61245 
L 235.99751 285.697306 
L 236.32249 285.323391 
L 236.647469 285.705043 
L 236.972449 285.422199 
L 237.297428 286.080376 
L 237.622408 285.920129 
L 237.947387 285.388675 
L 238.272367 285.255427 
L 238.597346 286.217 
L 238.922326 285.324541 
L 239.247305 285.390135 
L 239.572285 285.899738 
L 239.897265 285.805299 
L 240.222244 285.098719 
L 240.872203 285.594251 
L 241.522162 285.662665 
L 241.847142 285.253853 
L 242.172121 285.550613 
L 242.497101 286.137589 
L 243.14706 285.48003 
L 243.472039 286.364375 
L 243.797019 285.580878 
L 244.121998 286.131942 
L 244.771957 286.679773 
L 245.096937 286.301105 
L 245.421916 286.183769 
L 245.746896 286.222729 
L 246.071876 286.690727 
L 246.396855 285.820555 
L 246.721835 286.463447 
L 247.046814 286.809365 
L 247.371794 286.932135 
L 248.021753 286.061714 
L 248.671712 286.233371 
L 248.996691 287.210939 
L 249.321671 286.000391 
L 249.64665 286.693028 
L 249.97163 285.714622 
L 250.296609 286.400945 
L 250.621589 285.95411 
L 250.946568 286.389271 
L 251.596527 286.015385 
L 251.921507 285.619114 
L 252.246486 286.641626 
L 252.571466 286.029331 
L 252.896446 286.368191 
L 253.221425 286.302002 
L 253.546405 285.847891 
L 253.871384 286.12429 
L 254.196364 286.680292 
L 254.521343 286.656 
L 254.846323 286.317489 
L 255.171302 286.414973 
L 255.821261 286.459541 
L 256.146241 286.475394 
L 256.47122 287.285629 
L 256.7962 286.155895 
L 257.121179 286.984901 
L 257.446159 286.473128 
L 257.771138 286.492412 
L 258.096118 286.377627 
L 258.421097 286.944578 
L 258.746077 287.063335 
L 259.071057 286.543729 
L 259.396036 286.589683 
L 259.721016 286.825684 
L 260.045995 287.332894 
L 260.695954 286.858998 
L 261.020934 286.961351 
L 261.345913 288.053951 
L 261.670893 287.140247 
L 262.320852 286.836301 
L 262.645831 286.315187 
L 262.970811 286.931212 
L 263.29579 286.386216 
L 263.62077 286.933655 
L 263.945749 286.57654 
L 264.270729 287.627393 
L 264.595708 287.219431 
L 264.920688 287.456545 
L 265.245667 286.746297 
L 265.570647 287.193465 
L 265.895627 286.899513 
L 266.220606 287.056762 
L 266.545586 286.174487 
L 266.870565 287.312317 
L 267.195545 287.355456 
L 267.520524 286.936109 
L 267.845504 285.836028 
L 268.170483 286.6929 
L 268.495463 286.002384 
L 268.820442 286.464795 
L 269.145422 286.283982 
L 269.470401 285.723785 
L 269.795381 286.277615 
L 270.12036 285.551426 
L 270.44534 286.410961 
L 270.770319 285.783311 
L 271.095299 286.511935 
L 271.420278 285.899563 
L 271.745258 286.477885 
L 272.070238 285.855649 
L 272.395217 286.592744 
L 272.720197 285.958201 
L 273.045176 286.073866 
L 273.370156 286.778468 
L 273.695135 286.295966 
L 274.020115 286.524083 
L 274.345094 285.886053 
L 274.670074 286.763987 
L 274.995053 286.365663 
L 275.320033 286.359623 
L 275.645012 286.690463 
L 275.969992 286.184276 
L 276.294971 286.910216 
L 276.619951 286.247737 
L 276.94493 286.848811 
L 277.26991 286.986373 
L 277.919869 286.022115 
L 278.244848 286.626245 
L 278.569828 286.870716 
L 278.894808 287.461082 
L 279.219787 285.962886 
L 279.544767 286.791352 
L 279.869746 286.298686 
L 280.194726 287.201671 
L 280.519705 286.163345 
L 280.844685 286.99248 
L 281.169664 286.801632 
L 281.494644 286.461435 
L 281.819623 287.045189 
L 282.144603 286.994552 
L 282.469582 285.778867 
L 282.794562 286.648133 
L 283.119541 286.336325 
L 283.444521 287.273981 
L 283.7695 286.318962 
L 284.09448 286.477562 
L 284.419459 287.249763 
L 284.744439 286.915033 
L 285.069419 285.594086 
L 285.394398 286.971658 
L 285.719378 286.964011 
L 286.044357 285.209966 
L 286.369337 286.740352 
L 287.019296 286.851919 
L 287.344275 286.366171 
L 287.669255 286.936158 
L 287.994234 286.357028 
L 288.319214 286.937561 
L 288.644193 286.944018 
L 288.969173 286.371382 
L 289.294152 287.022048 
L 289.944111 286.62648 
L 290.269091 286.057958 
L 290.59407 286.64462 
L 291.569009 286.389564 
L 291.893989 286.775038 
L 292.218968 286.939661 
L 292.543948 286.407202 
L 292.868927 286.648015 
L 293.193907 285.613777 
L 293.518886 286.117145 
L 294.168845 286.234433 
L 294.493825 287.000571 
L 295.143784 286.934715 
L 295.468763 286.422081 
L 295.793743 286.670171 
L 296.118722 285.900205 
L 296.443702 286.293313 
L 296.768681 286.324171 
L 297.093661 286.982554 
L 297.41864 286.79734 
L 297.74362 287.234488 
L 298.393579 285.575155 
L 298.718559 286.651969 
L 299.368518 286.719561 
L 299.693497 285.85996 
L 300.018477 285.59765 
L 300.343456 286.149429 
L 300.668436 286.298862 
L 300.993415 286.272487 
L 301.318395 286.088384 
L 301.643374 285.627958 
L 301.968354 286.28796 
L 302.618313 286.441522 
L 302.943292 286.321605 
L 303.268272 285.847211 
L 303.593251 286.097221 
L 303.918231 285.909248 
L 304.24321 286.517857 
L 304.56819 286.142886 
L 304.89317 286.51516 
L 305.218149 285.901263 
L 305.543129 286.3017 
L 305.868108 286.017476 
L 306.193088 286.521385 
L 306.518067 285.693438 
L 306.843047 286.302246 
L 307.168026 286.497063 
L 307.493006 286.237084 
L 308.142965 286.498177 
L 308.467944 286.220654 
L 308.792924 285.745915 
L 309.117903 286.624543 
L 309.442883 286.325331 
L 309.767862 286.237659 
L 310.092842 286.340783 
L 310.417821 286.057589 
L 310.742801 286.93655 
L 311.39276 285.952603 
L 311.71774 286.496574 
L 312.367699 286.332345 
L 312.692678 286.809188 
L 313.017658 287.057253 
L 313.342637 286.371333 
L 313.667617 286.175548 
L 313.992596 286.595512 
L 314.317576 286.820783 
L 314.642555 286.375334 
L 314.967535 286.499418 
L 315.942473 286.392238 
L 316.592432 286.792391 
L 316.917412 286.21014 
L 317.567371 286.723781 
L 317.892351 286.058309 
L 318.21733 286.770992 
L 318.54231 286.761871 
L 318.867289 286.620278 
L 319.192269 286.056334 
L 319.842228 287.056752 
L 320.167207 286.709436 
L 321.142146 286.275236 
L 321.467125 286.790098 
L 321.792105 286.123541 
L 322.117084 286.644737 
L 322.767043 286.603121 
L 323.417002 287.255827 
L 324.066962 286.207851 
L 324.391941 286.621246 
L 324.716921 286.389847 
L 325.0419 286.660208 
L 325.36688 286.42914 
L 325.691859 286.902936 
L 326.016839 286.431484 
L 326.341818 286.68732 
L 327.641736 286.708154 
L 327.966716 286.937483 
L 328.291695 286.516518 
L 328.616675 286.813657 
L 328.941654 286.707449 
L 329.916593 286.726278 
L 330.241572 286.483502 
L 330.566552 287.0385 
L 331.541491 286.487332 
L 331.86647 286.76724 
L 332.19145 286.581615 
L 332.841409 286.945579 
L 333.816347 285.783068 
L 334.466306 286.037287 
L 335.116265 286.026958 
L 335.441245 286.090379 
L 335.766224 285.691209 
L 336.091204 285.922781 
L 336.416183 285.288529 
L 336.741163 285.760319 
L 337.066143 285.969476 
L 337.391122 286.610046 
L 337.716102 285.787493 
L 338.041081 285.447677 
L 338.69104 286.013722 
L 339.01602 285.863339 
L 339.340999 285.209329 
L 339.665979 285.881857 
L 339.990958 285.757525 
L 340.640917 285.732754 
L 340.965897 286.015366 
L 341.290876 285.646599 
L 341.615856 285.669149 
L 341.940835 285.344179 
L 342.265815 285.826525 
L 342.590794 285.23678 
L 342.915774 285.853784 
L 343.240753 285.58753 
L 343.565733 285.896319 
L 344.215692 285.940689 
L 344.540672 285.466217 
L 344.865651 286.263001 
L 345.190631 286.230876 
L 345.51561 285.958162 
L 345.84059 285.336325 
L 346.165569 285.117359 
L 346.490549 286.058931 
L 347.140508 285.994684 
L 347.465487 285.816042 
L 348.115446 286.222983 
L 348.440426 285.616925 
L 348.765405 285.981695 
L 349.090385 285.383824 
L 349.415364 286.026851 
L 349.740344 286.114682 
L 350.065324 285.444447 
L 350.390303 286.160862 
L 351.365242 285.897417 
L 351.690221 286.044378 
L 352.015201 285.370314 
L 352.34018 286.329594 
L 352.66516 285.67759 
L 352.990139 281.688184 
L 353.315119 282.119324 
L 353.640098 281.859575 
L 353.965078 282.455093 
L 354.615037 281.058079 
L 354.940016 281.746308 
L 355.264996 280.718823 
L 355.589975 281.874914 
L 355.914955 280.772359 
L 356.239934 281.917003 
L 356.564914 281.113684 
L 356.889894 281.755344 
L 357.214873 281.532564 
L 357.539853 281.028472 
L 358.189812 281.049465 
L 358.514791 281.401658 
L 358.839771 281.965333 
L 359.16475 280.946792 
L 359.48973 281.036463 
L 359.814709 281.831069 
L 360.139689 281.564952 
L 360.464668 281.971921 
L 360.789648 280.636117 
L 361.114627 281.985969 
L 361.439607 280.999458 
L 361.764586 281.923112 
L 362.089566 281.448135 
L 362.414545 281.724098 
L 362.739525 281.666993 
L 363.064505 281.261898 
L 363.389484 281.465486 
L 363.714464 282.077909 
L 364.039443 281.166112 
L 364.364423 281.452431 
L 364.689402 281.335065 
L 365.014382 281.832469 
L 365.339361 281.848205 
L 365.664341 282.073989 
L 365.98932 280.204712 
L 366.3143 280.552714 
L 366.639279 281.595059 
L 366.964259 280.942416 
L 367.289238 281.389085 
L 367.614218 280.824546 
L 367.939197 280.570955 
L 368.264177 281.598858 
L 368.589156 281.537431 
L 368.914136 280.659216 
L 369.239115 280.817478 
L 369.564095 281.627895 
L 369.889075 281.185177 
L 370.214054 280.515193 
L 370.539034 281.564514 
L 370.864013 280.394413 
L 371.188993 281.643423 
L 371.513972 280.658423 
L 371.838952 281.38705 
L 372.163931 280.95647 
L 372.488911 281.600506 
L 372.81389 280.832078 
L 373.13887 281.174717 
L 373.463849 281.291768 
L 373.788829 281.096783 
L 374.113808 281.510615 
L 374.438788 281.263374 
L 375.088747 281.098877 
L 375.738706 280.850405 
L 376.063686 281.744993 
L 376.713645 281.0355 
L 377.038624 281.583672 
L 377.363604 281.053957 
L 378.013563 281.336124 
L 378.338542 280.896382 
L 378.663522 281.525883 
L 379.313481 280.966491 
L 379.63846 281.726019 
L 379.96344 280.764462 
L 380.288419 281.73593 
L 380.613399 281.106827 
L 380.938378 281.733235 
L 381.263358 281.157814 
L 381.588337 281.059838 
L 381.913317 281.798419 
L 382.238296 281.407587 
L 382.563276 281.516207 
L 382.888256 280.840202 
L 383.213235 281.779808 
L 383.538215 281.314319 
L 384.188174 281.427933 
L 384.513153 281.723856 
L 384.838133 281.774296 
L 385.163112 281.198801 
L 385.488092 281.799725 
L 385.813071 281.127197 
L 386.138051 280.963613 
L 386.46303 281.809942 
L 386.78801 281.098552 
L 387.112989 281.859388 
L 387.437969 281.228856 
L 387.762948 281.555346 
L 388.087928 281.662512 
L 388.412907 281.500838 
L 388.737887 281.651145 
L 389.062867 280.729827 
L 389.387846 281.816268 
L 389.712826 281.694596 
L 390.037805 281.335046 
L 390.362785 281.848383 
L 390.687764 280.733141 
L 391.012744 281.834046 
L 391.337723 280.935949 
L 391.662703 281.837135 
L 391.987682 281.250419 
L 392.312662 281.86245 
L 392.637641 281.373196 
L 392.962621 281.201528 
L 393.2876 281.884681 
L 393.937559 281.302565 
L 394.262539 281.182172 
L 394.587518 282.017678 
L 395.237477 281.352294 
L 395.562457 281.568833 
L 396.212416 281.250651 
L 396.537396 281.919899 
L 396.862375 280.994857 
L 397.187355 281.905477 
L 397.512334 281.112646 
L 397.837314 281.902582 
L 398.162293 281.433409 
L 398.487273 281.760072 
L 398.487273 281.760072 
" clip-path="url(#p17966a41e6)" style="fill: none; stroke: #1f77b4; stroke-width: 1.5; stroke-linecap: square"/>
   </g>
   <g id="patch_3">
    <path d="M 57.6 307.584 
L 57.6 41.472 
" style="fill: none; stroke: #000000; stroke-width: 0.8; stroke-linejoin: miter; stroke-linecap: square"/>
   </g>
   <g id="patch_4">
    <path d="M 414.72 307.584 
L 414.72 41.472 
" style="fill: none; stroke: #000000; stroke-width: 0.8; stroke-linejoin: miter; stroke-linecap: square"/>
   </g>
   <g id="patch_5">
    <path d="M 57.6 307.584 
L 414.72 307.584 
" style="fill: none; stroke: #000000; stroke-width: 0.8; stroke-linejoin: miter; stroke-linecap: square"/>
   </g>
   <g id="patch_6">
    <path d="M 57.6 41.472 
L 414.72 41.472 
" style="fill: none; stroke: #000000; stroke-width: 0.8; stroke-linejoin: miter; stroke-linecap: square"/>
   </g>
   <g id="legend_1">
    <g id="patch_7">
     <path d="M 356.404375 64.150125 
L 407.72 64.150125 
Q 409.72 64.150125 409.72 62.150125 
L 409.72 48.472 
Q 409.72 46.472 407.72 46.472 
L 356.404375 46.472 
Q 354.404375 46.472 354.404375 48.472 
L 354.404375 62.150125 
Q 354.404375 64.150125 356.404375 64.150125 
z
" style="fill: #ffffff; opacity: 0.8; stroke: #cccccc; stroke-linejoin: miter"/>
    </g>
    <g id="line2d_17">
     <path d="M 358.404375 54.570438 
L 368.404375 54.570438 
L 378.404375 54.570438 
" style="fill: none; stroke: #1f77b4; stroke-width: 1.5; stroke-linecap: square"/>
    </g>
    <g id="text_8">
     <!-- loss -->
     <g transform="translate(386.404375 58.070438) scale(0.1 -0.1)">
      <defs>
       <path id="DejaVuSans-6c" d="M 603 4863 
L 1178 4863 
L 1178 0 
L 603 0 
L 603 4863 
z
" transform="scale(0.015625)"/>
       <path id="DejaVuSans-6f" d="M 1959 3097 
Q 1497 3097 1228 2736 
Q 959 2375 959 1747 
Q 959 1119 1226 758 
Q 1494 397 1959 397 
Q 2419 397 2687 759 
Q 2956 1122 2956 1747 
Q 2956 2369 2687 2733 
Q 2419 3097 1959 3097 
z
M 1959 3584 
Q 2709 3584 3137 3096 
Q 3566 2609 3566 1747 
Q 3566 888 3137 398 
Q 2709 -91 1959 -91 
Q 1206 -91 779 398 
Q 353 888 353 1747 
Q 353 2609 779 3096 
Q 1206 3584 1959 3584 
z
" transform="scale(0.015625)"/>
       <path id="DejaVuSans-73" d="M 2834 3397 
L 2834 2853 
Q 2591 2978 2328 3040 
Q 2066 3103 1784 3103 
Q 1356 3103 1142 2972 
Q 928 2841 928 2578 
Q 928 2378 1081 2264 
Q 1234 2150 1697 2047 
L 1894 2003 
Q 2506 1872 2764 1633 
Q 3022 1394 3022 966 
Q 3022 478 2636 193 
Q 2250 -91 1575 -91 
Q 1294 -91 989 -36 
Q 684 19 347 128 
L 347 722 
Q 666 556 975 473 
Q 1284 391 1588 391 
Q 1994 391 2212 530 
Q 2431 669 2431 922 
Q 2431 1156 2273 1281 
Q 2116 1406 1581 1522 
L 1381 1569 
Q 847 1681 609 1914 
Q 372 2147 372 2553 
Q 372 3047 722 3315 
Q 1072 3584 1716 3584 
Q 2034 3584 2315 3537 
Q 2597 3491 2834 3397 
z
" transform="scale(0.015625)"/>
      </defs>
      <use xlink:href="#DejaVuSans-6c"/>
      <use xlink:href="#DejaVuSans-6f" x="27.783203"/>
      <use xlink:href="#DejaVuSans-73" x="88.964844"/>
      <use xlink:href="#DejaVuSans-73" x="141.064453"/>
     </g>
    </g>
   </g>
  </g>
 </g>
 <defs>
  <clipPath id="p17966a41e6">
   <rect x="57.6" y="41.472" width="357.12" height="266.112"/>
  </clipPath>
 </defs>
</svg>
