<?xml version="1.0" encoding="utf-8" standalone="no"?>
<!DOCTYPE svg PUBLIC "-//W3C//DTD SVG 1.1//EN"
  "http://www.w3.org/Graphics/SVG/1.1/DTD/svg11.dtd">
<svg xmlns:xlink="http://www.w3.org/1999/xlink" width="460.8pt" height="345.6pt" viewBox="0 0 460.8 345.6" xmlns="http://www.w3.org/2000/svg" version="1.1">
 <metadata>
  <rdf:RDF xmlns:dc="http://purl.org/dc/elements/1.1/" xmlns:cc="http://creativecommons.org/ns#" xmlns:rdf="http://www.w3.org/1999/02/22-rdf-syntax-ns#">
   <cc:Work>
    <dc:type rdf:resource="http://purl.org/dc/dcmitype/StillImage"/>
    <dc:date>2023-06-15T16:14:27.408055</dc:date>
    <dc:format>image/svg+xml</dc:format>
    <dc:creator>
     <cc:Agent>
      <dc:title>Matplotlib v3.7.0, https://matplotlib.org/</dc:title>
     </cc:Agent>
    </dc:creator>
   </cc:Work>
  </rdf:RDF>
 </metadata>
 <defs>
  <style type="text/css">*{stroke-linejoin: round; stroke-linecap: butt}</style>
 </defs>
 <g id="figure_1">
  <g id="patch_1">
   <path d="M 0 345.6 
L 460.8 345.6 
L 460.8 0 
L 0 0 
z
" style="fill: #ffffff"/>
  </g>
  <g id="axes_1">
   <g id="patch_2">
    <path d="M 57.6 307.584 
L 414.72 307.584 
L 414.72 41.472 
L 57.6 41.472 
z
" style="fill: #ffffff"/>
   </g>
   <g id="matplotlib.axis_1">
    <g id="xtick_1">
     <g id="line2d_1">
      <defs>
       <path id="m63ae3d07bd" d="M 0 0 
L 0 3.5 
" style="stroke: #000000; stroke-width: 0.8"/>
      </defs>
      <g>
       <use xlink:href="#m63ae3d07bd" x="73.796459" y="307.584" style="stroke: #000000; stroke-width: 0.8"/>
      </g>
     </g>
     <g id="text_1">
      <!-- 0 -->
      <g transform="translate(70.615209 322.182437) scale(0.1 -0.1)">
       <defs>
        <path id="DejaVuSans-30" d="M 2034 4250 
Q 1547 4250 1301 3770 
Q 1056 3291 1056 2328 
Q 1056 1369 1301 889 
Q 1547 409 2034 409 
Q 2525 409 2770 889 
Q 3016 1369 3016 2328 
Q 3016 3291 2770 3770 
Q 2525 4250 2034 4250 
z
M 2034 4750 
Q 2819 4750 3233 4129 
Q 3647 3509 3647 2328 
Q 3647 1150 3233 529 
Q 2819 -91 2034 -91 
Q 1250 -91 836 529 
Q 422 1150 422 2328 
Q 422 3509 836 4129 
Q 1250 4750 2034 4750 
z
" transform="scale(0.015625)"/>
       </defs>
       <use xlink:href="#DejaVuSans-30"/>
      </g>
     </g>
    </g>
    <g id="xtick_2">
     <g id="line2d_2">
      <g>
       <use xlink:href="#m63ae3d07bd" x="138.330228" y="307.584" style="stroke: #000000; stroke-width: 0.8"/>
      </g>
     </g>
     <g id="text_2">
      <!-- 1000 -->
      <g transform="translate(125.605228 322.182437) scale(0.1 -0.1)">
       <defs>
        <path id="DejaVuSans-31" d="M 794 531 
L 1825 531 
L 1825 4091 
L 703 3866 
L 703 4441 
L 1819 4666 
L 2450 4666 
L 2450 531 
L 3481 531 
L 3481 0 
L 794 0 
L 794 531 
z
" transform="scale(0.015625)"/>
       </defs>
       <use xlink:href="#DejaVuSans-31"/>
       <use xlink:href="#DejaVuSans-30" x="63.623047"/>
       <use xlink:href="#DejaVuSans-30" x="127.246094"/>
       <use xlink:href="#DejaVuSans-30" x="190.869141"/>
      </g>
     </g>
    </g>
    <g id="xtick_3">
     <g id="line2d_3">
      <g>
       <use xlink:href="#m63ae3d07bd" x="202.863998" y="307.584" style="stroke: #000000; stroke-width: 0.8"/>
      </g>
     </g>
     <g id="text_3">
      <!-- 2000 -->
      <g transform="translate(190.138998 322.182437) scale(0.1 -0.1)">
       <defs>
        <path id="DejaVuSans-32" d="M 1228 531 
L 3431 531 
L 3431 0 
L 469 0 
L 469 531 
Q 828 903 1448 1529 
Q 2069 2156 2228 2338 
Q 2531 2678 2651 2914 
Q 2772 3150 2772 3378 
Q 2772 3750 2511 3984 
Q 2250 4219 1831 4219 
Q 1534 4219 1204 4116 
Q 875 4013 500 3803 
L 500 4441 
Q 881 4594 1212 4672 
Q 1544 4750 1819 4750 
Q 2544 4750 2975 4387 
Q 3406 4025 3406 3419 
Q 3406 3131 3298 2873 
Q 3191 2616 2906 2266 
Q 2828 2175 2409 1742 
Q 1991 1309 1228 531 
z
" transform="scale(0.015625)"/>
       </defs>
       <use xlink:href="#DejaVuSans-32"/>
       <use xlink:href="#DejaVuSans-30" x="63.623047"/>
       <use xlink:href="#DejaVuSans-30" x="127.246094"/>
       <use xlink:href="#DejaVuSans-30" x="190.869141"/>
      </g>
     </g>
    </g>
    <g id="xtick_4">
     <g id="line2d_4">
      <g>
       <use xlink:href="#m63ae3d07bd" x="267.397767" y="307.584" style="stroke: #000000; stroke-width: 0.8"/>
      </g>
     </g>
     <g id="text_4">
      <!-- 3000 -->
      <g transform="translate(254.672767 322.182437) scale(0.1 -0.1)">
       <defs>
        <path id="DejaVuSans-33" d="M 2597 2516 
Q 3050 2419 3304 2112 
Q 3559 1806 3559 1356 
Q 3559 666 3084 287 
Q 2609 -91 1734 -91 
Q 1441 -91 1130 -33 
Q 819 25 488 141 
L 488 750 
Q 750 597 1062 519 
Q 1375 441 1716 441 
Q 2309 441 2620 675 
Q 2931 909 2931 1356 
Q 2931 1769 2642 2001 
Q 2353 2234 1838 2234 
L 1294 2234 
L 1294 2753 
L 1863 2753 
Q 2328 2753 2575 2939 
Q 2822 3125 2822 3475 
Q 2822 3834 2567 4026 
Q 2313 4219 1838 4219 
Q 1578 4219 1281 4162 
Q 984 4106 628 3988 
L 628 4550 
Q 988 4650 1302 4700 
Q 1616 4750 1894 4750 
Q 2613 4750 3031 4423 
Q 3450 4097 3450 3541 
Q 3450 3153 3228 2886 
Q 3006 2619 2597 2516 
z
" transform="scale(0.015625)"/>
       </defs>
       <use xlink:href="#DejaVuSans-33"/>
       <use xlink:href="#DejaVuSans-30" x="63.623047"/>
       <use xlink:href="#DejaVuSans-30" x="127.246094"/>
       <use xlink:href="#DejaVuSans-30" x="190.869141"/>
      </g>
     </g>
    </g>
    <g id="xtick_5">
     <g id="line2d_5">
      <g>
       <use xlink:href="#m63ae3d07bd" x="331.931536" y="307.584" style="stroke: #000000; stroke-width: 0.8"/>
      </g>
     </g>
     <g id="text_5">
      <!-- 4000 -->
      <g transform="translate(319.206536 322.182437) scale(0.1 -0.1)">
       <defs>
        <path id="DejaVuSans-34" d="M 2419 4116 
L 825 1625 
L 2419 1625 
L 2419 4116 
z
M 2253 4666 
L 3047 4666 
L 3047 1625 
L 3713 1625 
L 3713 1100 
L 3047 1100 
L 3047 0 
L 2419 0 
L 2419 1100 
L 313 1100 
L 313 1709 
L 2253 4666 
z
" transform="scale(0.015625)"/>
       </defs>
       <use xlink:href="#DejaVuSans-34"/>
       <use xlink:href="#DejaVuSans-30" x="63.623047"/>
       <use xlink:href="#DejaVuSans-30" x="127.246094"/>
       <use xlink:href="#DejaVuSans-30" x="190.869141"/>
      </g>
     </g>
    </g>
    <g id="xtick_6">
     <g id="line2d_6">
      <g>
       <use xlink:href="#m63ae3d07bd" x="396.465305" y="307.584" style="stroke: #000000; stroke-width: 0.8"/>
      </g>
     </g>
     <g id="text_6">
      <!-- 5000 -->
      <g transform="translate(383.740305 322.182437) scale(0.1 -0.1)">
       <defs>
        <path id="DejaVuSans-35" d="M 691 4666 
L 3169 4666 
L 3169 4134 
L 1269 4134 
L 1269 2991 
Q 1406 3038 1543 3061 
Q 1681 3084 1819 3084 
Q 2600 3084 3056 2656 
Q 3513 2228 3513 1497 
Q 3513 744 3044 326 
Q 2575 -91 1722 -91 
Q 1428 -91 1123 -41 
Q 819 9 494 109 
L 494 744 
Q 775 591 1075 516 
Q 1375 441 1709 441 
Q 2250 441 2565 725 
Q 2881 1009 2881 1497 
Q 2881 1984 2565 2268 
Q 2250 2553 1709 2553 
Q 1456 2553 1204 2497 
Q 953 2441 691 2322 
L 691 4666 
z
" transform="scale(0.015625)"/>
       </defs>
       <use xlink:href="#DejaVuSans-35"/>
       <use xlink:href="#DejaVuSans-30" x="63.623047"/>
       <use xlink:href="#DejaVuSans-30" x="127.246094"/>
       <use xlink:href="#DejaVuSans-30" x="190.869141"/>
      </g>
     </g>
    </g>
    <g id="text_7">
     <!-- data -->
     <g transform="translate(224.8975 335.860562) scale(0.1 -0.1)">
      <defs>
       <path id="DejaVuSans-64" d="M 2906 2969 
L 2906 4863 
L 3481 4863 
L 3481 0 
L 2906 0 
L 2906 525 
Q 2725 213 2448 61 
Q 2172 -91 1784 -91 
Q 1150 -91 751 415 
Q 353 922 353 1747 
Q 353 2572 751 3078 
Q 1150 3584 1784 3584 
Q 2172 3584 2448 3432 
Q 2725 3281 2906 2969 
z
M 947 1747 
Q 947 1113 1208 752 
Q 1469 391 1925 391 
Q 2381 391 2643 752 
Q 2906 1113 2906 1747 
Q 2906 2381 2643 2742 
Q 2381 3103 1925 3103 
Q 1469 3103 1208 2742 
Q 947 2381 947 1747 
z
" transform="scale(0.015625)"/>
       <path id="DejaVuSans-61" d="M 2194 1759 
Q 1497 1759 1228 1600 
Q 959 1441 959 1056 
Q 959 750 1161 570 
Q 1363 391 1709 391 
Q 2188 391 2477 730 
Q 2766 1069 2766 1631 
L 2766 1759 
L 2194 1759 
z
M 3341 1997 
L 3341 0 
L 2766 0 
L 2766 531 
Q 2569 213 2275 61 
Q 1981 -91 1556 -91 
Q 1019 -91 701 211 
Q 384 513 384 1019 
Q 384 1609 779 1909 
Q 1175 2209 1959 2209 
L 2766 2209 
L 2766 2266 
Q 2766 2663 2505 2880 
Q 2244 3097 1772 3097 
Q 1472 3097 1187 3025 
Q 903 2953 641 2809 
L 641 3341 
Q 956 3463 1253 3523 
Q 1550 3584 1831 3584 
Q 2591 3584 2966 3190 
Q 3341 2797 3341 1997 
z
" transform="scale(0.015625)"/>
       <path id="DejaVuSans-74" d="M 1172 4494 
L 1172 3500 
L 2356 3500 
L 2356 3053 
L 1172 3053 
L 1172 1153 
Q 1172 725 1289 603 
Q 1406 481 1766 481 
L 2356 481 
L 2356 0 
L 1766 0 
Q 1100 0 847 248 
Q 594 497 594 1153 
L 594 3053 
L 172 3053 
L 172 3500 
L 594 3500 
L 594 4494 
L 1172 4494 
z
" transform="scale(0.015625)"/>
      </defs>
      <use xlink:href="#DejaVuSans-64"/>
      <use xlink:href="#DejaVuSans-61" x="63.476562"/>
      <use xlink:href="#DejaVuSans-74" x="124.755859"/>
      <use xlink:href="#DejaVuSans-61" x="163.964844"/>
     </g>
    </g>
   </g>
   <g id="matplotlib.axis_2">
    <g id="ytick_1">
     <g id="line2d_7">
      <defs>
       <path id="m6bc140bdf7" d="M 0 0 
L -3.5 0 
" style="stroke: #000000; stroke-width: 0.8"/>
      </defs>
      <g>
       <use xlink:href="#m6bc140bdf7" x="57.6" y="288.097208" style="stroke: #000000; stroke-width: 0.8"/>
      </g>
     </g>
     <g id="text_8">
      <!-- 4.8 -->
      <g transform="translate(34.696875 291.896427) scale(0.1 -0.1)">
       <defs>
        <path id="DejaVuSans-2e" d="M 684 794 
L 1344 794 
L 1344 0 
L 684 0 
L 684 794 
z
" transform="scale(0.015625)"/>
        <path id="DejaVuSans-38" d="M 2034 2216 
Q 1584 2216 1326 1975 
Q 1069 1734 1069 1313 
Q 1069 891 1326 650 
Q 1584 409 2034 409 
Q 2484 409 2743 651 
Q 3003 894 3003 1313 
Q 3003 1734 2745 1975 
Q 2488 2216 2034 2216 
z
M 1403 2484 
Q 997 2584 770 2862 
Q 544 3141 544 3541 
Q 544 4100 942 4425 
Q 1341 4750 2034 4750 
Q 2731 4750 3128 4425 
Q 3525 4100 3525 3541 
Q 3525 3141 3298 2862 
Q 3072 2584 2669 2484 
Q 3125 2378 3379 2068 
Q 3634 1759 3634 1313 
Q 3634 634 3220 271 
Q 2806 -91 2034 -91 
Q 1263 -91 848 271 
Q 434 634 434 1313 
Q 434 1759 690 2068 
Q 947 2378 1403 2484 
z
M 1172 3481 
Q 1172 3119 1398 2916 
Q 1625 2713 2034 2713 
Q 2441 2713 2670 2916 
Q 2900 3119 2900 3481 
Q 2900 3844 2670 4047 
Q 2441 4250 2034 4250 
Q 1625 4250 1398 4047 
Q 1172 3844 1172 3481 
z
" transform="scale(0.015625)"/>
       </defs>
       <use xlink:href="#DejaVuSans-34"/>
       <use xlink:href="#DejaVuSans-2e" x="63.623047"/>
       <use xlink:href="#DejaVuSans-38" x="95.410156"/>
      </g>
     </g>
    </g>
    <g id="ytick_2">
     <g id="line2d_8">
      <g>
       <use xlink:href="#m6bc140bdf7" x="57.6" y="244.877773" style="stroke: #000000; stroke-width: 0.8"/>
      </g>
     </g>
     <g id="text_9">
      <!-- 4.9 -->
      <g transform="translate(34.696875 248.676992) scale(0.1 -0.1)">
       <defs>
        <path id="DejaVuSans-39" d="M 703 97 
L 703 672 
Q 941 559 1184 500 
Q 1428 441 1663 441 
Q 2288 441 2617 861 
Q 2947 1281 2994 2138 
Q 2813 1869 2534 1725 
Q 2256 1581 1919 1581 
Q 1219 1581 811 2004 
Q 403 2428 403 3163 
Q 403 3881 828 4315 
Q 1253 4750 1959 4750 
Q 2769 4750 3195 4129 
Q 3622 3509 3622 2328 
Q 3622 1225 3098 567 
Q 2575 -91 1691 -91 
Q 1453 -91 1209 -44 
Q 966 3 703 97 
z
M 1959 2075 
Q 2384 2075 2632 2365 
Q 2881 2656 2881 3163 
Q 2881 3666 2632 3958 
Q 2384 4250 1959 4250 
Q 1534 4250 1286 3958 
Q 1038 3666 1038 3163 
Q 1038 2656 1286 2365 
Q 1534 2075 1959 2075 
z
" transform="scale(0.015625)"/>
       </defs>
       <use xlink:href="#DejaVuSans-34"/>
       <use xlink:href="#DejaVuSans-2e" x="63.623047"/>
       <use xlink:href="#DejaVuSans-39" x="95.410156"/>
      </g>
     </g>
    </g>
    <g id="ytick_3">
     <g id="line2d_9">
      <g>
       <use xlink:href="#m6bc140bdf7" x="57.6" y="201.658338" style="stroke: #000000; stroke-width: 0.8"/>
      </g>
     </g>
     <g id="text_10">
      <!-- 5.0 -->
      <g transform="translate(34.696875 205.457556) scale(0.1 -0.1)">
       <use xlink:href="#DejaVuSans-35"/>
       <use xlink:href="#DejaVuSans-2e" x="63.623047"/>
       <use xlink:href="#DejaVuSans-30" x="95.410156"/>
      </g>
     </g>
    </g>
    <g id="ytick_4">
     <g id="line2d_10">
      <g>
       <use xlink:href="#m6bc140bdf7" x="57.6" y="158.438902" style="stroke: #000000; stroke-width: 0.8"/>
      </g>
     </g>
     <g id="text_11">
      <!-- 5.1 -->
      <g transform="translate(34.696875 162.238121) scale(0.1 -0.1)">
       <use xlink:href="#DejaVuSans-35"/>
       <use xlink:href="#DejaVuSans-2e" x="63.623047"/>
       <use xlink:href="#DejaVuSans-31" x="95.410156"/>
      </g>
     </g>
    </g>
    <g id="ytick_5">
     <g id="line2d_11">
      <g>
       <use xlink:href="#m6bc140bdf7" x="57.6" y="115.219467" style="stroke: #000000; stroke-width: 0.8"/>
      </g>
     </g>
     <g id="text_12">
      <!-- 5.2 -->
      <g transform="translate(34.696875 119.018686) scale(0.1 -0.1)">
       <use xlink:href="#DejaVuSans-35"/>
       <use xlink:href="#DejaVuSans-2e" x="63.623047"/>
       <use xlink:href="#DejaVuSans-32" x="95.410156"/>
      </g>
     </g>
    </g>
    <g id="ytick_6">
     <g id="line2d_12">
      <g>
       <use xlink:href="#m6bc140bdf7" x="57.6" y="72.000031" style="stroke: #000000; stroke-width: 0.8"/>
      </g>
     </g>
     <g id="text_13">
      <!-- 5.3 -->
      <g transform="translate(34.696875 75.79925) scale(0.1 -0.1)">
       <use xlink:href="#DejaVuSans-35"/>
       <use xlink:href="#DejaVuSans-2e" x="63.623047"/>
       <use xlink:href="#DejaVuSans-33" x="95.410156"/>
      </g>
     </g>
    </g>
    <g id="text_14">
     <!-- model -->
     <g transform="translate(28.617187 190.097531) rotate(-90) scale(0.1 -0.1)">
      <defs>
       <path id="DejaVuSans-6d" d="M 3328 2828 
Q 3544 3216 3844 3400 
Q 4144 3584 4550 3584 
Q 5097 3584 5394 3201 
Q 5691 2819 5691 2113 
L 5691 0 
L 5113 0 
L 5113 2094 
Q 5113 2597 4934 2840 
Q 4756 3084 4391 3084 
Q 3944 3084 3684 2787 
Q 3425 2491 3425 1978 
L 3425 0 
L 2847 0 
L 2847 2094 
Q 2847 2600 2669 2842 
Q 2491 3084 2119 3084 
Q 1678 3084 1418 2786 
Q 1159 2488 1159 1978 
L 1159 0 
L 581 0 
L 581 3500 
L 1159 3500 
L 1159 2956 
Q 1356 3278 1631 3431 
Q 1906 3584 2284 3584 
Q 2666 3584 2933 3390 
Q 3200 3197 3328 2828 
z
" transform="scale(0.015625)"/>
       <path id="DejaVuSans-6f" d="M 1959 3097 
Q 1497 3097 1228 2736 
Q 959 2375 959 1747 
Q 959 1119 1226 758 
Q 1494 397 1959 397 
Q 2419 397 2687 759 
Q 2956 1122 2956 1747 
Q 2956 2369 2687 2733 
Q 2419 3097 1959 3097 
z
M 1959 3584 
Q 2709 3584 3137 3096 
Q 3566 2609 3566 1747 
Q 3566 888 3137 398 
Q 2709 -91 1959 -91 
Q 1206 -91 779 398 
Q 353 888 353 1747 
Q 353 2609 779 3096 
Q 1206 3584 1959 3584 
z
" transform="scale(0.015625)"/>
       <path id="DejaVuSans-65" d="M 3597 1894 
L 3597 1613 
L 953 1613 
Q 991 1019 1311 708 
Q 1631 397 2203 397 
Q 2534 397 2845 478 
Q 3156 559 3463 722 
L 3463 178 
Q 3153 47 2828 -22 
Q 2503 -91 2169 -91 
Q 1331 -91 842 396 
Q 353 884 353 1716 
Q 353 2575 817 3079 
Q 1281 3584 2069 3584 
Q 2775 3584 3186 3129 
Q 3597 2675 3597 1894 
z
M 3022 2063 
Q 3016 2534 2758 2815 
Q 2500 3097 2075 3097 
Q 1594 3097 1305 2825 
Q 1016 2553 972 2059 
L 3022 2063 
z
" transform="scale(0.015625)"/>
       <path id="DejaVuSans-6c" d="M 603 4863 
L 1178 4863 
L 1178 0 
L 603 0 
L 603 4863 
z
" transform="scale(0.015625)"/>
      </defs>
      <use xlink:href="#DejaVuSans-6d"/>
      <use xlink:href="#DejaVuSans-6f" x="97.412109"/>
      <use xlink:href="#DejaVuSans-64" x="158.59375"/>
      <use xlink:href="#DejaVuSans-65" x="222.070312"/>
      <use xlink:href="#DejaVuSans-6c" x="283.59375"/>
     </g>
    </g>
   </g>
   <g id="line2d_13">
    <defs>
     <path id="ma0bee811ee" d="M 0 3 
C 0.795609 3 1.55874 2.683901 2.12132 2.12132 
C 2.683901 1.55874 3 0.795609 3 0 
C 3 -0.795609 2.683901 -1.55874 2.12132 -2.12132 
C 1.55874 -2.683901 0.795609 -3 0 -3 
C -0.795609 -3 -1.55874 -2.683901 -2.12132 -2.12132 
C -2.683901 -1.55874 -3 -0.795609 -3 0 
C -3 0.795609 -2.683901 1.55874 -2.12132 2.12132 
C -1.55874 2.683901 -0.795609 3 0 3 
z
" style="stroke: #0000ff"/>
    </defs>
    <g clip-path="url(#pb84064f8fa)">
     <use xlink:href="#ma0bee811ee" x="73.832727" y="295.488" style="fill: #ffffff; stroke: #0000ff"/>
     <use xlink:href="#ma0bee811ee" x="73.878421" y="295.123227" style="fill: #ffffff; stroke: #0000ff"/>
     <use xlink:href="#ma0bee811ee" x="73.917286" y="294.51486" style="fill: #ffffff; stroke: #0000ff"/>
     <use xlink:href="#ma0bee811ee" x="73.958498" y="289.052336" style="fill: #ffffff; stroke: #0000ff"/>
     <use xlink:href="#ma0bee811ee" x="73.997019" y="288.260965" style="fill: #ffffff; stroke: #0000ff"/>
     <use xlink:href="#ma0bee811ee" x="74.037899" y="288.024378" style="fill: #ffffff; stroke: #0000ff"/>
     <use xlink:href="#ma0bee811ee" x="74.076542" y="286.829489" style="fill: #ffffff; stroke: #0000ff"/>
     <use xlink:href="#ma0bee811ee" x="74.104626" y="286.423087" style="fill: #ffffff; stroke: #0000ff"/>
     <use xlink:href="#ma0bee811ee" x="74.129092" y="285.791844" style="fill: #ffffff; stroke: #0000ff"/>
     <use xlink:href="#ma0bee811ee" x="74.157811" y="284.93638" style="fill: #ffffff; stroke: #0000ff"/>
     <use xlink:href="#ma0bee811ee" x="74.199069" y="284.294421" style="fill: #ffffff; stroke: #0000ff"/>
     <use xlink:href="#ma0bee811ee" x="74.234958" y="283.797135" style="fill: #ffffff; stroke: #0000ff"/>
     <use xlink:href="#ma0bee811ee" x="74.25703" y="282.283019" style="fill: #ffffff; stroke: #0000ff"/>
     <use xlink:href="#ma0bee811ee" x="74.281153" y="276.42893" style="fill: #ffffff; stroke: #0000ff"/>
     <use xlink:href="#ma0bee811ee" x="74.311778" y="274.949024" style="fill: #ffffff; stroke: #0000ff"/>
     <use xlink:href="#ma0bee811ee" x="74.346975" y="274.417322" style="fill: #ffffff; stroke: #0000ff"/>
     <use xlink:href="#ma0bee811ee" x="74.378633" y="272.464035" style="fill: #ffffff; stroke: #0000ff"/>
     <use xlink:href="#ma0bee811ee" x="74.410393" y="270.800713" style="fill: #ffffff; stroke: #0000ff"/>
     <use xlink:href="#ma0bee811ee" x="74.446332" y="266.975338" style="fill: #ffffff; stroke: #0000ff"/>
     <use xlink:href="#ma0bee811ee" x="74.492353" y="266.222917" style="fill: #ffffff; stroke: #0000ff"/>
     <use xlink:href="#ma0bee811ee" x="74.544914" y="267.084564" style="fill: #ffffff; stroke: #0000ff"/>
     <use xlink:href="#ma0bee811ee" x="74.601415" y="264.971973" style="fill: #ffffff; stroke: #0000ff"/>
     <use xlink:href="#ma0bee811ee" x="74.662799" y="263.466306" style="fill: #ffffff; stroke: #0000ff"/>
     <use xlink:href="#ma0bee811ee" x="74.734613" y="261.595043" style="fill: #ffffff; stroke: #0000ff"/>
     <use xlink:href="#ma0bee811ee" x="74.813348" y="257.035589" style="fill: #ffffff; stroke: #0000ff"/>
     <use xlink:href="#ma0bee811ee" x="74.903138" y="254.551218" style="fill: #ffffff; stroke: #0000ff"/>
     <use xlink:href="#ma0bee811ee" x="74.9954" y="252.558981" style="fill: #ffffff; stroke: #0000ff"/>
     <use xlink:href="#ma0bee811ee" x="75.11123" y="251.274033" style="fill: #ffffff; stroke: #0000ff"/>
     <use xlink:href="#ma0bee811ee" x="75.235795" y="250.43588" style="fill: #ffffff; stroke: #0000ff"/>
     <use xlink:href="#ma0bee811ee" x="75.361286" y="248.69239" style="fill: #ffffff; stroke: #0000ff"/>
     <use xlink:href="#ma0bee811ee" x="75.491868" y="245.225193" style="fill: #ffffff; stroke: #0000ff"/>
     <use xlink:href="#ma0bee811ee" x="75.6358" y="242.484245" style="fill: #ffffff; stroke: #0000ff"/>
     <use xlink:href="#ma0bee811ee" x="75.797088" y="238.557476" style="fill: #ffffff; stroke: #0000ff"/>
     <use xlink:href="#ma0bee811ee" x="75.966116" y="236.959689" style="fill: #ffffff; stroke: #0000ff"/>
     <use xlink:href="#ma0bee811ee" x="76.136174" y="234.63215" style="fill: #ffffff; stroke: #0000ff"/>
     <use xlink:href="#ma0bee811ee" x="76.313052" y="233.699197" style="fill: #ffffff; stroke: #0000ff"/>
     <use xlink:href="#ma0bee811ee" x="76.50364" y="230.74495" style="fill: #ffffff; stroke: #0000ff"/>
     <use xlink:href="#ma0bee811ee" x="76.724286" y="227.582143" style="fill: #ffffff; stroke: #0000ff"/>
     <use xlink:href="#ma0bee811ee" x="76.960405" y="226.660731" style="fill: #ffffff; stroke: #0000ff"/>
     <use xlink:href="#ma0bee811ee" x="77.201689" y="224.518876" style="fill: #ffffff; stroke: #0000ff"/>
     <use xlink:href="#ma0bee811ee" x="77.437519" y="222.071807" style="fill: #ffffff; stroke: #0000ff"/>
     <use xlink:href="#ma0bee811ee" x="77.695581" y="219.460281" style="fill: #ffffff; stroke: #0000ff"/>
     <use xlink:href="#ma0bee811ee" x="77.965189" y="216.647615" style="fill: #ffffff; stroke: #0000ff"/>
     <use xlink:href="#ma0bee811ee" x="78.251065" y="215.506721" style="fill: #ffffff; stroke: #0000ff"/>
     <use xlink:href="#ma0bee811ee" x="78.554787" y="213.320969" style="fill: #ffffff; stroke: #0000ff"/>
     <use xlink:href="#ma0bee811ee" x="78.869976" y="207.897601" style="fill: #ffffff; stroke: #0000ff"/>
     <use xlink:href="#ma0bee811ee" x="79.201488" y="204.958604" style="fill: #ffffff; stroke: #0000ff"/>
     <use xlink:href="#ma0bee811ee" x="79.544859" y="202.883521" style="fill: #ffffff; stroke: #0000ff"/>
     <use xlink:href="#ma0bee811ee" x="79.899639" y="200.096822" style="fill: #ffffff; stroke: #0000ff"/>
     <use xlink:href="#ma0bee811ee" x="80.270525" y="196.687742" style="fill: #ffffff; stroke: #0000ff"/>
     <use xlink:href="#ma0bee811ee" x="80.65095" y="194.520126" style="fill: #ffffff; stroke: #0000ff"/>
     <use xlink:href="#ma0bee811ee" x="81.041148" y="191.450264" style="fill: #ffffff; stroke: #0000ff"/>
     <use xlink:href="#ma0bee811ee" x="81.432517" y="187.775332" style="fill: #ffffff; stroke: #0000ff"/>
     <use xlink:href="#ma0bee811ee" x="81.829484" y="184.434673" style="fill: #ffffff; stroke: #0000ff"/>
     <use xlink:href="#ma0bee811ee" x="82.234145" y="181.876317" style="fill: #ffffff; stroke: #0000ff"/>
     <use xlink:href="#ma0bee811ee" x="82.650291" y="179.39071" style="fill: #ffffff; stroke: #0000ff"/>
     <use xlink:href="#ma0bee811ee" x="83.069386" y="178.019618" style="fill: #ffffff; stroke: #0000ff"/>
     <use xlink:href="#ma0bee811ee" x="83.489792" y="175.410565" style="fill: #ffffff; stroke: #0000ff"/>
     <use xlink:href="#ma0bee811ee" x="83.915443" y="172.901876" style="fill: #ffffff; stroke: #0000ff"/>
     <use xlink:href="#ma0bee811ee" x="84.344498" y="169.580589" style="fill: #ffffff; stroke: #0000ff"/>
     <use xlink:href="#ma0bee811ee" x="84.774981" y="166.595428" style="fill: #ffffff; stroke: #0000ff"/>
     <use xlink:href="#ma0bee811ee" x="85.202524" y="163.184699" style="fill: #ffffff; stroke: #0000ff"/>
     <use xlink:href="#ma0bee811ee" x="85.636044" y="161.861625" style="fill: #ffffff; stroke: #0000ff"/>
     <use xlink:href="#ma0bee811ee" x="86.073176" y="157.645511" style="fill: #ffffff; stroke: #0000ff"/>
     <use xlink:href="#ma0bee811ee" x="86.511735" y="155.385156" style="fill: #ffffff; stroke: #0000ff"/>
     <use xlink:href="#ma0bee811ee" x="86.95366" y="154.224478" style="fill: #ffffff; stroke: #0000ff"/>
     <use xlink:href="#ma0bee811ee" x="87.39712" y="151.428711" style="fill: #ffffff; stroke: #0000ff"/>
     <use xlink:href="#ma0bee811ee" x="87.854057" y="148.046834" style="fill: #ffffff; stroke: #0000ff"/>
     <use xlink:href="#ma0bee811ee" x="88.324137" y="145.255189" style="fill: #ffffff; stroke: #0000ff"/>
     <use xlink:href="#ma0bee811ee" x="88.800174" y="143.364965" style="fill: #ffffff; stroke: #0000ff"/>
     <use xlink:href="#ma0bee811ee" x="89.277579" y="141.219194" style="fill: #ffffff; stroke: #0000ff"/>
     <use xlink:href="#ma0bee811ee" x="89.763163" y="139.070538" style="fill: #ffffff; stroke: #0000ff"/>
     <use xlink:href="#ma0bee811ee" x="90.265261" y="136.0489" style="fill: #ffffff; stroke: #0000ff"/>
     <use xlink:href="#ma0bee811ee" x="90.781467" y="133.640163" style="fill: #ffffff; stroke: #0000ff"/>
     <use xlink:href="#ma0bee811ee" x="91.298616" y="133.503116" style="fill: #ffffff; stroke: #0000ff"/>
     <use xlink:href="#ma0bee811ee" x="91.817038" y="132.353773" style="fill: #ffffff; stroke: #0000ff"/>
     <use xlink:href="#ma0bee811ee" x="92.346481" y="129.864868" style="fill: #ffffff; stroke: #0000ff"/>
     <use xlink:href="#ma0bee811ee" x="92.889336" y="128.357347" style="fill: #ffffff; stroke: #0000ff"/>
     <use xlink:href="#ma0bee811ee" x="93.445915" y="126.053095" style="fill: #ffffff; stroke: #0000ff"/>
     <use xlink:href="#ma0bee811ee" x="94.004083" y="123.497213" style="fill: #ffffff; stroke: #0000ff"/>
     <use xlink:href="#ma0bee811ee" x="94.566501" y="122.518509" style="fill: #ffffff; stroke: #0000ff"/>
     <use xlink:href="#ma0bee811ee" x="95.148038" y="120.140066" style="fill: #ffffff; stroke: #0000ff"/>
     <use xlink:href="#ma0bee811ee" x="95.741253" y="117.988319" style="fill: #ffffff; stroke: #0000ff"/>
     <use xlink:href="#ma0bee811ee" x="96.336376" y="115.951774" style="fill: #ffffff; stroke: #0000ff"/>
     <use xlink:href="#ma0bee811ee" x="96.930843" y="114.294428" style="fill: #ffffff; stroke: #0000ff"/>
     <use xlink:href="#ma0bee811ee" x="97.539028" y="113.063886" style="fill: #ffffff; stroke: #0000ff"/>
     <use xlink:href="#ma0bee811ee" x="98.159045" y="111.995329" style="fill: #ffffff; stroke: #0000ff"/>
     <use xlink:href="#ma0bee811ee" x="98.788115" y="110.128599" style="fill: #ffffff; stroke: #0000ff"/>
     <use xlink:href="#ma0bee811ee" x="99.418293" y="108.058668" style="fill: #ffffff; stroke: #0000ff"/>
     <use xlink:href="#ma0bee811ee" x="100.06036" y="106.535071" style="fill: #ffffff; stroke: #0000ff"/>
     <use xlink:href="#ma0bee811ee" x="100.718262" y="105.702689" style="fill: #ffffff; stroke: #0000ff"/>
     <use xlink:href="#ma0bee811ee" x="101.390395" y="104.305011" style="fill: #ffffff; stroke: #0000ff"/>
     <use xlink:href="#ma0bee811ee" x="102.07374" y="103.398231" style="fill: #ffffff; stroke: #0000ff"/>
     <use xlink:href="#ma0bee811ee" x="102.772529" y="102.065471" style="fill: #ffffff; stroke: #0000ff"/>
     <use xlink:href="#ma0bee811ee" x="103.498241" y="100.684487" style="fill: #ffffff; stroke: #0000ff"/>
     <use xlink:href="#ma0bee811ee" x="104.24631" y="98.792614" style="fill: #ffffff; stroke: #0000ff"/>
     <use xlink:href="#ma0bee811ee" x="105.009087" y="97.86605" style="fill: #ffffff; stroke: #0000ff"/>
     <use xlink:href="#ma0bee811ee" x="105.778328" y="97.16783" style="fill: #ffffff; stroke: #0000ff"/>
     <use xlink:href="#ma0bee811ee" x="106.562453" y="95.484104" style="fill: #ffffff; stroke: #0000ff"/>
     <use xlink:href="#ma0bee811ee" x="107.384468" y="93.996161" style="fill: #ffffff; stroke: #0000ff"/>
     <use xlink:href="#ma0bee811ee" x="108.233987" y="93.051255" style="fill: #ffffff; stroke: #0000ff"/>
     <use xlink:href="#ma0bee811ee" x="109.103742" y="91.656257" style="fill: #ffffff; stroke: #0000ff"/>
     <use xlink:href="#ma0bee811ee" x="109.98835" y="91.016977" style="fill: #ffffff; stroke: #0000ff"/>
     <use xlink:href="#ma0bee811ee" x="110.896548" y="89.866603" style="fill: #ffffff; stroke: #0000ff"/>
     <use xlink:href="#ma0bee811ee" x="111.83033" y="88.995682" style="fill: #ffffff; stroke: #0000ff"/>
     <use xlink:href="#ma0bee811ee" x="112.790158" y="87.908577" style="fill: #ffffff; stroke: #0000ff"/>
     <use xlink:href="#ma0bee811ee" x="113.771424" y="86.367257" style="fill: #ffffff; stroke: #0000ff"/>
     <use xlink:href="#ma0bee811ee" x="114.768104" y="85.170308" style="fill: #ffffff; stroke: #0000ff"/>
     <use xlink:href="#ma0bee811ee" x="115.777824" y="84.124832" style="fill: #ffffff; stroke: #0000ff"/>
     <use xlink:href="#ma0bee811ee" x="116.803169" y="83.187964" style="fill: #ffffff; stroke: #0000ff"/>
     <use xlink:href="#ma0bee811ee" x="117.845376" y="82.691089" style="fill: #ffffff; stroke: #0000ff"/>
     <use xlink:href="#ma0bee811ee" x="118.902083" y="82.10127" style="fill: #ffffff; stroke: #0000ff"/>
     <use xlink:href="#ma0bee811ee" x="119.974573" y="81.49414" style="fill: #ffffff; stroke: #0000ff"/>
     <use xlink:href="#ma0bee811ee" x="121.065473" y="80.674741" style="fill: #ffffff; stroke: #0000ff"/>
     <use xlink:href="#ma0bee811ee" x="122.166808" y="79.779502" style="fill: #ffffff; stroke: #0000ff"/>
     <use xlink:href="#ma0bee811ee" x="123.278604" y="79.003793" style="fill: #ffffff; stroke: #0000ff"/>
     <use xlink:href="#ma0bee811ee" x="124.409452" y="77.835902" style="fill: #ffffff; stroke: #0000ff"/>
     <use xlink:href="#ma0bee811ee" x="125.562038" y="77.093166" style="fill: #ffffff; stroke: #0000ff"/>
     <use xlink:href="#ma0bee811ee" x="126.744864" y="76.055316" style="fill: #ffffff; stroke: #0000ff"/>
     <use xlink:href="#ma0bee811ee" x="127.951661" y="75.528765" style="fill: #ffffff; stroke: #0000ff"/>
     <use xlink:href="#ma0bee811ee" x="129.183857" y="74.588599" style="fill: #ffffff; stroke: #0000ff"/>
     <use xlink:href="#ma0bee811ee" x="130.432336" y="73.869358" style="fill: #ffffff; stroke: #0000ff"/>
     <use xlink:href="#ma0bee811ee" x="131.703621" y="73.123326" style="fill: #ffffff; stroke: #0000ff"/>
     <use xlink:href="#ma0bee811ee" x="133.015612" y="72.576785" style="fill: #ffffff; stroke: #0000ff"/>
     <use xlink:href="#ma0bee811ee" x="134.365759" y="72.154926" style="fill: #ffffff; stroke: #0000ff"/>
     <use xlink:href="#ma0bee811ee" x="135.749359" y="71.75821" style="fill: #ffffff; stroke: #0000ff"/>
     <use xlink:href="#ma0bee811ee" x="137.173114" y="70.820517" style="fill: #ffffff; stroke: #0000ff"/>
     <use xlink:href="#ma0bee811ee" x="138.641182" y="70.308805" style="fill: #ffffff; stroke: #0000ff"/>
     <use xlink:href="#ma0bee811ee" x="140.156844" y="69.629338" style="fill: #ffffff; stroke: #0000ff"/>
     <use xlink:href="#ma0bee811ee" x="141.718262" y="69.218814" style="fill: #ffffff; stroke: #0000ff"/>
     <use xlink:href="#ma0bee811ee" x="143.325597" y="68.568818" style="fill: #ffffff; stroke: #0000ff"/>
     <use xlink:href="#ma0bee811ee" x="144.973176" y="68.016919" style="fill: #ffffff; stroke: #0000ff"/>
     <use xlink:href="#ma0bee811ee" x="146.671134" y="67.414116" style="fill: #ffffff; stroke: #0000ff"/>
     <use xlink:href="#ma0bee811ee" x="148.423313" y="66.919715" style="fill: #ffffff; stroke: #0000ff"/>
     <use xlink:href="#ma0bee811ee" x="150.23328" y="66.299395" style="fill: #ffffff; stroke: #0000ff"/>
     <use xlink:href="#ma0bee811ee" x="152.094004" y="65.930088" style="fill: #ffffff; stroke: #0000ff"/>
     <use xlink:href="#ma0bee811ee" x="154.017515" y="65.597259" style="fill: #ffffff; stroke: #0000ff"/>
     <use xlink:href="#ma0bee811ee" x="156.01397" y="64.909549" style="fill: #ffffff; stroke: #0000ff"/>
     <use xlink:href="#ma0bee811ee" x="158.065063" y="64.202467" style="fill: #ffffff; stroke: #0000ff"/>
     <use xlink:href="#ma0bee811ee" x="160.177355" y="63.831717" style="fill: #ffffff; stroke: #0000ff"/>
     <use xlink:href="#ma0bee811ee" x="162.354613" y="63.478485" style="fill: #ffffff; stroke: #0000ff"/>
     <use xlink:href="#ma0bee811ee" x="164.594534" y="62.908038" style="fill: #ffffff; stroke: #0000ff"/>
     <use xlink:href="#ma0bee811ee" x="166.917357" y="62.513589" style="fill: #ffffff; stroke: #0000ff"/>
     <use xlink:href="#ma0bee811ee" x="169.319254" y="62.029699" style="fill: #ffffff; stroke: #0000ff"/>
     <use xlink:href="#ma0bee811ee" x="171.796241" y="61.686771" style="fill: #ffffff; stroke: #0000ff"/>
     <use xlink:href="#ma0bee811ee" x="174.349388" y="61.485218" style="fill: #ffffff; stroke: #0000ff"/>
     <use xlink:href="#ma0bee811ee" x="176.985604" y="61.116324" style="fill: #ffffff; stroke: #0000ff"/>
     <use xlink:href="#ma0bee811ee" x="179.694227" y="60.622129" style="fill: #ffffff; stroke: #0000ff"/>
     <use xlink:href="#ma0bee811ee" x="182.479686" y="60.279201" style="fill: #ffffff; stroke: #0000ff"/>
     <use xlink:href="#ma0bee811ee" x="185.356074" y="59.953173" style="fill: #ffffff; stroke: #0000ff"/>
     <use xlink:href="#ma0bee811ee" x="188.338137" y="59.70216" style="fill: #ffffff; stroke: #0000ff"/>
     <use xlink:href="#ma0bee811ee" x="191.425793" y="59.449498" style="fill: #ffffff; stroke: #0000ff"/>
     <use xlink:href="#ma0bee811ee" x="194.630193" y="58.985185" style="fill: #ffffff; stroke: #0000ff"/>
     <use xlink:href="#ma0bee811ee" x="197.968138" y="58.804654" style="fill: #ffffff; stroke: #0000ff"/>
     <use xlink:href="#ma0bee811ee" x="201.449822" y="58.549931" style="fill: #ffffff; stroke: #0000ff"/>
     <use xlink:href="#ma0bee811ee" x="205.092367" y="58.327152" style="fill: #ffffff; stroke: #0000ff"/>
     <use xlink:href="#ma0bee811ee" x="208.897755" y="58.082321" style="fill: #ffffff; stroke: #0000ff"/>
     <use xlink:href="#ma0bee811ee" x="212.860093" y="57.766597" style="fill: #ffffff; stroke: #0000ff"/>
     <use xlink:href="#ma0bee811ee" x="216.999917" y="57.443866" style="fill: #ffffff; stroke: #0000ff"/>
     <use xlink:href="#ma0bee811ee" x="221.338858" y="57.246023" style="fill: #ffffff; stroke: #0000ff"/>
     <use xlink:href="#ma0bee811ee" x="225.898191" y="57.058484" style="fill: #ffffff; stroke: #0000ff"/>
     <use xlink:href="#ma0bee811ee" x="230.685092" y="56.743996" style="fill: #ffffff; stroke: #0000ff"/>
     <use xlink:href="#ma0bee811ee" x="235.717885" y="56.539971" style="fill: #ffffff; stroke: #0000ff"/>
     <use xlink:href="#ma0bee811ee" x="241.016581" y="56.212706" style="fill: #ffffff; stroke: #0000ff"/>
     <use xlink:href="#ma0bee811ee" x="246.600991" y="56.100595" style="fill: #ffffff; stroke: #0000ff"/>
     <use xlink:href="#ma0bee811ee" x="252.489038" y="56.071743" style="fill: #ffffff; stroke: #0000ff"/>
     <use xlink:href="#ma0bee811ee" x="258.701477" y="55.922948" style="fill: #ffffff; stroke: #0000ff"/>
     <use xlink:href="#ma0bee811ee" x="265.258384" y="55.701612" style="fill: #ffffff; stroke: #0000ff"/>
     <use xlink:href="#ma0bee811ee" x="272.170613" y="55.470177" style="fill: #ffffff; stroke: #0000ff"/>
     <use xlink:href="#ma0bee811ee" x="279.464557" y="55.300362" style="fill: #ffffff; stroke: #0000ff"/>
     <use xlink:href="#ma0bee811ee" x="287.161409" y="55.108083" style="fill: #ffffff; stroke: #0000ff"/>
     <use xlink:href="#ma0bee811ee" x="295.303254" y="55.009368" style="fill: #ffffff; stroke: #0000ff"/>
     <use xlink:href="#ma0bee811ee" x="303.938002" y="54.881182" style="fill: #ffffff; stroke: #0000ff"/>
     <use xlink:href="#ma0bee811ee" x="313.102243" y="54.726823" style="fill: #ffffff; stroke: #0000ff"/>
     <use xlink:href="#ma0bee811ee" x="322.801281" y="54.51373" style="fill: #ffffff; stroke: #0000ff"/>
     <use xlink:href="#ma0bee811ee" x="332.75108" y="54.34577" style="fill: #ffffff; stroke: #0000ff"/>
     <use xlink:href="#ma0bee811ee" x="342.975412" y="54.146896" style="fill: #ffffff; stroke: #0000ff"/>
     <use xlink:href="#ma0bee811ee" x="353.487187" y="53.988004" style="fill: #ffffff; stroke: #0000ff"/>
     <use xlink:href="#ma0bee811ee" x="364.291109" y="53.890319" style="fill: #ffffff; stroke: #0000ff"/>
     <use xlink:href="#ma0bee811ee" x="375.38188" y="53.811388" style="fill: #ffffff; stroke: #0000ff"/>
     <use xlink:href="#ma0bee811ee" x="386.774649" y="53.645488" style="fill: #ffffff; stroke: #0000ff"/>
     <use xlink:href="#ma0bee811ee" x="398.487273" y="53.568" style="fill: #ffffff; stroke: #0000ff"/>
    </g>
   </g>
   <g id="patch_3">
    <path d="M 57.6 307.584 
L 57.6 41.472 
" style="fill: none; stroke: #000000; stroke-width: 0.8; stroke-linejoin: miter; stroke-linecap: square"/>
   </g>
   <g id="patch_4">
    <path d="M 414.72 307.584 
L 414.72 41.472 
" style="fill: none; stroke: #000000; stroke-width: 0.8; stroke-linejoin: miter; stroke-linecap: square"/>
   </g>
   <g id="patch_5">
    <path d="M 57.6 307.584 
L 414.72 307.584 
" style="fill: none; stroke: #000000; stroke-width: 0.8; stroke-linejoin: miter; stroke-linecap: square"/>
   </g>
   <g id="patch_6">
    <path d="M 57.6 41.472 
L 414.72 41.472 
" style="fill: none; stroke: #000000; stroke-width: 0.8; stroke-linejoin: miter; stroke-linecap: square"/>
   </g>
   <g id="text_15">
    <!-- NN_equibiaxial -->
    <g transform="translate(191.4975 35.472) scale(0.12 -0.12)">
     <defs>
      <path id="DejaVuSans-4e" d="M 628 4666 
L 1478 4666 
L 3547 763 
L 3547 4666 
L 4159 4666 
L 4159 0 
L 3309 0 
L 1241 3903 
L 1241 0 
L 628 0 
L 628 4666 
z
" transform="scale(0.015625)"/>
      <path id="DejaVuSans-5f" d="M 3263 -1063 
L 3263 -1509 
L -63 -1509 
L -63 -1063 
L 3263 -1063 
z
" transform="scale(0.015625)"/>
      <path id="DejaVuSans-71" d="M 947 1747 
Q 947 1113 1208 752 
Q 1469 391 1925 391 
Q 2381 391 2643 752 
Q 2906 1113 2906 1747 
Q 2906 2381 2643 2742 
Q 2381 3103 1925 3103 
Q 1469 3103 1208 2742 
Q 947 2381 947 1747 
z
M 2906 525 
Q 2725 213 2448 61 
Q 2172 -91 1784 -91 
Q 1150 -91 751 415 
Q 353 922 353 1747 
Q 353 2572 751 3078 
Q 1150 3584 1784 3584 
Q 2172 3584 2448 3432 
Q 2725 3281 2906 2969 
L 2906 3500 
L 3481 3500 
L 3481 -1331 
L 2906 -1331 
L 2906 525 
z
" transform="scale(0.015625)"/>
      <path id="DejaVuSans-75" d="M 544 1381 
L 544 3500 
L 1119 3500 
L 1119 1403 
Q 1119 906 1312 657 
Q 1506 409 1894 409 
Q 2359 409 2629 706 
Q 2900 1003 2900 1516 
L 2900 3500 
L 3475 3500 
L 3475 0 
L 2900 0 
L 2900 538 
Q 2691 219 2414 64 
Q 2138 -91 1772 -91 
Q 1169 -91 856 284 
Q 544 659 544 1381 
z
M 1991 3584 
L 1991 3584 
z
" transform="scale(0.015625)"/>
      <path id="DejaVuSans-69" d="M 603 3500 
L 1178 3500 
L 1178 0 
L 603 0 
L 603 3500 
z
M 603 4863 
L 1178 4863 
L 1178 4134 
L 603 4134 
L 603 4863 
z
" transform="scale(0.015625)"/>
      <path id="DejaVuSans-62" d="M 3116 1747 
Q 3116 2381 2855 2742 
Q 2594 3103 2138 3103 
Q 1681 3103 1420 2742 
Q 1159 2381 1159 1747 
Q 1159 1113 1420 752 
Q 1681 391 2138 391 
Q 2594 391 2855 752 
Q 3116 1113 3116 1747 
z
M 1159 2969 
Q 1341 3281 1617 3432 
Q 1894 3584 2278 3584 
Q 2916 3584 3314 3078 
Q 3713 2572 3713 1747 
Q 3713 922 3314 415 
Q 2916 -91 2278 -91 
Q 1894 -91 1617 61 
Q 1341 213 1159 525 
L 1159 0 
L 581 0 
L 581 4863 
L 1159 4863 
L 1159 2969 
z
" transform="scale(0.015625)"/>
      <path id="DejaVuSans-78" d="M 3513 3500 
L 2247 1797 
L 3578 0 
L 2900 0 
L 1881 1375 
L 863 0 
L 184 0 
L 1544 1831 
L 300 3500 
L 978 3500 
L 1906 2253 
L 2834 3500 
L 3513 3500 
z
" transform="scale(0.015625)"/>
     </defs>
     <use xlink:href="#DejaVuSans-4e"/>
     <use xlink:href="#DejaVuSans-4e" x="74.804688"/>
     <use xlink:href="#DejaVuSans-5f" x="149.609375"/>
     <use xlink:href="#DejaVuSans-65" x="199.609375"/>
     <use xlink:href="#DejaVuSans-71" x="261.132812"/>
     <use xlink:href="#DejaVuSans-75" x="324.609375"/>
     <use xlink:href="#DejaVuSans-69" x="387.988281"/>
     <use xlink:href="#DejaVuSans-62" x="415.771484"/>
     <use xlink:href="#DejaVuSans-69" x="479.248047"/>
     <use xlink:href="#DejaVuSans-61" x="507.03125"/>
     <use xlink:href="#DejaVuSans-78" x="568.310547"/>
     <use xlink:href="#DejaVuSans-69" x="627.490234"/>
     <use xlink:href="#DejaVuSans-61" x="655.273438"/>
     <use xlink:href="#DejaVuSans-6c" x="716.552734"/>
    </g>
   </g>
  </g>
 </g>
 <defs>
  <clipPath id="pb84064f8fa">
   <rect x="57.6" y="41.472" width="357.12" height="266.112"/>
  </clipPath>
 </defs>
</svg>
