<?xml version="1.0" encoding="utf-8" standalone="no"?>
<!DOCTYPE svg PUBLIC "-//W3C//DTD SVG 1.1//EN"
  "http://www.w3.org/Graphics/SVG/1.1/DTD/svg11.dtd">
<svg xmlns:xlink="http://www.w3.org/1999/xlink" width="460.8pt" height="345.6pt" viewBox="0 0 460.8 345.6" xmlns="http://www.w3.org/2000/svg" version="1.1">
 <metadata>
  <rdf:RDF xmlns:dc="http://purl.org/dc/elements/1.1/" xmlns:cc="http://creativecommons.org/ns#" xmlns:rdf="http://www.w3.org/1999/02/22-rdf-syntax-ns#">
   <cc:Work>
    <dc:type rdf:resource="http://purl.org/dc/dcmitype/StillImage"/>
    <dc:date>2023-06-15T16:14:26.907859</dc:date>
    <dc:format>image/svg+xml</dc:format>
    <dc:creator>
     <cc:Agent>
      <dc:title>Matplotlib v3.7.0, https://matplotlib.org/</dc:title>
     </cc:Agent>
    </dc:creator>
   </cc:Work>
  </rdf:RDF>
 </metadata>
 <defs>
  <style type="text/css">*{stroke-linejoin: round; stroke-linecap: butt}</style>
 </defs>
 <g id="figure_1">
  <g id="patch_1">
   <path d="M 0 345.6 
L 460.8 345.6 
L 460.8 0 
L 0 0 
z
" style="fill: #ffffff"/>
  </g>
  <g id="axes_1">
   <g id="patch_2">
    <path d="M 57.6 307.584 
L 414.72 307.584 
L 414.72 41.472 
L 57.6 41.472 
z
" style="fill: #ffffff"/>
   </g>
   <g id="matplotlib.axis_1">
    <g id="xtick_1">
     <g id="line2d_1">
      <defs>
       <path id="m50b05dfab2" d="M 0 0 
L 0 3.5 
" style="stroke: #000000; stroke-width: 0.8"/>
      </defs>
      <g>
       <use xlink:href="#m50b05dfab2" x="73.832727" y="307.584" style="stroke: #000000; stroke-width: 0.8"/>
      </g>
     </g>
     <g id="text_1">
      <!-- 0 -->
      <g transform="translate(70.651477 322.182437) scale(0.1 -0.1)">
       <defs>
        <path id="DejaVuSans-30" d="M 2034 4250 
Q 1547 4250 1301 3770 
Q 1056 3291 1056 2328 
Q 1056 1369 1301 889 
Q 1547 409 2034 409 
Q 2525 409 2770 889 
Q 3016 1369 3016 2328 
Q 3016 3291 2770 3770 
Q 2525 4250 2034 4250 
z
M 2034 4750 
Q 2819 4750 3233 4129 
Q 3647 3509 3647 2328 
Q 3647 1150 3233 529 
Q 2819 -91 2034 -91 
Q 1250 -91 836 529 
Q 422 1150 422 2328 
Q 422 3509 836 4129 
Q 1250 4750 2034 4750 
z
" transform="scale(0.015625)"/>
       </defs>
       <use xlink:href="#DejaVuSans-30"/>
      </g>
     </g>
    </g>
    <g id="xtick_2">
     <g id="line2d_2">
      <g>
       <use xlink:href="#m50b05dfab2" x="142.634291" y="307.584" style="stroke: #000000; stroke-width: 0.8"/>
      </g>
     </g>
     <g id="text_2">
      <!-- 500 -->
      <g transform="translate(133.090541 322.182437) scale(0.1 -0.1)">
       <defs>
        <path id="DejaVuSans-35" d="M 691 4666 
L 3169 4666 
L 3169 4134 
L 1269 4134 
L 1269 2991 
Q 1406 3038 1543 3061 
Q 1681 3084 1819 3084 
Q 2600 3084 3056 2656 
Q 3513 2228 3513 1497 
Q 3513 744 3044 326 
Q 2575 -91 1722 -91 
Q 1428 -91 1123 -41 
Q 819 9 494 109 
L 494 744 
Q 775 591 1075 516 
Q 1375 441 1709 441 
Q 2250 441 2565 725 
Q 2881 1009 2881 1497 
Q 2881 1984 2565 2268 
Q 2250 2553 1709 2553 
Q 1456 2553 1204 2497 
Q 953 2441 691 2322 
L 691 4666 
z
" transform="scale(0.015625)"/>
       </defs>
       <use xlink:href="#DejaVuSans-35"/>
       <use xlink:href="#DejaVuSans-30" x="63.623047"/>
       <use xlink:href="#DejaVuSans-30" x="127.246094"/>
      </g>
     </g>
    </g>
    <g id="xtick_3">
     <g id="line2d_3">
      <g>
       <use xlink:href="#m50b05dfab2" x="211.435855" y="307.584" style="stroke: #000000; stroke-width: 0.8"/>
      </g>
     </g>
     <g id="text_3">
      <!-- 1000 -->
      <g transform="translate(198.710855 322.182437) scale(0.1 -0.1)">
       <defs>
        <path id="DejaVuSans-31" d="M 794 531 
L 1825 531 
L 1825 4091 
L 703 3866 
L 703 4441 
L 1819 4666 
L 2450 4666 
L 2450 531 
L 3481 531 
L 3481 0 
L 794 0 
L 794 531 
z
" transform="scale(0.015625)"/>
       </defs>
       <use xlink:href="#DejaVuSans-31"/>
       <use xlink:href="#DejaVuSans-30" x="63.623047"/>
       <use xlink:href="#DejaVuSans-30" x="127.246094"/>
       <use xlink:href="#DejaVuSans-30" x="190.869141"/>
      </g>
     </g>
    </g>
    <g id="xtick_4">
     <g id="line2d_4">
      <g>
       <use xlink:href="#m50b05dfab2" x="280.237419" y="307.584" style="stroke: #000000; stroke-width: 0.8"/>
      </g>
     </g>
     <g id="text_4">
      <!-- 1500 -->
      <g transform="translate(267.512419 322.182437) scale(0.1 -0.1)">
       <use xlink:href="#DejaVuSans-31"/>
       <use xlink:href="#DejaVuSans-35" x="63.623047"/>
       <use xlink:href="#DejaVuSans-30" x="127.246094"/>
       <use xlink:href="#DejaVuSans-30" x="190.869141"/>
      </g>
     </g>
    </g>
    <g id="xtick_5">
     <g id="line2d_5">
      <g>
       <use xlink:href="#m50b05dfab2" x="349.038983" y="307.584" style="stroke: #000000; stroke-width: 0.8"/>
      </g>
     </g>
     <g id="text_5">
      <!-- 2000 -->
      <g transform="translate(336.313983 322.182437) scale(0.1 -0.1)">
       <defs>
        <path id="DejaVuSans-32" d="M 1228 531 
L 3431 531 
L 3431 0 
L 469 0 
L 469 531 
Q 828 903 1448 1529 
Q 2069 2156 2228 2338 
Q 2531 2678 2651 2914 
Q 2772 3150 2772 3378 
Q 2772 3750 2511 3984 
Q 2250 4219 1831 4219 
Q 1534 4219 1204 4116 
Q 875 4013 500 3803 
L 500 4441 
Q 881 4594 1212 4672 
Q 1544 4750 1819 4750 
Q 2544 4750 2975 4387 
Q 3406 4025 3406 3419 
Q 3406 3131 3298 2873 
Q 3191 2616 2906 2266 
Q 2828 2175 2409 1742 
Q 1991 1309 1228 531 
z
" transform="scale(0.015625)"/>
       </defs>
       <use xlink:href="#DejaVuSans-32"/>
       <use xlink:href="#DejaVuSans-30" x="63.623047"/>
       <use xlink:href="#DejaVuSans-30" x="127.246094"/>
       <use xlink:href="#DejaVuSans-30" x="190.869141"/>
      </g>
     </g>
    </g>
    <g id="text_6">
     <!-- data -->
     <g transform="translate(224.8975 335.860562) scale(0.1 -0.1)">
      <defs>
       <path id="DejaVuSans-64" d="M 2906 2969 
L 2906 4863 
L 3481 4863 
L 3481 0 
L 2906 0 
L 2906 525 
Q 2725 213 2448 61 
Q 2172 -91 1784 -91 
Q 1150 -91 751 415 
Q 353 922 353 1747 
Q 353 2572 751 3078 
Q 1150 3584 1784 3584 
Q 2172 3584 2448 3432 
Q 2725 3281 2906 2969 
z
M 947 1747 
Q 947 1113 1208 752 
Q 1469 391 1925 391 
Q 2381 391 2643 752 
Q 2906 1113 2906 1747 
Q 2906 2381 2643 2742 
Q 2381 3103 1925 3103 
Q 1469 3103 1208 2742 
Q 947 2381 947 1747 
z
" transform="scale(0.015625)"/>
       <path id="DejaVuSans-61" d="M 2194 1759 
Q 1497 1759 1228 1600 
Q 959 1441 959 1056 
Q 959 750 1161 570 
Q 1363 391 1709 391 
Q 2188 391 2477 730 
Q 2766 1069 2766 1631 
L 2766 1759 
L 2194 1759 
z
M 3341 1997 
L 3341 0 
L 2766 0 
L 2766 531 
Q 2569 213 2275 61 
Q 1981 -91 1556 -91 
Q 1019 -91 701 211 
Q 384 513 384 1019 
Q 384 1609 779 1909 
Q 1175 2209 1959 2209 
L 2766 2209 
L 2766 2266 
Q 2766 2663 2505 2880 
Q 2244 3097 1772 3097 
Q 1472 3097 1187 3025 
Q 903 2953 641 2809 
L 641 3341 
Q 956 3463 1253 3523 
Q 1550 3584 1831 3584 
Q 2591 3584 2966 3190 
Q 3341 2797 3341 1997 
z
" transform="scale(0.015625)"/>
       <path id="DejaVuSans-74" d="M 1172 4494 
L 1172 3500 
L 2356 3500 
L 2356 3053 
L 1172 3053 
L 1172 1153 
Q 1172 725 1289 603 
Q 1406 481 1766 481 
L 2356 481 
L 2356 0 
L 1766 0 
Q 1100 0 847 248 
Q 594 497 594 1153 
L 594 3053 
L 172 3053 
L 172 3500 
L 594 3500 
L 594 4494 
L 1172 4494 
z
" transform="scale(0.015625)"/>
      </defs>
      <use xlink:href="#DejaVuSans-64"/>
      <use xlink:href="#DejaVuSans-61" x="63.476562"/>
      <use xlink:href="#DejaVuSans-74" x="124.755859"/>
      <use xlink:href="#DejaVuSans-61" x="163.964844"/>
     </g>
    </g>
   </g>
   <g id="matplotlib.axis_2">
    <g id="ytick_1">
     <g id="line2d_6">
      <defs>
       <path id="mc34ae6b103" d="M 0 0 
L -3.5 0 
" style="stroke: #000000; stroke-width: 0.8"/>
      </defs>
      <g>
       <use xlink:href="#mc34ae6b103" x="57.6" y="288.031124" style="stroke: #000000; stroke-width: 0.8"/>
      </g>
     </g>
     <g id="text_7">
      <!-- 4.8 -->
      <g transform="translate(34.696875 291.830343) scale(0.1 -0.1)">
       <defs>
        <path id="DejaVuSans-34" d="M 2419 4116 
L 825 1625 
L 2419 1625 
L 2419 4116 
z
M 2253 4666 
L 3047 4666 
L 3047 1625 
L 3713 1625 
L 3713 1100 
L 3047 1100 
L 3047 0 
L 2419 0 
L 2419 1100 
L 313 1100 
L 313 1709 
L 2253 4666 
z
" transform="scale(0.015625)"/>
        <path id="DejaVuSans-2e" d="M 684 794 
L 1344 794 
L 1344 0 
L 684 0 
L 684 794 
z
" transform="scale(0.015625)"/>
        <path id="DejaVuSans-38" d="M 2034 2216 
Q 1584 2216 1326 1975 
Q 1069 1734 1069 1313 
Q 1069 891 1326 650 
Q 1584 409 2034 409 
Q 2484 409 2743 651 
Q 3003 894 3003 1313 
Q 3003 1734 2745 1975 
Q 2488 2216 2034 2216 
z
M 1403 2484 
Q 997 2584 770 2862 
Q 544 3141 544 3541 
Q 544 4100 942 4425 
Q 1341 4750 2034 4750 
Q 2731 4750 3128 4425 
Q 3525 4100 3525 3541 
Q 3525 3141 3298 2862 
Q 3072 2584 2669 2484 
Q 3125 2378 3379 2068 
Q 3634 1759 3634 1313 
Q 3634 634 3220 271 
Q 2806 -91 2034 -91 
Q 1263 -91 848 271 
Q 434 634 434 1313 
Q 434 1759 690 2068 
Q 947 2378 1403 2484 
z
M 1172 3481 
Q 1172 3119 1398 2916 
Q 1625 2713 2034 2713 
Q 2441 2713 2670 2916 
Q 2900 3119 2900 3481 
Q 2900 3844 2670 4047 
Q 2441 4250 2034 4250 
Q 1625 4250 1398 4047 
Q 1172 3844 1172 3481 
z
" transform="scale(0.015625)"/>
       </defs>
       <use xlink:href="#DejaVuSans-34"/>
       <use xlink:href="#DejaVuSans-2e" x="63.623047"/>
       <use xlink:href="#DejaVuSans-38" x="95.410156"/>
      </g>
     </g>
    </g>
    <g id="ytick_2">
     <g id="line2d_7">
      <g>
       <use xlink:href="#mc34ae6b103" x="57.6" y="243.854914" style="stroke: #000000; stroke-width: 0.8"/>
      </g>
     </g>
     <g id="text_8">
      <!-- 4.9 -->
      <g transform="translate(34.696875 247.654133) scale(0.1 -0.1)">
       <defs>
        <path id="DejaVuSans-39" d="M 703 97 
L 703 672 
Q 941 559 1184 500 
Q 1428 441 1663 441 
Q 2288 441 2617 861 
Q 2947 1281 2994 2138 
Q 2813 1869 2534 1725 
Q 2256 1581 1919 1581 
Q 1219 1581 811 2004 
Q 403 2428 403 3163 
Q 403 3881 828 4315 
Q 1253 4750 1959 4750 
Q 2769 4750 3195 4129 
Q 3622 3509 3622 2328 
Q 3622 1225 3098 567 
Q 2575 -91 1691 -91 
Q 1453 -91 1209 -44 
Q 966 3 703 97 
z
M 1959 2075 
Q 2384 2075 2632 2365 
Q 2881 2656 2881 3163 
Q 2881 3666 2632 3958 
Q 2384 4250 1959 4250 
Q 1534 4250 1286 3958 
Q 1038 3666 1038 3163 
Q 1038 2656 1286 2365 
Q 1534 2075 1959 2075 
z
" transform="scale(0.015625)"/>
       </defs>
       <use xlink:href="#DejaVuSans-34"/>
       <use xlink:href="#DejaVuSans-2e" x="63.623047"/>
       <use xlink:href="#DejaVuSans-39" x="95.410156"/>
      </g>
     </g>
    </g>
    <g id="ytick_3">
     <g id="line2d_8">
      <g>
       <use xlink:href="#mc34ae6b103" x="57.6" y="199.678704" style="stroke: #000000; stroke-width: 0.8"/>
      </g>
     </g>
     <g id="text_9">
      <!-- 5.0 -->
      <g transform="translate(34.696875 203.477923) scale(0.1 -0.1)">
       <use xlink:href="#DejaVuSans-35"/>
       <use xlink:href="#DejaVuSans-2e" x="63.623047"/>
       <use xlink:href="#DejaVuSans-30" x="95.410156"/>
      </g>
     </g>
    </g>
    <g id="ytick_4">
     <g id="line2d_9">
      <g>
       <use xlink:href="#mc34ae6b103" x="57.6" y="155.502494" style="stroke: #000000; stroke-width: 0.8"/>
      </g>
     </g>
     <g id="text_10">
      <!-- 5.1 -->
      <g transform="translate(34.696875 159.301712) scale(0.1 -0.1)">
       <use xlink:href="#DejaVuSans-35"/>
       <use xlink:href="#DejaVuSans-2e" x="63.623047"/>
       <use xlink:href="#DejaVuSans-31" x="95.410156"/>
      </g>
     </g>
    </g>
    <g id="ytick_5">
     <g id="line2d_10">
      <g>
       <use xlink:href="#mc34ae6b103" x="57.6" y="111.326283" style="stroke: #000000; stroke-width: 0.8"/>
      </g>
     </g>
     <g id="text_11">
      <!-- 5.2 -->
      <g transform="translate(34.696875 115.125502) scale(0.1 -0.1)">
       <use xlink:href="#DejaVuSans-35"/>
       <use xlink:href="#DejaVuSans-2e" x="63.623047"/>
       <use xlink:href="#DejaVuSans-32" x="95.410156"/>
      </g>
     </g>
    </g>
    <g id="ytick_6">
     <g id="line2d_11">
      <g>
       <use xlink:href="#mc34ae6b103" x="57.6" y="67.150073" style="stroke: #000000; stroke-width: 0.8"/>
      </g>
     </g>
     <g id="text_12">
      <!-- 5.3 -->
      <g transform="translate(34.696875 70.949292) scale(0.1 -0.1)">
       <defs>
        <path id="DejaVuSans-33" d="M 2597 2516 
Q 3050 2419 3304 2112 
Q 3559 1806 3559 1356 
Q 3559 666 3084 287 
Q 2609 -91 1734 -91 
Q 1441 -91 1130 -33 
Q 819 25 488 141 
L 488 750 
Q 750 597 1062 519 
Q 1375 441 1716 441 
Q 2309 441 2620 675 
Q 2931 909 2931 1356 
Q 2931 1769 2642 2001 
Q 2353 2234 1838 2234 
L 1294 2234 
L 1294 2753 
L 1863 2753 
Q 2328 2753 2575 2939 
Q 2822 3125 2822 3475 
Q 2822 3834 2567 4026 
Q 2313 4219 1838 4219 
Q 1578 4219 1281 4162 
Q 984 4106 628 3988 
L 628 4550 
Q 988 4650 1302 4700 
Q 1616 4750 1894 4750 
Q 2613 4750 3031 4423 
Q 3450 4097 3450 3541 
Q 3450 3153 3228 2886 
Q 3006 2619 2597 2516 
z
" transform="scale(0.015625)"/>
       </defs>
       <use xlink:href="#DejaVuSans-35"/>
       <use xlink:href="#DejaVuSans-2e" x="63.623047"/>
       <use xlink:href="#DejaVuSans-33" x="95.410156"/>
      </g>
     </g>
    </g>
    <g id="text_13">
     <!-- model -->
     <g transform="translate(28.617187 190.097531) rotate(-90) scale(0.1 -0.1)">
      <defs>
       <path id="DejaVuSans-6d" d="M 3328 2828 
Q 3544 3216 3844 3400 
Q 4144 3584 4550 3584 
Q 5097 3584 5394 3201 
Q 5691 2819 5691 2113 
L 5691 0 
L 5113 0 
L 5113 2094 
Q 5113 2597 4934 2840 
Q 4756 3084 4391 3084 
Q 3944 3084 3684 2787 
Q 3425 2491 3425 1978 
L 3425 0 
L 2847 0 
L 2847 2094 
Q 2847 2600 2669 2842 
Q 2491 3084 2119 3084 
Q 1678 3084 1418 2786 
Q 1159 2488 1159 1978 
L 1159 0 
L 581 0 
L 581 3500 
L 1159 3500 
L 1159 2956 
Q 1356 3278 1631 3431 
Q 1906 3584 2284 3584 
Q 2666 3584 2933 3390 
Q 3200 3197 3328 2828 
z
" transform="scale(0.015625)"/>
       <path id="DejaVuSans-6f" d="M 1959 3097 
Q 1497 3097 1228 2736 
Q 959 2375 959 1747 
Q 959 1119 1226 758 
Q 1494 397 1959 397 
Q 2419 397 2687 759 
Q 2956 1122 2956 1747 
Q 2956 2369 2687 2733 
Q 2419 3097 1959 3097 
z
M 1959 3584 
Q 2709 3584 3137 3096 
Q 3566 2609 3566 1747 
Q 3566 888 3137 398 
Q 2709 -91 1959 -91 
Q 1206 -91 779 398 
Q 353 888 353 1747 
Q 353 2609 779 3096 
Q 1206 3584 1959 3584 
z
" transform="scale(0.015625)"/>
       <path id="DejaVuSans-65" d="M 3597 1894 
L 3597 1613 
L 953 1613 
Q 991 1019 1311 708 
Q 1631 397 2203 397 
Q 2534 397 2845 478 
Q 3156 559 3463 722 
L 3463 178 
Q 3153 47 2828 -22 
Q 2503 -91 2169 -91 
Q 1331 -91 842 396 
Q 353 884 353 1716 
Q 353 2575 817 3079 
Q 1281 3584 2069 3584 
Q 2775 3584 3186 3129 
Q 3597 2675 3597 1894 
z
M 3022 2063 
Q 3016 2534 2758 2815 
Q 2500 3097 2075 3097 
Q 1594 3097 1305 2825 
Q 1016 2553 972 2059 
L 3022 2063 
z
" transform="scale(0.015625)"/>
       <path id="DejaVuSans-6c" d="M 603 4863 
L 1178 4863 
L 1178 0 
L 603 0 
L 603 4863 
z
" transform="scale(0.015625)"/>
      </defs>
      <use xlink:href="#DejaVuSans-6d"/>
      <use xlink:href="#DejaVuSans-6f" x="97.412109"/>
      <use xlink:href="#DejaVuSans-64" x="158.59375"/>
      <use xlink:href="#DejaVuSans-65" x="222.070312"/>
      <use xlink:href="#DejaVuSans-6c" x="283.59375"/>
     </g>
    </g>
   </g>
   <g id="line2d_12">
    <defs>
     <path id="m27b3ea4e4b" d="M 0 3 
C 0.795609 3 1.55874 2.683901 2.12132 2.12132 
C 2.683901 1.55874 3 0.795609 3 0 
C 3 -0.795609 2.683901 -1.55874 2.12132 -2.12132 
C 1.55874 -2.683901 0.795609 -3 0 -3 
C -0.795609 -3 -1.55874 -2.683901 -2.12132 -2.12132 
C -2.683901 -1.55874 -3 -0.795609 -3 0 
C -3 0.795609 -2.683901 1.55874 -2.12132 2.12132 
C -1.55874 2.683901 -0.795609 3 0 3 
z
" style="stroke: #0000ff"/>
    </defs>
    <g clip-path="url(#p8ba7b60123)">
     <use xlink:href="#m27b3ea4e4b" x="73.832727" y="294.245173" style="fill: #ffffff; stroke: #0000ff"/>
     <use xlink:href="#m27b3ea4e4b" x="73.850203" y="295.488" style="fill: #ffffff; stroke: #0000ff"/>
     <use xlink:href="#m27b3ea4e4b" x="73.887915" y="294.491" style="fill: #ffffff; stroke: #0000ff"/>
     <use xlink:href="#m27b3ea4e4b" x="73.924811" y="293.239748" style="fill: #ffffff; stroke: #0000ff"/>
     <use xlink:href="#m27b3ea4e4b" x="73.941204" y="291.494735" style="fill: #ffffff; stroke: #0000ff"/>
     <use xlink:href="#m27b3ea4e4b" x="73.959678" y="289.423006" style="fill: #ffffff; stroke: #0000ff"/>
     <use xlink:href="#m27b3ea4e4b" x="73.998159" y="287.643025" style="fill: #ffffff; stroke: #0000ff"/>
     <use xlink:href="#m27b3ea4e4b" x="74.036976" y="282.846768" style="fill: #ffffff; stroke: #0000ff"/>
     <use xlink:href="#m27b3ea4e4b" x="74.068509" y="280.091906" style="fill: #ffffff; stroke: #0000ff"/>
     <use xlink:href="#m27b3ea4e4b" x="74.12075" y="277.99511" style="fill: #ffffff; stroke: #0000ff"/>
     <use xlink:href="#m27b3ea4e4b" x="74.18282" y="276.777561" style="fill: #ffffff; stroke: #0000ff"/>
     <use xlink:href="#m27b3ea4e4b" x="74.25436" y="274.605984" style="fill: #ffffff; stroke: #0000ff"/>
     <use xlink:href="#m27b3ea4e4b" x="74.327018" y="272.790194" style="fill: #ffffff; stroke: #0000ff"/>
     <use xlink:href="#m27b3ea4e4b" x="74.400408" y="271.221283" style="fill: #ffffff; stroke: #0000ff"/>
     <use xlink:href="#m27b3ea4e4b" x="74.474085" y="265.777492" style="fill: #ffffff; stroke: #0000ff"/>
     <use xlink:href="#m27b3ea4e4b" x="74.552204" y="261.640143" style="fill: #ffffff; stroke: #0000ff"/>
     <use xlink:href="#m27b3ea4e4b" x="74.644752" y="256.427222" style="fill: #ffffff; stroke: #0000ff"/>
     <use xlink:href="#m27b3ea4e4b" x="74.738065" y="254.319051" style="fill: #ffffff; stroke: #0000ff"/>
     <use xlink:href="#m27b3ea4e4b" x="74.845476" y="252.770363" style="fill: #ffffff; stroke: #0000ff"/>
     <use xlink:href="#m27b3ea4e4b" x="74.965437" y="251.598735" style="fill: #ffffff; stroke: #0000ff"/>
     <use xlink:href="#m27b3ea4e4b" x="75.107699" y="250.813859" style="fill: #ffffff; stroke: #0000ff"/>
     <use xlink:href="#m27b3ea4e4b" x="75.250853" y="249.842347" style="fill: #ffffff; stroke: #0000ff"/>
     <use xlink:href="#m27b3ea4e4b" x="75.402775" y="247.789998" style="fill: #ffffff; stroke: #0000ff"/>
     <use xlink:href="#m27b3ea4e4b" x="75.585132" y="245.210185" style="fill: #ffffff; stroke: #0000ff"/>
     <use xlink:href="#m27b3ea4e4b" x="75.781564" y="241.34057" style="fill: #ffffff; stroke: #0000ff"/>
     <use xlink:href="#m27b3ea4e4b" x="76.001476" y="237.631681" style="fill: #ffffff; stroke: #0000ff"/>
     <use xlink:href="#m27b3ea4e4b" x="76.231969" y="235.532989" style="fill: #ffffff; stroke: #0000ff"/>
     <use xlink:href="#m27b3ea4e4b" x="76.504076" y="232.099417" style="fill: #ffffff; stroke: #0000ff"/>
     <use xlink:href="#m27b3ea4e4b" x="76.804612" y="229.71656" style="fill: #ffffff; stroke: #0000ff"/>
     <use xlink:href="#m27b3ea4e4b" x="77.127554" y="227.791232" style="fill: #ffffff; stroke: #0000ff"/>
     <use xlink:href="#m27b3ea4e4b" x="77.474354" y="226.238331" style="fill: #ffffff; stroke: #0000ff"/>
     <use xlink:href="#m27b3ea4e4b" x="77.827376" y="224.474149" style="fill: #ffffff; stroke: #0000ff"/>
     <use xlink:href="#m27b3ea4e4b" x="78.186733" y="222.950738" style="fill: #ffffff; stroke: #0000ff"/>
     <use xlink:href="#m27b3ea4e4b" x="78.547075" y="221.524015" style="fill: #ffffff; stroke: #0000ff"/>
     <use xlink:href="#m27b3ea4e4b" x="78.94476" y="218.737135" style="fill: #ffffff; stroke: #0000ff"/>
     <use xlink:href="#m27b3ea4e4b" x="79.348832" y="218.361127" style="fill: #ffffff; stroke: #0000ff"/>
     <use xlink:href="#m27b3ea4e4b" x="79.758887" y="218.133626" style="fill: #ffffff; stroke: #0000ff"/>
     <use xlink:href="#m27b3ea4e4b" x="80.189111" y="216.530801" style="fill: #ffffff; stroke: #0000ff"/>
     <use xlink:href="#m27b3ea4e4b" x="80.634673" y="216.844246" style="fill: #ffffff; stroke: #0000ff"/>
     <use xlink:href="#m27b3ea4e4b" x="81.096217" y="214.432741" style="fill: #ffffff; stroke: #0000ff"/>
     <use xlink:href="#m27b3ea4e4b" x="81.563027" y="212.754083" style="fill: #ffffff; stroke: #0000ff"/>
     <use xlink:href="#m27b3ea4e4b" x="82.039543" y="210.717322" style="fill: #ffffff; stroke: #0000ff"/>
     <use xlink:href="#m27b3ea4e4b" x="82.513278" y="208.723322" style="fill: #ffffff; stroke: #0000ff"/>
     <use xlink:href="#m27b3ea4e4b" x="82.988969" y="205.213074" style="fill: #ffffff; stroke: #0000ff"/>
     <use xlink:href="#m27b3ea4e4b" x="83.484929" y="203.846386" style="fill: #ffffff; stroke: #0000ff"/>
     <use xlink:href="#m27b3ea4e4b" x="83.996416" y="200.886142" style="fill: #ffffff; stroke: #0000ff"/>
     <use xlink:href="#m27b3ea4e4b" x="84.527393" y="199.879031" style="fill: #ffffff; stroke: #0000ff"/>
     <use xlink:href="#m27b3ea4e4b" x="85.097481" y="197.837003" style="fill: #ffffff; stroke: #0000ff"/>
     <use xlink:href="#m27b3ea4e4b" x="85.693129" y="195.577587" style="fill: #ffffff; stroke: #0000ff"/>
     <use xlink:href="#m27b3ea4e4b" x="86.295775" y="193.251815" style="fill: #ffffff; stroke: #0000ff"/>
     <use xlink:href="#m27b3ea4e4b" x="86.913953" y="189.907137" style="fill: #ffffff; stroke: #0000ff"/>
     <use xlink:href="#m27b3ea4e4b" x="87.551867" y="188.006455" style="fill: #ffffff; stroke: #0000ff"/>
     <use xlink:href="#m27b3ea4e4b" x="88.209554" y="185.785376" style="fill: #ffffff; stroke: #0000ff"/>
     <use xlink:href="#m27b3ea4e4b" x="88.874267" y="183.406311" style="fill: #ffffff; stroke: #0000ff"/>
     <use xlink:href="#m27b3ea4e4b" x="89.55031" y="181.587993" style="fill: #ffffff; stroke: #0000ff"/>
     <use xlink:href="#m27b3ea4e4b" x="90.242251" y="179.213983" style="fill: #ffffff; stroke: #0000ff"/>
     <use xlink:href="#m27b3ea4e4b" x="90.9366" y="179.207242" style="fill: #ffffff; stroke: #0000ff"/>
     <use xlink:href="#m27b3ea4e4b" x="91.637468" y="175.830335" style="fill: #ffffff; stroke: #0000ff"/>
     <use xlink:href="#m27b3ea4e4b" x="92.358837" y="173.550907" style="fill: #ffffff; stroke: #0000ff"/>
     <use xlink:href="#m27b3ea4e4b" x="93.091806" y="170.988998" style="fill: #ffffff; stroke: #0000ff"/>
     <use xlink:href="#m27b3ea4e4b" x="93.826694" y="169.532785" style="fill: #ffffff; stroke: #0000ff"/>
     <use xlink:href="#m27b3ea4e4b" x="94.559901" y="166.175678" style="fill: #ffffff; stroke: #0000ff"/>
     <use xlink:href="#m27b3ea4e4b" x="95.280418" y="164.572643" style="fill: #ffffff; stroke: #0000ff"/>
     <use xlink:href="#m27b3ea4e4b" x="96.011257" y="162.945172" style="fill: #ffffff; stroke: #0000ff"/>
     <use xlink:href="#m27b3ea4e4b" x="96.744664" y="160.013365" style="fill: #ffffff; stroke: #0000ff"/>
     <use xlink:href="#m27b3ea4e4b" x="97.484901" y="157.441556" style="fill: #ffffff; stroke: #0000ff"/>
     <use xlink:href="#m27b3ea4e4b" x="98.235978" y="156.093194" style="fill: #ffffff; stroke: #0000ff"/>
     <use xlink:href="#m27b3ea4e4b" x="98.99498" y="154.014514" style="fill: #ffffff; stroke: #0000ff"/>
     <use xlink:href="#m27b3ea4e4b" x="99.770515" y="151.687058" style="fill: #ffffff; stroke: #0000ff"/>
     <use xlink:href="#m27b3ea4e4b" x="100.566884" y="150.514799" style="fill: #ffffff; stroke: #0000ff"/>
     <use xlink:href="#m27b3ea4e4b" x="101.371777" y="147.043731" style="fill: #ffffff; stroke: #0000ff"/>
     <use xlink:href="#m27b3ea4e4b" x="102.192115" y="145.376658" style="fill: #ffffff; stroke: #0000ff"/>
     <use xlink:href="#m27b3ea4e4b" x="103.025252" y="142.901537" style="fill: #ffffff; stroke: #0000ff"/>
     <use xlink:href="#m27b3ea4e4b" x="103.872231" y="140.990955" style="fill: #ffffff; stroke: #0000ff"/>
     <use xlink:href="#m27b3ea4e4b" x="104.730813" y="140.630956" style="fill: #ffffff; stroke: #0000ff"/>
     <use xlink:href="#m27b3ea4e4b" x="105.596547" y="138.342259" style="fill: #ffffff; stroke: #0000ff"/>
     <use xlink:href="#m27b3ea4e4b" x="106.474097" y="135.763499" style="fill: #ffffff; stroke: #0000ff"/>
     <use xlink:href="#m27b3ea4e4b" x="107.369093" y="133.852285" style="fill: #ffffff; stroke: #0000ff"/>
     <use xlink:href="#m27b3ea4e4b" x="108.286761" y="132.471905" style="fill: #ffffff; stroke: #0000ff"/>
     <use xlink:href="#m27b3ea4e4b" x="109.231041" y="130.217122" style="fill: #ffffff; stroke: #0000ff"/>
     <use xlink:href="#m27b3ea4e4b" x="110.183407" y="128.861388" style="fill: #ffffff; stroke: #0000ff"/>
     <use xlink:href="#m27b3ea4e4b" x="111.149779" y="127.233917" style="fill: #ffffff; stroke: #0000ff"/>
     <use xlink:href="#m27b3ea4e4b" x="112.124883" y="125.340607" style="fill: #ffffff; stroke: #0000ff"/>
     <use xlink:href="#m27b3ea4e4b" x="113.112781" y="124.08767" style="fill: #ffffff; stroke: #0000ff"/>
     <use xlink:href="#m27b3ea4e4b" x="114.104875" y="122.233541" style="fill: #ffffff; stroke: #0000ff"/>
     <use xlink:href="#m27b3ea4e4b" x="115.108786" y="120.605648" style="fill: #ffffff; stroke: #0000ff"/>
     <use xlink:href="#m27b3ea4e4b" x="116.131809" y="119.137428" style="fill: #ffffff; stroke: #0000ff"/>
     <use xlink:href="#m27b3ea4e4b" x="117.168018" y="117.75136" style="fill: #ffffff; stroke: #0000ff"/>
     <use xlink:href="#m27b3ea4e4b" x="118.212063" y="115.862685" style="fill: #ffffff; stroke: #0000ff"/>
     <use xlink:href="#m27b3ea4e4b" x="119.285708" y="114.906762" style="fill: #ffffff; stroke: #0000ff"/>
     <use xlink:href="#m27b3ea4e4b" x="120.389803" y="112.962054" style="fill: #ffffff; stroke: #0000ff"/>
     <use xlink:href="#m27b3ea4e4b" x="121.507488" y="111.307199" style="fill: #ffffff; stroke: #0000ff"/>
     <use xlink:href="#m27b3ea4e4b" x="122.641914" y="111.084332" style="fill: #ffffff; stroke: #0000ff"/>
     <use xlink:href="#m27b3ea4e4b" x="123.790223" y="109.688364" style="fill: #ffffff; stroke: #0000ff"/>
     <use xlink:href="#m27b3ea4e4b" x="124.948701" y="108.474607" style="fill: #ffffff; stroke: #0000ff"/>
     <use xlink:href="#m27b3ea4e4b" x="126.142362" y="106.801004" style="fill: #ffffff; stroke: #0000ff"/>
     <use xlink:href="#m27b3ea4e4b" x="127.3606" y="105.613578" style="fill: #ffffff; stroke: #0000ff"/>
     <use xlink:href="#m27b3ea4e4b" x="128.607365" y="103.808109" style="fill: #ffffff; stroke: #0000ff"/>
     <use xlink:href="#m27b3ea4e4b" x="129.873219" y="102.187379" style="fill: #ffffff; stroke: #0000ff"/>
     <use xlink:href="#m27b3ea4e4b" x="131.158793" y="100.285433" style="fill: #ffffff; stroke: #0000ff"/>
     <use xlink:href="#m27b3ea4e4b" x="132.47062" y="99.152565" style="fill: #ffffff; stroke: #0000ff"/>
     <use xlink:href="#m27b3ea4e4b" x="133.80221" y="98.208648" style="fill: #ffffff; stroke: #0000ff"/>
     <use xlink:href="#m27b3ea4e4b" x="135.158826" y="97.204276" style="fill: #ffffff; stroke: #0000ff"/>
     <use xlink:href="#m27b3ea4e4b" x="136.52978" y="96.123227" style="fill: #ffffff; stroke: #0000ff"/>
     <use xlink:href="#m27b3ea4e4b" x="137.898863" y="95.350779" style="fill: #ffffff; stroke: #0000ff"/>
     <use xlink:href="#m27b3ea4e4b" x="139.277771" y="94.203797" style="fill: #ffffff; stroke: #0000ff"/>
     <use xlink:href="#m27b3ea4e4b" x="140.689045" y="92.675542" style="fill: #ffffff; stroke: #0000ff"/>
     <use xlink:href="#m27b3ea4e4b" x="142.125668" y="91.942695" style="fill: #ffffff; stroke: #0000ff"/>
     <use xlink:href="#m27b3ea4e4b" x="143.592358" y="91.168773" style="fill: #ffffff; stroke: #0000ff"/>
     <use xlink:href="#m27b3ea4e4b" x="145.078392" y="90.238759" style="fill: #ffffff; stroke: #0000ff"/>
     <use xlink:href="#m27b3ea4e4b" x="146.577255" y="89.664742" style="fill: #ffffff; stroke: #0000ff"/>
     <use xlink:href="#m27b3ea4e4b" x="148.09505" y="89.087143" style="fill: #ffffff; stroke: #0000ff"/>
     <use xlink:href="#m27b3ea4e4b" x="149.62959" y="88.20284" style="fill: #ffffff; stroke: #0000ff"/>
     <use xlink:href="#m27b3ea4e4b" x="151.190051" y="86.751682" style="fill: #ffffff; stroke: #0000ff"/>
     <use xlink:href="#m27b3ea4e4b" x="152.765595" y="85.910352" style="fill: #ffffff; stroke: #0000ff"/>
     <use xlink:href="#m27b3ea4e4b" x="154.360552" y="85.344339" style="fill: #ffffff; stroke: #0000ff"/>
     <use xlink:href="#m27b3ea4e4b" x="155.976345" y="84.226638" style="fill: #ffffff; stroke: #0000ff"/>
     <use xlink:href="#m27b3ea4e4b" x="157.618513" y="82.935783" style="fill: #ffffff; stroke: #0000ff"/>
     <use xlink:href="#m27b3ea4e4b" x="159.271276" y="82.12942" style="fill: #ffffff; stroke: #0000ff"/>
     <use xlink:href="#m27b3ea4e4b" x="160.933628" y="81.233111" style="fill: #ffffff; stroke: #0000ff"/>
     <use xlink:href="#m27b3ea4e4b" x="162.631498" y="80.867214" style="fill: #ffffff; stroke: #0000ff"/>
     <use xlink:href="#m27b3ea4e4b" x="164.35017" y="80.000606" style="fill: #ffffff; stroke: #0000ff"/>
     <use xlink:href="#m27b3ea4e4b" x="166.084971" y="79.162856" style="fill: #ffffff; stroke: #0000ff"/>
     <use xlink:href="#m27b3ea4e4b" x="167.813341" y="78.386406" style="fill: #ffffff; stroke: #0000ff"/>
     <use xlink:href="#m27b3ea4e4b" x="169.569197" y="77.552237" style="fill: #ffffff; stroke: #0000ff"/>
     <use xlink:href="#m27b3ea4e4b" x="171.347777" y="76.783581" style="fill: #ffffff; stroke: #0000ff"/>
     <use xlink:href="#m27b3ea4e4b" x="173.151707" y="76.28329" style="fill: #ffffff; stroke: #0000ff"/>
     <use xlink:href="#m27b3ea4e4b" x="174.988783" y="75.895065" style="fill: #ffffff; stroke: #0000ff"/>
     <use xlink:href="#m27b3ea4e4b" x="176.881132" y="75.273652" style="fill: #ffffff; stroke: #0000ff"/>
     <use xlink:href="#m27b3ea4e4b" x="178.834132" y="75.024876" style="fill: #ffffff; stroke: #0000ff"/>
     <use xlink:href="#m27b3ea4e4b" x="180.831774" y="74.349958" style="fill: #ffffff; stroke: #0000ff"/>
     <use xlink:href="#m27b3ea4e4b" x="182.869418" y="73.677357" style="fill: #ffffff; stroke: #0000ff"/>
     <use xlink:href="#m27b3ea4e4b" x="184.942971" y="72.817068" style="fill: #ffffff; stroke: #0000ff"/>
     <use xlink:href="#m27b3ea4e4b" x="187.088542" y="72.401458" style="fill: #ffffff; stroke: #0000ff"/>
     <use xlink:href="#m27b3ea4e4b" x="189.312971" y="71.662713" style="fill: #ffffff; stroke: #0000ff"/>
     <use xlink:href="#m27b3ea4e4b" x="191.577347" y="70.872149" style="fill: #ffffff; stroke: #0000ff"/>
     <use xlink:href="#m27b3ea4e4b" x="193.904035" y="70.286546" style="fill: #ffffff; stroke: #0000ff"/>
     <use xlink:href="#m27b3ea4e4b" x="196.299268" y="69.572658" style="fill: #ffffff; stroke: #0000ff"/>
     <use xlink:href="#m27b3ea4e4b" x="198.768225" y="69.147991" style="fill: #ffffff; stroke: #0000ff"/>
     <use xlink:href="#m27b3ea4e4b" x="201.29271" y="68.722481" style="fill: #ffffff; stroke: #0000ff"/>
     <use xlink:href="#m27b3ea4e4b" x="203.880061" y="68.254419" style="fill: #ffffff; stroke: #0000ff"/>
     <use xlink:href="#m27b3ea4e4b" x="206.514654" y="67.933602" style="fill: #ffffff; stroke: #0000ff"/>
     <use xlink:href="#m27b3ea4e4b" x="209.20547" y="67.285015" style="fill: #ffffff; stroke: #0000ff"/>
     <use xlink:href="#m27b3ea4e4b" x="211.926742" y="66.769558" style="fill: #ffffff; stroke: #0000ff"/>
     <use xlink:href="#m27b3ea4e4b" x="214.688744" y="66.015014" style="fill: #ffffff; stroke: #0000ff"/>
     <use xlink:href="#m27b3ea4e4b" x="217.497579" y="65.37696" style="fill: #ffffff; stroke: #0000ff"/>
     <use xlink:href="#m27b3ea4e4b" x="220.35623" y="65.040975" style="fill: #ffffff; stroke: #0000ff"/>
     <use xlink:href="#m27b3ea4e4b" x="223.258994" y="64.859817" style="fill: #ffffff; stroke: #0000ff"/>
     <use xlink:href="#m27b3ea4e4b" x="226.237743" y="64.564699" style="fill: #ffffff; stroke: #0000ff"/>
     <use xlink:href="#m27b3ea4e4b" x="229.270405" y="64.110962" style="fill: #ffffff; stroke: #0000ff"/>
     <use xlink:href="#m27b3ea4e4b" x="232.368935" y="63.67197" style="fill: #ffffff; stroke: #0000ff"/>
     <use xlink:href="#m27b3ea4e4b" x="235.522854" y="63.134816" style="fill: #ffffff; stroke: #0000ff"/>
     <use xlink:href="#m27b3ea4e4b" x="238.735841" y="62.502028" style="fill: #ffffff; stroke: #0000ff"/>
     <use xlink:href="#m27b3ea4e4b" x="242.008498" y="62.089999" style="fill: #ffffff; stroke: #0000ff"/>
     <use xlink:href="#m27b3ea4e4b" x="245.377077" y="61.737373" style="fill: #ffffff; stroke: #0000ff"/>
     <use xlink:href="#m27b3ea4e4b" x="248.835767" y="61.481225" style="fill: #ffffff; stroke: #0000ff"/>
     <use xlink:href="#m27b3ea4e4b" x="252.385461" y="61.031279" style="fill: #ffffff; stroke: #0000ff"/>
     <use xlink:href="#m27b3ea4e4b" x="256.041065" y="60.581755" style="fill: #ffffff; stroke: #0000ff"/>
     <use xlink:href="#m27b3ea4e4b" x="259.800348" y="60.162565" style="fill: #ffffff; stroke: #0000ff"/>
     <use xlink:href="#m27b3ea4e4b" x="263.654686" y="59.824263" style="fill: #ffffff; stroke: #0000ff"/>
     <use xlink:href="#m27b3ea4e4b" x="267.627632" y="59.467424" style="fill: #ffffff; stroke: #0000ff"/>
     <use xlink:href="#m27b3ea4e4b" x="271.739899" y="59.282475" style="fill: #ffffff; stroke: #0000ff"/>
     <use xlink:href="#m27b3ea4e4b" x="276.00034" y="58.887719" style="fill: #ffffff; stroke: #0000ff"/>
     <use xlink:href="#m27b3ea4e4b" x="280.378721" y="58.493385" style="fill: #ffffff; stroke: #0000ff"/>
     <use xlink:href="#m27b3ea4e4b" x="284.916231" y="58.259565" style="fill: #ffffff; stroke: #0000ff"/>
     <use xlink:href="#m27b3ea4e4b" x="289.637423" y="58.120327" style="fill: #ffffff; stroke: #0000ff"/>
     <use xlink:href="#m27b3ea4e4b" x="294.558095" y="57.828157" style="fill: #ffffff; stroke: #0000ff"/>
     <use xlink:href="#m27b3ea4e4b" x="299.691679" y="57.476163" style="fill: #ffffff; stroke: #0000ff"/>
     <use xlink:href="#m27b3ea4e4b" x="305.060041" y="57.094679" style="fill: #ffffff; stroke: #0000ff"/>
     <use xlink:href="#m27b3ea4e4b" x="310.661029" y="56.875604" style="fill: #ffffff; stroke: #0000ff"/>
     <use xlink:href="#m27b3ea4e4b" x="316.517828" y="56.677173" style="fill: #ffffff; stroke: #0000ff"/>
     <use xlink:href="#m27b3ea4e4b" x="322.674644" y="56.122746" style="fill: #ffffff; stroke: #0000ff"/>
     <use xlink:href="#m27b3ea4e4b" x="329.133406" y="55.856908" style="fill: #ffffff; stroke: #0000ff"/>
     <use xlink:href="#m27b3ea4e4b" x="335.939956" y="55.633831" style="fill: #ffffff; stroke: #0000ff"/>
     <use xlink:href="#m27b3ea4e4b" x="343.115025" y="55.382948" style="fill: #ffffff; stroke: #0000ff"/>
     <use xlink:href="#m27b3ea4e4b" x="350.463345" y="55.020633" style="fill: #ffffff; stroke: #0000ff"/>
     <use xlink:href="#m27b3ea4e4b" x="357.976262" y="54.809984" style="fill: #ffffff; stroke: #0000ff"/>
     <use xlink:href="#m27b3ea4e4b" x="365.681884" y="54.407645" style="fill: #ffffff; stroke: #0000ff"/>
     <use xlink:href="#m27b3ea4e4b" x="373.582307" y="54.267775" style="fill: #ffffff; stroke: #0000ff"/>
     <use xlink:href="#m27b3ea4e4b" x="381.67915" y="54.08114" style="fill: #ffffff; stroke: #0000ff"/>
     <use xlink:href="#m27b3ea4e4b" x="389.978937" y="53.765167" style="fill: #ffffff; stroke: #0000ff"/>
     <use xlink:href="#m27b3ea4e4b" x="398.487273" y="53.568" style="fill: #ffffff; stroke: #0000ff"/>
    </g>
   </g>
   <g id="patch_3">
    <path d="M 57.6 307.584 
L 57.6 41.472 
" style="fill: none; stroke: #000000; stroke-width: 0.8; stroke-linejoin: miter; stroke-linecap: square"/>
   </g>
   <g id="patch_4">
    <path d="M 414.72 307.584 
L 414.72 41.472 
" style="fill: none; stroke: #000000; stroke-width: 0.8; stroke-linejoin: miter; stroke-linecap: square"/>
   </g>
   <g id="patch_5">
    <path d="M 57.6 307.584 
L 414.72 307.584 
" style="fill: none; stroke: #000000; stroke-width: 0.8; stroke-linejoin: miter; stroke-linecap: square"/>
   </g>
   <g id="patch_6">
    <path d="M 57.6 41.472 
L 414.72 41.472 
" style="fill: none; stroke: #000000; stroke-width: 0.8; stroke-linejoin: miter; stroke-linecap: square"/>
   </g>
   <g id="text_14">
    <!-- NN_offX -->
    <g transform="translate(212.176875 35.472) scale(0.12 -0.12)">
     <defs>
      <path id="DejaVuSans-4e" d="M 628 4666 
L 1478 4666 
L 3547 763 
L 3547 4666 
L 4159 4666 
L 4159 0 
L 3309 0 
L 1241 3903 
L 1241 0 
L 628 0 
L 628 4666 
z
" transform="scale(0.015625)"/>
      <path id="DejaVuSans-5f" d="M 3263 -1063 
L 3263 -1509 
L -63 -1509 
L -63 -1063 
L 3263 -1063 
z
" transform="scale(0.015625)"/>
      <path id="DejaVuSans-66" d="M 2375 4863 
L 2375 4384 
L 1825 4384 
Q 1516 4384 1395 4259 
Q 1275 4134 1275 3809 
L 1275 3500 
L 2222 3500 
L 2222 3053 
L 1275 3053 
L 1275 0 
L 697 0 
L 697 3053 
L 147 3053 
L 147 3500 
L 697 3500 
L 697 3744 
Q 697 4328 969 4595 
Q 1241 4863 1831 4863 
L 2375 4863 
z
" transform="scale(0.015625)"/>
      <path id="DejaVuSans-58" d="M 403 4666 
L 1081 4666 
L 2241 2931 
L 3406 4666 
L 4084 4666 
L 2584 2425 
L 4184 0 
L 3506 0 
L 2194 1984 
L 872 0 
L 191 0 
L 1856 2491 
L 403 4666 
z
" transform="scale(0.015625)"/>
     </defs>
     <use xlink:href="#DejaVuSans-4e"/>
     <use xlink:href="#DejaVuSans-4e" x="74.804688"/>
     <use xlink:href="#DejaVuSans-5f" x="149.609375"/>
     <use xlink:href="#DejaVuSans-6f" x="199.609375"/>
     <use xlink:href="#DejaVuSans-66" x="260.791016"/>
     <use xlink:href="#DejaVuSans-66" x="295.996094"/>
     <use xlink:href="#DejaVuSans-58" x="331.201172"/>
    </g>
   </g>
  </g>
 </g>
 <defs>
  <clipPath id="p8ba7b60123">
   <rect x="57.6" y="41.472" width="357.12" height="266.112"/>
  </clipPath>
 </defs>
</svg>
