<?xml version="1.0" encoding="utf-8" standalone="no"?>
<!DOCTYPE svg PUBLIC "-//W3C//DTD SVG 1.1//EN"
  "http://www.w3.org/Graphics/SVG/1.1/DTD/svg11.dtd">
<svg xmlns:xlink="http://www.w3.org/1999/xlink" width="460.8pt" height="345.6pt" viewBox="0 0 460.8 345.6" xmlns="http://www.w3.org/2000/svg" version="1.1">
 <metadata>
  <rdf:RDF xmlns:dc="http://purl.org/dc/elements/1.1/" xmlns:cc="http://creativecommons.org/ns#" xmlns:rdf="http://www.w3.org/1999/02/22-rdf-syntax-ns#">
   <cc:Work>
    <dc:type rdf:resource="http://purl.org/dc/dcmitype/StillImage"/>
    <dc:date>2023-06-16T16:07:30.493623</dc:date>
    <dc:format>image/svg+xml</dc:format>
    <dc:creator>
     <cc:Agent>
      <dc:title>Matplotlib v3.7.0, https://matplotlib.org/</dc:title>
     </cc:Agent>
    </dc:creator>
   </cc:Work>
  </rdf:RDF>
 </metadata>
 <defs>
  <style type="text/css">*{stroke-linejoin: round; stroke-linecap: butt}</style>
 </defs>
 <g id="figure_1">
  <g id="patch_1">
   <path d="M 0 345.6 
L 460.8 345.6 
L 460.8 0 
L 0 0 
z
" style="fill: #ffffff"/>
  </g>
  <g id="axes_1">
   <g id="patch_2">
    <path d="M 57.6 307.584 
L 414.72 307.584 
L 414.72 41.472 
L 57.6 41.472 
z
" style="fill: #ffffff"/>
   </g>
   <g id="matplotlib.axis_1">
    <g id="xtick_1">
     <g id="line2d_1">
      <defs>
       <path id="m111795df17" d="M 0 0 
L 0 3.5 
" style="stroke: #000000; stroke-width: 0.8"/>
      </defs>
      <g>
       <use xlink:href="#m111795df17" x="73.832727" y="307.584" style="stroke: #000000; stroke-width: 0.8"/>
      </g>
     </g>
     <g id="text_1">
      <!-- 0 -->
      <g transform="translate(70.651477 322.182437) scale(0.1 -0.1)">
       <defs>
        <path id="DejaVuSans-30" d="M 2034 4250 
Q 1547 4250 1301 3770 
Q 1056 3291 1056 2328 
Q 1056 1369 1301 889 
Q 1547 409 2034 409 
Q 2525 409 2770 889 
Q 3016 1369 3016 2328 
Q 3016 3291 2770 3770 
Q 2525 4250 2034 4250 
z
M 2034 4750 
Q 2819 4750 3233 4129 
Q 3647 3509 3647 2328 
Q 3647 1150 3233 529 
Q 2819 -91 2034 -91 
Q 1250 -91 836 529 
Q 422 1150 422 2328 
Q 422 3509 836 4129 
Q 1250 4750 2034 4750 
z
" transform="scale(0.015625)"/>
       </defs>
       <use xlink:href="#DejaVuSans-30"/>
      </g>
     </g>
    </g>
    <g id="xtick_2">
     <g id="line2d_2">
      <g>
       <use xlink:href="#m111795df17" x="138.828632" y="307.584" style="stroke: #000000; stroke-width: 0.8"/>
      </g>
     </g>
     <g id="text_2">
      <!-- 200 -->
      <g transform="translate(129.284882 322.182437) scale(0.1 -0.1)">
       <defs>
        <path id="DejaVuSans-32" d="M 1228 531 
L 3431 531 
L 3431 0 
L 469 0 
L 469 531 
Q 828 903 1448 1529 
Q 2069 2156 2228 2338 
Q 2531 2678 2651 2914 
Q 2772 3150 2772 3378 
Q 2772 3750 2511 3984 
Q 2250 4219 1831 4219 
Q 1534 4219 1204 4116 
Q 875 4013 500 3803 
L 500 4441 
Q 881 4594 1212 4672 
Q 1544 4750 1819 4750 
Q 2544 4750 2975 4387 
Q 3406 4025 3406 3419 
Q 3406 3131 3298 2873 
Q 3191 2616 2906 2266 
Q 2828 2175 2409 1742 
Q 1991 1309 1228 531 
z
" transform="scale(0.015625)"/>
       </defs>
       <use xlink:href="#DejaVuSans-32"/>
       <use xlink:href="#DejaVuSans-30" x="63.623047"/>
       <use xlink:href="#DejaVuSans-30" x="127.246094"/>
      </g>
     </g>
    </g>
    <g id="xtick_3">
     <g id="line2d_3">
      <g>
       <use xlink:href="#m111795df17" x="203.824537" y="307.584" style="stroke: #000000; stroke-width: 0.8"/>
      </g>
     </g>
     <g id="text_3">
      <!-- 400 -->
      <g transform="translate(194.280787 322.182437) scale(0.1 -0.1)">
       <defs>
        <path id="DejaVuSans-34" d="M 2419 4116 
L 825 1625 
L 2419 1625 
L 2419 4116 
z
M 2253 4666 
L 3047 4666 
L 3047 1625 
L 3713 1625 
L 3713 1100 
L 3047 1100 
L 3047 0 
L 2419 0 
L 2419 1100 
L 313 1100 
L 313 1709 
L 2253 4666 
z
" transform="scale(0.015625)"/>
       </defs>
       <use xlink:href="#DejaVuSans-34"/>
       <use xlink:href="#DejaVuSans-30" x="63.623047"/>
       <use xlink:href="#DejaVuSans-30" x="127.246094"/>
      </g>
     </g>
    </g>
    <g id="xtick_4">
     <g id="line2d_4">
      <g>
       <use xlink:href="#m111795df17" x="268.820442" y="307.584" style="stroke: #000000; stroke-width: 0.8"/>
      </g>
     </g>
     <g id="text_4">
      <!-- 600 -->
      <g transform="translate(259.276692 322.182437) scale(0.1 -0.1)">
       <defs>
        <path id="DejaVuSans-36" d="M 2113 2584 
Q 1688 2584 1439 2293 
Q 1191 2003 1191 1497 
Q 1191 994 1439 701 
Q 1688 409 2113 409 
Q 2538 409 2786 701 
Q 3034 994 3034 1497 
Q 3034 2003 2786 2293 
Q 2538 2584 2113 2584 
z
M 3366 4563 
L 3366 3988 
Q 3128 4100 2886 4159 
Q 2644 4219 2406 4219 
Q 1781 4219 1451 3797 
Q 1122 3375 1075 2522 
Q 1259 2794 1537 2939 
Q 1816 3084 2150 3084 
Q 2853 3084 3261 2657 
Q 3669 2231 3669 1497 
Q 3669 778 3244 343 
Q 2819 -91 2113 -91 
Q 1303 -91 875 529 
Q 447 1150 447 2328 
Q 447 3434 972 4092 
Q 1497 4750 2381 4750 
Q 2619 4750 2861 4703 
Q 3103 4656 3366 4563 
z
" transform="scale(0.015625)"/>
       </defs>
       <use xlink:href="#DejaVuSans-36"/>
       <use xlink:href="#DejaVuSans-30" x="63.623047"/>
       <use xlink:href="#DejaVuSans-30" x="127.246094"/>
      </g>
     </g>
    </g>
    <g id="xtick_5">
     <g id="line2d_5">
      <g>
       <use xlink:href="#m111795df17" x="333.816347" y="307.584" style="stroke: #000000; stroke-width: 0.8"/>
      </g>
     </g>
     <g id="text_5">
      <!-- 800 -->
      <g transform="translate(324.272597 322.182437) scale(0.1 -0.1)">
       <defs>
        <path id="DejaVuSans-38" d="M 2034 2216 
Q 1584 2216 1326 1975 
Q 1069 1734 1069 1313 
Q 1069 891 1326 650 
Q 1584 409 2034 409 
Q 2484 409 2743 651 
Q 3003 894 3003 1313 
Q 3003 1734 2745 1975 
Q 2488 2216 2034 2216 
z
M 1403 2484 
Q 997 2584 770 2862 
Q 544 3141 544 3541 
Q 544 4100 942 4425 
Q 1341 4750 2034 4750 
Q 2731 4750 3128 4425 
Q 3525 4100 3525 3541 
Q 3525 3141 3298 2862 
Q 3072 2584 2669 2484 
Q 3125 2378 3379 2068 
Q 3634 1759 3634 1313 
Q 3634 634 3220 271 
Q 2806 -91 2034 -91 
Q 1263 -91 848 271 
Q 434 634 434 1313 
Q 434 1759 690 2068 
Q 947 2378 1403 2484 
z
M 1172 3481 
Q 1172 3119 1398 2916 
Q 1625 2713 2034 2713 
Q 2441 2713 2670 2916 
Q 2900 3119 2900 3481 
Q 2900 3844 2670 4047 
Q 2441 4250 2034 4250 
Q 1625 4250 1398 4047 
Q 1172 3844 1172 3481 
z
" transform="scale(0.015625)"/>
       </defs>
       <use xlink:href="#DejaVuSans-38"/>
       <use xlink:href="#DejaVuSans-30" x="63.623047"/>
       <use xlink:href="#DejaVuSans-30" x="127.246094"/>
      </g>
     </g>
    </g>
    <g id="xtick_6">
     <g id="line2d_6">
      <g>
       <use xlink:href="#m111795df17" x="398.812252" y="307.584" style="stroke: #000000; stroke-width: 0.8"/>
      </g>
     </g>
     <g id="text_6">
      <!-- 1000 -->
      <g transform="translate(386.087252 322.182437) scale(0.1 -0.1)">
       <defs>
        <path id="DejaVuSans-31" d="M 794 531 
L 1825 531 
L 1825 4091 
L 703 3866 
L 703 4441 
L 1819 4666 
L 2450 4666 
L 2450 531 
L 3481 531 
L 3481 0 
L 794 0 
L 794 531 
z
" transform="scale(0.015625)"/>
       </defs>
       <use xlink:href="#DejaVuSans-31"/>
       <use xlink:href="#DejaVuSans-30" x="63.623047"/>
       <use xlink:href="#DejaVuSans-30" x="127.246094"/>
       <use xlink:href="#DejaVuSans-30" x="190.869141"/>
      </g>
     </g>
    </g>
   </g>
   <g id="matplotlib.axis_2">
    <g id="ytick_1">
     <g id="line2d_7">
      <defs>
       <path id="m26af7fa64c" d="M 0 0 
L -3.5 0 
" style="stroke: #000000; stroke-width: 0.8"/>
      </defs>
      <g>
       <use xlink:href="#m26af7fa64c" x="57.6" y="79.602125" style="stroke: #000000; stroke-width: 0.8"/>
      </g>
     </g>
     <g id="text_7">
      <!-- $\mathdefault{10^{1}}$ -->
      <g transform="translate(33 83.401344) scale(0.1 -0.1)">
       <use xlink:href="#DejaVuSans-31" transform="translate(0 0.684375)"/>
       <use xlink:href="#DejaVuSans-30" transform="translate(63.623047 0.684375)"/>
       <use xlink:href="#DejaVuSans-31" transform="translate(128.203125 38.965625) scale(0.7)"/>
      </g>
     </g>
    </g>
    <g id="ytick_2">
     <g id="line2d_8">
      <defs>
       <path id="m03d73c2d83" d="M 0 0 
L -2 0 
" style="stroke: #000000; stroke-width: 0.6"/>
      </defs>
      <g>
       <use xlink:href="#m03d73c2d83" x="57.6" y="249.080303" style="stroke: #000000; stroke-width: 0.6"/>
      </g>
     </g>
    </g>
    <g id="ytick_3">
     <g id="line2d_9">
      <g>
       <use xlink:href="#m03d73c2d83" x="57.6" y="206.383727" style="stroke: #000000; stroke-width: 0.6"/>
      </g>
     </g>
    </g>
    <g id="ytick_4">
     <g id="line2d_10">
      <g>
       <use xlink:href="#m03d73c2d83" x="57.6" y="176.090025" style="stroke: #000000; stroke-width: 0.6"/>
      </g>
     </g>
    </g>
    <g id="ytick_5">
     <g id="line2d_11">
      <g>
       <use xlink:href="#m03d73c2d83" x="57.6" y="152.592403" style="stroke: #000000; stroke-width: 0.6"/>
      </g>
     </g>
    </g>
    <g id="ytick_6">
     <g id="line2d_12">
      <g>
       <use xlink:href="#m03d73c2d83" x="57.6" y="133.393449" style="stroke: #000000; stroke-width: 0.6"/>
      </g>
     </g>
    </g>
    <g id="ytick_7">
     <g id="line2d_13">
      <g>
       <use xlink:href="#m03d73c2d83" x="57.6" y="117.160964" style="stroke: #000000; stroke-width: 0.6"/>
      </g>
     </g>
    </g>
    <g id="ytick_8">
     <g id="line2d_14">
      <g>
       <use xlink:href="#m03d73c2d83" x="57.6" y="103.099746" style="stroke: #000000; stroke-width: 0.6"/>
      </g>
     </g>
    </g>
    <g id="ytick_9">
     <g id="line2d_15">
      <g>
       <use xlink:href="#m03d73c2d83" x="57.6" y="90.696873" style="stroke: #000000; stroke-width: 0.6"/>
      </g>
     </g>
    </g>
   </g>
   <g id="line2d_16">
    <path d="M 73.832727 53.568 
L 74.482686 66.508788 
L 74.807666 77.16314 
L 75.457625 109.677918 
L 75.782604 118.395917 
L 76.757543 132.555394 
L 77.732482 144.212575 
L 78.70742 153.44377 
L 80.332318 165.710652 
L 81.957215 182.45037 
L 82.282195 184.503168 
L 82.932154 189.52464 
L 84.557052 198.534641 
L 86.831908 209.635076 
L 87.806847 212.615518 
L 88.456806 214.089088 
L 88.781785 214.491218 
L 89.431744 217.635075 
L 89.756724 218.172831 
L 90.081704 219.255933 
L 90.406683 218.827136 
L 91.056642 218.85303 
L 91.381622 219.773101 
L 91.706601 221.242805 
L 93.006519 224.49115 
L 93.331499 225.174945 
L 93.981458 226.074795 
L 94.306437 227.168129 
L 94.956396 228.284473 
L 95.281376 228.199112 
L 95.931335 229.190072 
L 96.906274 231.560653 
L 98.206192 234.501364 
L 98.856151 236.194359 
L 99.831089 238.309955 
L 100.481048 239.337437 
L 101.455987 240.86105 
L 102.105946 242.522928 
L 102.755905 244.471544 
L 103.080885 244.84483 
L 103.405864 244.82367 
L 103.730844 247.864021 
L 104.055823 248.689661 
L 105.355741 257.392475 
L 106.0057 259.667552 
L 106.980639 262.05309 
L 107.305618 262.424341 
L 108.280557 264.200488 
L 109.255495 266.157106 
L 110.555414 268.15417 
L 111.205373 268.70105 
L 111.530352 268.880742 
L 112.180311 269.41801 
L 112.83027 269.648715 
L 113.480229 270.181949 
L 114.130188 270.590772 
L 116.080066 271.20613 
L 116.405045 271.564067 
L 116.730025 271.436809 
L 117.379984 271.638372 
L 118.029943 272.310678 
L 118.679902 272.791722 
L 119.004881 272.976081 
L 119.329861 272.494415 
L 119.65484 271.404388 
L 119.97982 269.879368 
L 120.954758 262.003179 
L 121.279738 263.738281 
L 122.579656 267.627757 
L 123.229615 268.46199 
L 124.854513 270.985507 
L 125.504472 271.611975 
L 126.154431 272.41142 
L 127.454349 273.984899 
L 127.779328 274.541887 
L 128.104308 274.789253 
L 129.404226 276.68493 
L 130.054185 277.393644 
L 130.379165 277.538354 
L 130.704144 278.094916 
L 131.029124 279.012788 
L 132.004062 280.170261 
L 132.654021 280.426888 
L 133.30398 280.7898 
L 133.62896 281.265814 
L 133.953939 281.477982 
L 134.603898 281.449931 
L 135.253857 282.070782 
L 135.578837 281.975815 
L 136.228796 282.263168 
L 136.553776 282.224056 
L 136.878755 282.59716 
L 137.203735 283.147518 
L 137.528714 283.310308 
L 137.853694 283.661763 
L 138.178673 283.782076 
L 139.153612 284.824807 
L 143.378346 289.913337 
L 144.028305 290.371013 
L 144.678264 291.016109 
L 145.653202 292.044784 
L 146.628141 292.432156 
L 147.603079 293.215046 
L 148.253038 293.575318 
L 148.902998 293.912247 
L 149.227977 293.285716 
L 149.877936 294.33953 
L 150.202916 294.548434 
L 150.852875 295.488 
L 151.177854 295.261255 
L 151.502834 294.579727 
L 152.152793 289.648511 
L 152.802752 282.485148 
L 153.127731 280.924724 
L 153.452711 281.225137 
L 154.10267 282.651536 
L 154.427649 283.091265 
L 154.752629 283.313609 
L 155.077609 283.264882 
L 156.052547 283.438396 
L 157.027486 283.111987 
L 159.952301 283.569539 
L 160.60226 283.80722 
L 161.577199 284.089915 
L 162.877117 284.395111 
L 165.476953 285.200757 
L 165.801933 285.367251 
L 166.451892 285.839171 
L 168.726749 286.287287 
L 169.376708 286.320161 
L 170.351646 286.263009 
L 171.976544 286.60288 
L 172.626503 286.661248 
L 174.2514 286.661141 
L 174.90136 286.758133 
L 175.876298 286.745908 
L 177.826175 286.884034 
L 178.151155 286.627057 
L 178.801114 286.833285 
L 179.126093 286.635351 
L 179.451073 286.767074 
L 179.776052 286.683483 
L 180.426011 286.798832 
L 181.075971 287.12517 
L 182.050909 286.750431 
L 184.000786 286.897381 
L 184.325766 287.002095 
L 184.650745 286.960031 
L 185.300704 286.60574 
L 185.950663 285.720121 
L 186.600622 284.07383 
L 186.925602 281.957519 
L 187.250581 281.102273 
L 187.575561 278.353051 
L 188.22552 265.822626 
L 188.5505 265.215784 
L 189.200459 272.927981 
L 189.525438 275.674364 
L 189.850418 281.254466 
L 190.175397 284.031372 
L 190.500377 285.676958 
L 190.825356 286.44092 
L 191.150336 286.127649 
L 191.475315 282.278136 
L 191.800295 280.919332 
L 192.775233 282.229301 
L 194.075152 283.190047 
L 195.05009 283.718723 
L 196.350008 284.181124 
L 196.999967 284.456272 
L 198.624865 285.043162 
L 200.249762 285.793655 
L 203.824537 286.712192 
L 204.149517 286.649133 
L 204.799476 286.85703 
L 205.124455 286.912752 
L 205.449435 286.830779 
L 205.774414 286.571809 
L 206.099394 286.458364 
L 207.074333 286.714363 
L 209.674169 286.614982 
L 209.999148 286.715395 
L 210.974087 287.46737 
L 211.624046 288.702462 
L 211.949025 289.579446 
L 212.923964 289.010448 
L 213.248943 287.688319 
L 213.573923 286.854074 
L 213.898903 286.746006 
L 214.223882 286.441368 
L 214.873841 288.68519 
L 215.198821 288.834985 
L 215.5238 289.483874 
L 215.84878 289.757928 
L 216.173759 288.602557 
L 216.823718 290.721091 
L 217.148698 290.277227 
L 217.473677 289.516646 
L 217.798657 289.682008 
L 218.123636 290.70972 
L 218.448616 291.273241 
L 218.773595 291.235563 
L 219.423554 291.773166 
L 220.073514 292.971329 
L 220.398493 291.575732 
L 220.723473 291.23338 
L 221.373432 291.425152 
L 221.698411 291.521911 
L 222.023391 291.418809 
L 222.67335 291.597629 
L 223.323309 291.22983 
L 223.648288 290.940117 
L 224.298247 291.09572 
L 224.948206 290.787673 
L 225.273186 290.524372 
L 225.598165 290.430132 
L 225.923145 290.575023 
L 226.248124 290.508492 
L 226.573104 290.57641 
L 228.198002 290.24739 
L 228.847961 290.459063 
L 229.822899 290.55692 
L 230.147879 290.487527 
L 230.472858 290.235709 
L 232.422735 290.386724 
L 233.072695 289.683171 
L 233.722654 289.519531 
L 234.047633 289.016868 
L 234.697592 288.562352 
L 235.022572 288.659001 
L 235.672531 288.998142 
L 236.647469 289.602739 
L 237.297428 290.273932 
L 237.947387 290.666578 
L 238.272367 290.915938 
L 238.597346 290.807083 
L 238.922326 291.207055 
L 239.897265 291.142351 
L 240.222244 291.407898 
L 240.872203 291.32252 
L 241.197183 291.436066 
L 241.522162 291.332729 
L 242.172121 291.565387 
L 242.497101 291.241726 
L 242.82208 290.666671 
L 243.472039 288.521678 
L 243.797019 291.643176 
L 244.121998 291.854585 
L 244.446978 288.459597 
L 244.771957 288.840112 
L 246.396855 289.483708 
L 246.721835 289.347551 
L 247.371794 289.610459 
L 247.696773 289.513292 
L 248.671712 289.743807 
L 248.996691 289.642505 
L 249.321671 289.811529 
L 249.64665 289.764699 
L 249.97163 289.41442 
L 250.621589 289.480475 
L 250.946568 289.248384 
L 251.271548 287.870807 
L 251.596527 285.818385 
L 251.921507 284.626069 
L 252.246486 281.279457 
L 252.896446 278.509411 
L 253.221425 278.650669 
L 254.196364 278.055387 
L 254.521343 278.258917 
L 254.846323 279.327084 
L 255.171302 279.858285 
L 255.496282 279.870442 
L 256.7962 282.529687 
L 257.771138 283.670454 
L 258.096118 283.392732 
L 259.071057 284.137922 
L 259.396036 284.01443 
L 259.721016 283.717738 
L 260.370975 284.638817 
L 260.695954 284.661711 
L 261.345913 284.134218 
L 261.670893 283.978543 
L 261.995872 283.253108 
L 262.320852 283.159862 
L 262.645831 282.394913 
L 263.29579 279.869618 
L 263.62077 280.00373 
L 263.945749 279.221554 
L 264.270729 279.32634 
L 264.595708 278.652456 
L 264.920688 277.298378 
L 265.245667 277.081414 
L 265.570647 275.504236 
L 265.895627 275.439972 
L 266.220606 274.577408 
L 268.170483 275.997502 
L 268.495463 275.826317 
L 268.820442 275.948294 
L 269.470401 276.687654 
L 269.795381 277.153554 
L 270.12036 277.238733 
L 270.44534 277.002285 
L 270.770319 277.452628 
L 271.420278 277.64286 
L 273.045176 278.530347 
L 274.020115 279.152301 
L 274.345094 279.231399 
L 274.670074 279.181726 
L 275.645012 279.653145 
L 276.294971 280.442975 
L 276.619951 280.468805 
L 277.26991 281.123492 
L 278.894808 281.749494 
L 280.194726 282.114287 
L 280.519705 282.106539 
L 280.844685 282.217633 
L 281.494644 282.8103 
L 282.794562 283.091594 
L 284.744439 283.686512 
L 285.394398 283.663576 
L 287.994234 284.182079 
L 288.644193 284.19458 
L 289.619132 285.161944 
L 289.944111 285.091438 
L 291.893989 285.680459 
L 293.193907 286.082036 
L 293.518886 285.912645 
L 294.493825 284.671725 
L 294.818804 281.703188 
L 295.143784 281.064457 
L 295.468763 281.166241 
L 295.793743 280.956781 
L 297.093661 280.886072 
L 297.74362 281.068012 
L 299.043538 281.717383 
L 299.693497 282.310082 
L 301.318395 282.823651 
L 302.293333 282.999426 
L 302.618313 283.319291 
L 302.943292 283.411583 
L 303.918231 284.123292 
L 304.24321 284.293482 
L 304.89317 284.783463 
L 306.518067 285.211512 
L 306.843047 285.160697 
L 307.817985 285.747777 
L 309.442883 285.984273 
L 310.092842 286.238567 
L 310.417821 286.355236 
L 311.067781 286.372791 
L 313.017658 286.923378 
L 313.342637 286.942917 
L 313.667617 287.243683 
L 313.992596 287.187109 
L 314.967535 287.655487 
L 315.292514 287.787151 
L 315.617494 287.712511 
L 315.942473 287.928294 
L 316.917412 288.105452 
L 317.567371 287.864792 
L 317.892351 288.42676 
L 318.21733 288.654842 
L 318.54231 288.296197 
L 318.867289 287.211583 
L 319.192269 284.358954 
L 320.167207 270.251746 
L 320.817166 275.222583 
L 321.142146 276.714669 
L 321.467125 277.413209 
L 321.792105 276.140865 
L 322.117084 276.661283 
L 322.442064 276.750318 
L 322.767043 277.061878 
L 323.417002 276.836797 
L 323.741982 276.472163 
L 324.391941 276.468663 
L 324.716921 276.420927 
L 325.691859 276.716227 
L 326.016839 276.491924 
L 327.641736 276.692557 
L 328.941654 276.807562 
L 329.266634 271.373723 
L 329.591613 275.006229 
L 329.916593 275.197284 
L 330.566552 274.668186 
L 331.216511 275.612079 
L 331.541491 275.290885 
L 331.86647 275.391636 
L 332.841409 276.123263 
L 333.166388 275.630064 
L 333.491368 276.212112 
L 334.466306 276.047195 
L 334.791286 276.190098 
L 335.441245 275.802482 
L 338.366061 276.770547 
L 339.340999 276.620536 
L 340.315938 275.996715 
L 340.640917 276.043878 
L 341.290876 276.528231 
L 342.265815 277.122003 
L 343.240753 277.529473 
L 343.890713 277.999913 
L 345.190631 278.202533 
L 345.84059 278.15867 
L 347.790467 278.324975 
L 349.415364 278.475153 
L 352.990139 278.647926 
L 353.640098 278.889294 
L 358.189812 279.066878 
L 368.914136 279.439327 
L 369.239115 279.482595 
L 369.564095 279.390769 
L 371.513972 279.534547 
L 373.463849 279.613153 
L 374.113808 279.710076 
L 385.813071 279.934019 
L 386.138051 279.778152 
L 387.762948 279.819937 
L 388.412907 280.241639 
L 388.737887 280.419374 
L 398.487273 280.826542 
L 398.487273 280.826542 
" clip-path="url(#p0e1a72225b)" style="fill: none; stroke: #1f77b4; stroke-width: 1.5; stroke-linecap: square"/>
   </g>
   <g id="patch_3">
    <path d="M 57.6 307.584 
L 57.6 41.472 
" style="fill: none; stroke: #000000; stroke-width: 0.8; stroke-linejoin: miter; stroke-linecap: square"/>
   </g>
   <g id="patch_4">
    <path d="M 414.72 307.584 
L 414.72 41.472 
" style="fill: none; stroke: #000000; stroke-width: 0.8; stroke-linejoin: miter; stroke-linecap: square"/>
   </g>
   <g id="patch_5">
    <path d="M 57.6 307.584 
L 414.72 307.584 
" style="fill: none; stroke: #000000; stroke-width: 0.8; stroke-linejoin: miter; stroke-linecap: square"/>
   </g>
   <g id="patch_6">
    <path d="M 57.6 41.472 
L 414.72 41.472 
" style="fill: none; stroke: #000000; stroke-width: 0.8; stroke-linejoin: miter; stroke-linecap: square"/>
   </g>
   <g id="legend_1">
    <g id="patch_7">
     <path d="M 356.404375 64.150125 
L 407.72 64.150125 
Q 409.72 64.150125 409.72 62.150125 
L 409.72 48.472 
Q 409.72 46.472 407.72 46.472 
L 356.404375 46.472 
Q 354.404375 46.472 354.404375 48.472 
L 354.404375 62.150125 
Q 354.404375 64.150125 356.404375 64.150125 
z
" style="fill: #ffffff; opacity: 0.8; stroke: #cccccc; stroke-linejoin: miter"/>
    </g>
    <g id="line2d_17">
     <path d="M 358.404375 54.570438 
L 368.404375 54.570438 
L 378.404375 54.570438 
" style="fill: none; stroke: #1f77b4; stroke-width: 1.5; stroke-linecap: square"/>
    </g>
    <g id="text_8">
     <!-- loss -->
     <g transform="translate(386.404375 58.070438) scale(0.1 -0.1)">
      <defs>
       <path id="DejaVuSans-6c" d="M 603 4863 
L 1178 4863 
L 1178 0 
L 603 0 
L 603 4863 
z
" transform="scale(0.015625)"/>
       <path id="DejaVuSans-6f" d="M 1959 3097 
Q 1497 3097 1228 2736 
Q 959 2375 959 1747 
Q 959 1119 1226 758 
Q 1494 397 1959 397 
Q 2419 397 2687 759 
Q 2956 1122 2956 1747 
Q 2956 2369 2687 2733 
Q 2419 3097 1959 3097 
z
M 1959 3584 
Q 2709 3584 3137 3096 
Q 3566 2609 3566 1747 
Q 3566 888 3137 398 
Q 2709 -91 1959 -91 
Q 1206 -91 779 398 
Q 353 888 353 1747 
Q 353 2609 779 3096 
Q 1206 3584 1959 3584 
z
" transform="scale(0.015625)"/>
       <path id="DejaVuSans-73" d="M 2834 3397 
L 2834 2853 
Q 2591 2978 2328 3040 
Q 2066 3103 1784 3103 
Q 1356 3103 1142 2972 
Q 928 2841 928 2578 
Q 928 2378 1081 2264 
Q 1234 2150 1697 2047 
L 1894 2003 
Q 2506 1872 2764 1633 
Q 3022 1394 3022 966 
Q 3022 478 2636 193 
Q 2250 -91 1575 -91 
Q 1294 -91 989 -36 
Q 684 19 347 128 
L 347 722 
Q 666 556 975 473 
Q 1284 391 1588 391 
Q 1994 391 2212 530 
Q 2431 669 2431 922 
Q 2431 1156 2273 1281 
Q 2116 1406 1581 1522 
L 1381 1569 
Q 847 1681 609 1914 
Q 372 2147 372 2553 
Q 372 3047 722 3315 
Q 1072 3584 1716 3584 
Q 2034 3584 2315 3537 
Q 2597 3491 2834 3397 
z
" transform="scale(0.015625)"/>
      </defs>
      <use xlink:href="#DejaVuSans-6c"/>
      <use xlink:href="#DejaVuSans-6f" x="27.783203"/>
      <use xlink:href="#DejaVuSans-73" x="88.964844"/>
      <use xlink:href="#DejaVuSans-73" x="141.064453"/>
     </g>
    </g>
   </g>
  </g>
 </g>
 <defs>
  <clipPath id="p0e1a72225b">
   <rect x="57.6" y="41.472" width="357.12" height="266.112"/>
  </clipPath>
 </defs>
</svg>
